<?xml version="1.0" encoding="utf-8"?>
<!-- Generator: Adobe Illustrator 19.0.0, SVG Export Plug-In . SVG Version: 6.00 Build 0)  -->
<svg version="1.1" id="Layer_1" xmlns="http://www.w3.org/2000/svg" xmlns:xlink="http://www.w3.org/1999/xlink" x="0px" y="0px"
	 width="422.6px" height="64.1px" viewBox="0 0 422.6 64.1" style="enable-background:new 0 0 422.6 64.1;" xml:space="preserve">
<style type="text/css">
	.st0{clip-path:url(#SVGID_2_);fill:#212121;}
	.st1{clip-path:url(#SVGID_2_);}
	.st2{clip-path:url(#SVGID_4_);fill:#212121;}
	.st3{clip-path:url(#SVGID_4_);}
	.st4{fill:#212121;}
	.st5{font-family:'DINPro-Bold';}
	.st6{font-size:11.5382px;}
	.st7{clip-path:url(#SVGID_6_);fill:url(#SVGID_7_);}
	.st8{clip-path:url(#SVGID_9_);fill:url(#SVGID_10_);}
	.st9{filter:url(#Adobe_OpacityMaskFilter);}
	.st10{clip-path:url(#SVGID_12_);fill:url(#SVGID_14_);}
	.st11{clip-path:url(#SVGID_12_);mask:url(#SVGID_13_);fill:url(#SVGID_15_);}
	.st12{clip-path:url(#SVGID_17_);fill:#4E1211;}
	.st13{clip-path:url(#SVGID_17_);fill:#0E0E23;}
	.st14{clip-path:url(#SVGID_17_);fill:#FFFFFF;}
	.st15{font-family:'DINPro-Medium';}
	.st16{font-size:8.0419px;}
	.st17{letter-spacing:1;}
</style>
<g>
	<defs>
		<rect id="SVGID_1_" width="422.6" height="64.1"/>
	</defs>
	<clipPath id="SVGID_2_">
		<use xlink:href="#SVGID_1_"  style="overflow:visible;"/>
	</clipPath>
	<rect x="173.6" y="3.1" class="st0" width="1.2" height="61"/>
	<g class="st1">
		<defs>
			<rect id="SVGID_3_" y="0" width="422.6" height="64.1"/>
		</defs>
		<clipPath id="SVGID_4_">
			<use xlink:href="#SVGID_3_"  style="overflow:visible;"/>
		</clipPath>
		<path class="st2" d="M231.6,30.8c0.1,0,0.1-0.1,0.2,0c0,0.2,0,0.3,0.1,0.4c0.1,0,0.1,0,0.1-0.1c0-0.1-0.1-0.2-0.1-0.3
			c0.3-0.1,0.5-0.5,0.4-0.9c-0.1-0.4-0.7-0.7-0.7-1.1C231.3,29.3,230.7,30.4,231.6,30.8"/>
		<path class="st2" d="M229.9,33.5c0.2,0.3,0.6,0.9,1.1,0.9c0.2,0,0.4-0.1,0.4-0.3c-0.1-0.1-0.4-0.1-0.6-0.1c0,0,0.1,0,0.1-0.1
			c-0.2-0.1-0.4-0.1-0.4-0.2c0.2,0.1,0.4,0.2,0.7,0.2c0-0.1-0.1-0.1,0-0.2c0.1,0.2,0.3,0.4,0.6,0.4c0,0,0-0.1,0-0.1h-0.3v-0.2
			c-0.1-0.2-0.3-0.4-0.5-0.5C230.6,33.4,230.2,33.6,229.9,33.5"/>
		<path class="st2" d="M230.5,39.1c-0.1,0.1-0.3,0.1-0.2,0.3c0.1,0,0.1-0.1,0.2-0.2c0.2,0.2,0.5,0.1,0.6,0c0.2-0.1,0.2-0.5,0.4-0.7
			c0.1-0.1,0.2-0.1,0.2-0.2C231,38.2,230.2,38.5,230.5,39.1"/>
		<path class="st2" d="M225.4,28.8c0-0.1-0.1-0.1-0.1-0.1c0.1-0.1,0.3-0.1,0.3-0.3c-0.1-0.2-0.1,0.1-0.3,0.1
			c-0.1-0.1-0.1-0.1-0.2-0.1c-0.8-0.2-0.8,0.8-1.2,1.1C224.7,29.6,225.4,29.6,225.4,28.8"/>
		<path class="st2" d="M219.6,30.1c0.1,0.2,0.3,0.4,0.5,0.3c0,0.1,0,0.4,0.2,0.3c0-0.1-0.1-0.2-0.1-0.2c0.2-0.1,0.3-0.3,0.3-0.5
			c0-0.5-0.6-0.6-0.6-1C219.7,29.1,219.4,29.7,219.6,30.1"/>
		<path class="st2" d="M222.4,27.6c0.1-0.3,0-0.5-0.1-0.7c0.1,0,0.1,0.1,0.2,0.1c0-0.2,0-0.4,0-0.6c0.1,0.2,0,0.6,0.1,0.9
			c0.1,0,0.1-0.1,0.2-0.1c-0.2,0.2-0.4,0.6-0.2,0.9c0,0,0.1,0,0.1,0c0-0.1-0.1-0.2-0.1-0.3c0.1,0,0.1,0,0.2,0
			c0.2-0.2,0.4-0.4,0.4-0.7c0-0.6-0.6-0.8-0.6-1.4c-0.2,0.4-0.7,0.8-0.6,1.4C221.9,27.3,222.1,27.6,222.4,27.6"/>
		<path class="st2" d="M223.3,30.8c-0.1,0-0.5-0.3-0.4,0c0.1,0.1,0.2,0,0.3,0c0,0.5,0.3,0.7,0.6,0.7c0.4,0.1,0.9-0.3,1.2,0
			c-0.3-0.5-1-1.5-1.7-0.9C223.3,30.7,223.3,30.8,223.3,30.8"/>
		<path class="st2" d="M211.1,36c-0.3-0.3-0.9-0.2-1.3-0.5c-0.1-0.1-0.1-0.1-0.2-0.2c0.1,0.7,0.2,1.6,0.7,2c0.2,0.1,0.7,0.2,0.8,0
			c-0.2-0.3-0.4-0.4-0.7-0.6c0,0,0.1,0,0.2,0c-0.1-0.2-0.4-0.4-0.5-0.6c0.3,0.2,0.5,0.6,0.8,0.8c0-0.1,0-0.2,0.1-0.3
			c0,0.1,0,0.3,0,0.5c0.1,0.2,0.3,0.5,0.5,0.5c0,0,0.1-0.1,0.1-0.1c-0.1-0.1-0.2-0.1-0.3-0.2C211.7,36.8,211.4,36.2,211.1,36"/>
		<path class="st2" d="M210.5,38.3c0.2,0.5,0.4,1.4,1.1,1.3c0.1,0,0.2-0.1,0.2-0.2c-0.1-0.1-0.3-0.2-0.6-0.3c0.1,0,0.1,0,0.2-0.1
			c-0.1-0.1-0.4-0.2-0.4-0.4c0.2,0.2,0.4,0.3,0.7,0.5c0-0.1,0-0.1,0-0.2c0,0.3,0.2,0.5,0.5,0.6c0,0,0-0.1,0-0.1
			c-0.1,0-0.2,0-0.2-0.1c0.2-0.5-0.2-0.9-0.7-0.9C211,38.5,210.7,38.5,210.5,38.3"/>
		<path class="st2" d="M213,22.6C213,22.6,213,22.6,213,22.6c-0.3,0.6-0.6,1.8,0.1,2.1c0.1,0,0.2,0.1,0.3,0c0-0.3-0.2-0.5-0.3-0.7
			c0.1,0,0.1,0.1,0.2,0.1c0-0.2-0.1-0.4-0.1-0.6c0.1,0.3,0.2,0.6,0.3,0.9c0.1,0,0.1-0.2,0.2-0.2c0,0.1-0.1,0.2-0.2,0.4
			c0,0.2,0.1,0.5,0.2,0.6c0.1,0,0.1-0.1,0.1-0.1c-0.1-0.1-0.1-0.1-0.2-0.3c0.2-0.1,0.3-0.3,0.3-0.4C214.1,23.5,213.1,23.3,213,22.6"
			/>
		<path class="st2" d="M212.1,26.9c-0.4,0.1-1,0.4-1.5,0.1c0.4,0.5,0.9,1.4,1.7,1.5c0.4,0,0.7-0.1,0.8-0.5c-0.2-0.1-0.6-0.2-1-0.1
			c0-0.1,0.2-0.1,0.2-0.2c-0.3-0.1-0.6-0.1-0.8-0.3c0.4,0.1,0.8,0.3,1.2,0.4c0-0.1-0.1-0.2-0.1-0.3c0.1,0.1,0.2,0.3,0.3,0.5
			c0.2,0.1,0.4,0.2,0.7,0.2c0,0,0-0.2,0-0.2c-0.1,0-0.3,0.1-0.4,0c0-0.3-0.1-0.5-0.2-0.6C212.9,27.1,212.5,26.9,212.1,26.9"/>
		<path class="st2" d="M211.7,46.2c0.3,0,0.7-0.3,0.6-0.6c-0.3-0.1-0.6,0.1-0.8,0.2c0-0.1,0.1-0.1,0.1-0.2c-0.2,0-0.5,0.1-0.7-0.1
			c0.3,0,0.7,0,1-0.1c0-0.1-0.2-0.1-0.1-0.2c0.1,0,0.2,0.2,0.3,0.3c0.2,0.1,0.4,0,0.6-0.1c0-0.1,0-0.1-0.1-0.1
			c-0.1,0-0.2,0.1-0.3,0.1c-0.1-0.3-0.3-0.5-0.6-0.5c-0.7-0.1-1,0.6-1.7,0.7C210.5,45.8,211,46.3,211.7,46.2"/>
		<path class="st2" d="M231.3,36.6c-0.1-0.3-0.3-0.8-0.7-0.9c-0.2-0.1-0.5,0-0.5,0.2c-0.1,0-0.2-0.2-0.3-0.1c0,0.2,0.1,0.1,0.2,0.1
			c-0.1,0.3,0.1,0.5,0.3,0.6C230.6,36.5,231.1,36.4,231.3,36.6"/>
		<path class="st2" d="M220.1,26.6c0,0-0.1,0-0.1,0.1c0.2,0,0.4,0,0.6,0.1c-0.3,0-0.5-0.1-0.8,0c0,0.1,0.1,0.1,0.1,0.2
			c-0.1-0.2-0.4-0.4-0.8-0.3c0,0.1,0,0.1,0,0.1c0.1,0,0.2-0.1,0.3-0.1c0,0.3,0.3,0.5,0.6,0.5c0.5,0.1,0.8-0.5,1.4-0.3
			c-0.3-0.2-0.7-0.8-1.3-0.7c-0.2,0-0.5,0.1-0.5,0.4C219.6,26.7,220,26.6,220.1,26.6"/>
		<path class="st2" d="M229.7,37.9c-0.1,0.3-0.4,0.8,0,1c0.1,0,0.1,0,0.2,0c0,0.1,0,0.2,0.1,0.2c0.1-0.1,0-0.1,0-0.2
			C230.4,38.7,229.9,38.3,229.7,37.9C229.8,37.9,229.8,37.9,229.7,37.9"/>
		<path class="st2" d="M232.4,38.4c0.1,0.7,1,0.9,1.1,1.5c0.3-0.6,0.5-1.9-0.2-2.2c-0.1-0.1-0.3-0.1-0.4,0c0,0.3,0.2,0.6,0.4,0.7
			c-0.1,0-0.1-0.1-0.2-0.1c0,0.2,0.2,0.4,0.1,0.7c-0.2-0.3-0.2-0.7-0.4-1c-0.1,0.1-0.1,0.2-0.2,0.2c0.1-0.1,0.1-0.3,0.2-0.4
			c-0.1-0.2-0.1-0.5-0.2-0.6c0,0-0.1,0.1-0.1,0.1c0.1,0.1,0.2,0.2,0.2,0.3C232.5,37.7,232.4,38.1,232.4,38.4"/>
		<path class="st2" d="M231.9,42c-0.6-0.3-0.8,0.4-1,0.8c-0.1,0-0.2,0.1-0.1,0.1c0.6,0,1.2-0.1,1.2-0.7
			C232,42.1,231.9,42.1,231.9,42c0.1,0,0.2,0,0.2-0.1C232,41.7,232,42,231.9,42"/>
		<path class="st2" d="M228,22.8c0-0.3-0.2-0.7,0-1h0c-0.4,0.3-1.4,0.8-0.9,1.5c0,0,0.1,0,0.1,0c0,0.1-0.1,0.2-0.1,0.4
			c0,0,0.1,0,0.1,0c0.1,0,0-0.2,0.1-0.3C227.7,23.6,228,23.2,228,22.8"/>
		<path class="st2" d="M241,23.8c0.3-0.2,0.8-0.5,0.8-1c0-0.2-0.1-0.6-0.3-0.5c0-0.1,0.1-0.2,0.1-0.4c-0.2,0-0.1,0.1-0.1,0.3
			c-0.4,0-0.6,0.3-0.6,0.8C240.9,23.2,241.1,23.5,241,23.8"/>
		<path class="st2" d="M225.2,13.9c0.1-0.1,0.2-0.2,0.1-0.4c-0.1-0.5-0.5-0.5-0.9-0.8c-0.1-0.1-0.1-0.2-0.2-0.2c0,0.8,0,1.5,0.7,1.5
			c0.1,0,0.1-0.1,0.1-0.1c0.1,0.1,0.1,0.3,0.2,0.3C225.4,14,225.2,14,225.2,13.9"/>
		<path class="st2" d="M235.1,25.1c-0.6-0.2-0.5,0.7-0.3,1c0-0.2,0.4-0.3,0.5-0.5C235.4,25.4,235.4,25.2,235.1,25.1
			c0.1-0.1,0.2-0.1,0.2-0.2C235.2,24.8,235.2,24.9,235.1,25.1"/>
		<path class="st2" d="M231.6,22.5c0.2,0,0.2,0,0.3-0.1c0.1,0.1,0.1,0.3,0.3,0.3c0,0,0-0.1,0-0.1c0-0.1-0.2-0.1-0.2-0.2
			c0,0,0.1-0.2,0.1-0.2c0.1-0.3-0.1-0.6-0.2-0.7c-0.3-0.3-0.9-0.4-1.1-0.8C230.8,21.5,230.9,22.4,231.6,22.5"/>
		<path class="st2" d="M231.9,19.3c0,0.1,0.1,0.3,0.3,0.2C232.2,19.5,232,19.4,231.9,19.3c0.1,0,0.2-0.1,0.2-0.1c0-0.1,0-0.2,0-0.3
			c-0.1-0.5-0.7-0.5-0.9-1c0,0,0,0-0.1,0C231.1,18.6,231.2,19.5,231.9,19.3"/>
		<path class="st2" d="M230.1,17.4c-0.2-0.1-0.6-0.3-1-0.3c-0.4,0-0.8,0.3-0.7,0.7c0.2-0.1,0.4-0.1,0.5-0.3c0,0,0,0.1,0,0.1
			c0.2,0,0.3-0.1,0.5-0.1c-0.2,0.1-0.5,0.1-0.7,0.3c0,0,0.1,0,0.1,0.1c-0.2-0.2-0.5-0.1-0.7,0c0,0.1,0,0.1,0,0.1
			c0.1,0,0.1-0.1,0.2-0.1c0.1,0.2,0.4,0.3,0.6,0.3C229.5,18.2,229.7,17.5,230.1,17.4"/>
		<path class="st2" d="M234.8,15.5c0,0.1,0.1,0.1,0.2,0.1c0.1-0.1,0.1-0.2,0.2-0.3c0.1,0.1,0.3,0.2,0.6,0.2c0.9-0.1,0.8-1.1,1.2-1.5
			c0.1-0.1,0.2-0.1,0.2-0.2c-1-0.1-2.1,0.1-2.1,1c0,0.2,0,0.3,0.1,0.3c0.3-0.1,0.5-0.3,0.6-0.6c0,0.1,0,0.1,0,0.2
			c0.2-0.1,0.4-0.3,0.7-0.4c-0.3,0.3-0.6,0.4-0.9,0.7c0.1,0,0.2,0,0.2,0.1c-0.2,0-0.3,0-0.5-0.1C235.1,15.2,234.9,15.3,234.8,15.5"
			/>
		<path class="st2" d="M225.6,12.5c-0.1,0.2-0.2,0.8,0.2,0.8c0.2-0.2,0.3-0.4,0.4-0.8c0,0.1,0,0.2,0.1,0.2c0.2-0.2,0.3-0.5,0.5-0.6
			c-0.2,0.3-0.5,0.6-0.6,0.9c0,0,0.2,0,0.3,0c-0.1,0.1-0.3,0.1-0.4,0.1c-0.1,0.2-0.4,0.3-0.4,0.6c0,0,0.1,0,0.1,0
			c0.1-0.1,0.1-0.3,0.1-0.3c0.1,0.1,0.3,0.1,0.4,0.1c0.4-0.1,0.7-0.4,0.8-0.9c0-0.4,0-0.9,0.3-1.2h0C226.7,11.7,225.9,12,225.6,12.5
			"/>
		<path class="st2" d="M232.2,27c0.1,0,0.1-0.1,0.1,0c0,0.1,0,0.3,0.1,0.3c0,0,0.1,0,0.1,0c0-0.1-0.1-0.1-0.1-0.2
			c0.2-0.1,0.3-0.3,0.3-0.6c0-0.4-0.4-0.5-0.6-0.9c0-0.1,0-0.2-0.1-0.2C231.8,25.7,231.4,26.8,232.2,27"/>
		<path class="st2" d="M217.9,21.4c0.4-0.4,0.4-1.3,0-1.7c-0.4-0.4-1.3-0.3-1.7-0.7c-0.1-0.1-0.1-0.2-0.2-0.3
			c-0.1,1-0.1,2.3,0.5,2.8c0.3,0.2,1,0.2,1.1-0.1c-0.2-0.3-0.5-0.6-0.9-0.7c0.1,0,0.2,0,0.4,0c-0.1-0.3-0.4-0.5-0.5-0.9
			c0.4,0.3,0.6,0.8,0.9,1.2c0-0.2,0.1-0.3,0.2-0.4c0.1,0.3-0.1,0.5-0.1,0.7c0,0.1,0.2,0.3,0.2,0.4c0.1,0.1,0.2,0.3,0.3,0.3
			c0.1-0.1,0.1-0.1,0.2-0.2C218.2,21.6,218,21.5,217.9,21.4"/>
		<path class="st2" d="M216.9,24.1L216.9,24.1c-0.3,0.4-1.1,0.9-1,1.7c0,0.3,0.2,0.6,0.5,0.5c0.1-0.3,0.1-0.6,0-0.8
			c0.1,0,0.1,0.1,0.2,0.1c0-0.3,0-0.6,0.2-0.7c0,0.4-0.1,0.7-0.1,1.1c0.1,0,0.1-0.1,0.3-0.1c-0.1,0.1-0.2,0.2-0.3,0.3
			c-0.1,0.2-0.1,0.4,0,0.6c0.1,0,0.1,0,0.2,0c0-0.1-0.1-0.2-0.1-0.4c0.5-0.1,0.8-0.5,0.7-1C217.2,25,216.8,24.6,216.9,24.1"/>
		<path class="st2" d="M218.8,18.7c0.3-0.2,0.2-0.8,0-1.1c-0.3-0.5-1-0.4-1.4-0.8c-0.1-0.1-0.1-0.2-0.2-0.2c0,0.3,0,0.6,0,0.9
			c0.1,0.7,0.4,1.4,1,1.4c0.2,0,0.3,0,0.4-0.1c-0.1-0.3-0.4-0.5-0.7-0.7c0.1,0,0.1,0,0.2,0c-0.1-0.3-0.4-0.5-0.4-0.7
			c0.3,0.3,0.4,0.7,0.7,0.9c0-0.1,0-0.2,0.1-0.3c0,0.2-0.1,0.3,0,0.5c0,0.1,0.2,0.4,0.3,0.5c0,0,0.1,0.1,0.2,0.1
			c0,0,0.1-0.1,0.1-0.1C219,18.8,218.9,18.8,218.8,18.7"/>
		<path class="st2" d="M223.5,22.4c-0.1,0.1-0.2,0.1-0.2,0.2C223.4,22.7,223.4,22.5,223.5,22.4c0.1,0.1,0.1,0.2,0.2,0.2
			c0.6,0,0.5-0.7,0.8-1c-0.5,0-0.8,0.1-1.1,0.4C223.4,22.1,223.3,22.3,223.5,22.4"/>
		<path class="st2" d="M227.9,24.2c-0.1,0.1-0.4,0.5-0.2,0.7c0.2-0.1,0.4-0.3,0.5-0.4c0,0.1-0.1,0.1,0,0.1c0.1-0.1,0.3-0.2,0.5-0.2
			c-0.2,0.1-0.5,0.2-0.7,0.4c0,0,0.2,0.1,0.1,0.1c-0.3-0.1-0.6-0.1-0.8,0.2c0,0,0,0.1,0.1,0.1c0.1-0.1,0.1-0.1,0.2-0.2
			c0.1,0.1,0.2,0.2,0.3,0.2c0.8,0.1,0.8-0.9,1.4-1.1C229,24.1,228.3,24,227.9,24.2"/>
		<path class="st2" d="M223.3,16.6c0,0,0.1-0.1,0.1-0.1c0.1-0.1,0.1-0.3,0.1-0.4c0-1.1-1.1-1.1-1.5-1.7c0,0,0-0.1-0.1-0.1
			c0,0,0,0-0.1,0c-0.1,0.7-0.2,1.6,0.2,2.1c0.2,0.2,0.7,0.5,0.9,0.2c-0.1-0.3-0.4-0.5-0.6-0.7c0.1,0,0.1,0,0.2,0
			c-0.1-0.3-0.3-0.4-0.3-0.7c0.2,0.3,0.4,0.7,0.6,1c0-0.1,0.1-0.2,0.1-0.3c0,0.2-0.1,0.4-0.1,0.5c0,0.1,0.1,0.2,0.1,0.3
			c0.1,0.1,0.1,0.2,0.2,0.3c0.1,0,0.1-0.1,0.1-0.2C223.4,16.7,223.3,16.7,223.3,16.6"/>
		<path class="st2" d="M223.4,17.8c0-0.2-0.2,0-0.4,0c0-0.1,0-0.1-0.1-0.1c-0.2-0.2-0.4-0.3-0.6-0.3c-0.6,0-0.8,0.7-1.4,0.7
			c0.2,0.2,0.7,0.4,1.2,0.5c0.5,0,1-0.3,0.8-0.7C223.1,17.9,223.3,17.9,223.4,17.8"/>
		<path class="st2" d="M225.2,24.7c0.2,0,0.4,0,0.5-0.2c-0.1-0.1-0.3-0.2-0.5-0.2c0-0.1,0.1,0,0.1-0.1c-0.1-0.1-0.4-0.1-0.4-0.3
			c0.2,0.1,0.4,0.2,0.7,0.3c0-0.1-0.1-0.1,0-0.2c0.1,0.3,0.2,0.4,0.5,0.5c0,0,0-0.1,0-0.1c-0.1,0-0.2,0-0.2,0
			c0.1-0.3-0.2-0.6-0.5-0.7c-0.3-0.1-0.8,0.1-1-0.1C224.4,24,224.7,24.6,225.2,24.7"/>
		<path class="st2" d="M212.4,46.8c0,0.3,0.2,0.8,0,1c0.4-0.2,1-0.5,1-1c0-0.2,0-0.5-0.3-0.5c-0.1,0.2-0.1,0.3-0.1,0.5
			c-0.1,0,0-0.1-0.1-0.1c-0.1,0.1-0.1,0.4-0.2,0.4c0.1-0.2,0.2-0.4,0.3-0.7c-0.1,0-0.1,0.1-0.2,0c0.3-0.1,0.4-0.2,0.4-0.6
			c-0.1,0-0.1,0-0.1,0c-0.1,0,0,0.2-0.1,0.3c-0.1,0-0.1,0-0.1,0C212.6,46.3,212.5,46.5,212.4,46.8"/>
		<path class="st2" d="M215.6,47.4c0.3,0,0.5-0.3,0.6-0.6c0.1,0,0.1,0,0.2,0c0,0,0-0.1,0-0.1c-0.1-0.1-0.3,0.1-0.4,0.1
			c-0.1,0.1-0.1,0.2-0.2,0.3c0,0,0-0.1,0.1-0.2c-0.3,0-0.5,0.2-0.7,0.1c0.1-0.1,0.3-0.1,0.5-0.2c0-0.1-0.1,0-0.1-0.1
			c0.2,0.1,0.4,0,0.5,0c0-0.3-0.3-0.4-0.5-0.4c-0.5,0-0.8,0.6-1,0.9C214.9,47.1,215.3,47.4,215.6,47.4"/>
		<path class="st2" d="M228,44.8c0,0.1-0.2,0.2,0,0.2c0.1,0,0.1-0.2,0.1-0.3c0,0,0.1,0.1,0.1,0.1c0.7-0.2,0.4-1.2,0.1-1.6
			c0,0.4-0.6,0.6-0.6,1C227.7,44.5,227.8,44.8,228,44.8"/>
		<path class="st2" d="M217,50.2c-0.1-0.6,0.5-0.8,0.6-1.4c0.1-0.4-0.1-0.8-0.5-0.9c0-0.1,0.1-0.2,0.1-0.3c0-0.1-0.1-0.1-0.1-0.1
			c-0.1,0.1-0.1,0.4-0.1,0.6c0.1,0.1,0.2,0.2,0.3,0.4c-0.1,0-0.1-0.1-0.2-0.1c-0.1,0.3,0,0.7-0.1,1c0-0.2,0-0.5,0-0.7
			c-0.1-0.1-0.1,0.1-0.2,0.1c0.1-0.2,0.2-0.4,0.2-0.7c-0.1-0.1-0.3,0-0.3,0.1C215.9,48.5,216.6,49.7,217,50.2"/>
		<path class="st2" d="M225.4,42.5c0.1,0,0.1,0,0.2,0c0,0.1,0,0.2,0.1,0.2c0.1-0.1,0-0.2,0-0.3c0.1,0,0.1,0,0.1-0.1
			c0.2-0.6-0.3-0.9-0.6-1.1C225.2,41.7,224.9,42.3,225.4,42.5"/>
		<path class="st2" d="M219.7,46.2c0.2,0.3-0.1,0.9,0.4,0.9c0.1,0,0.1,0,0.1,0c0,0.1,0,0.2,0.1,0.1c0-0.1-0.1-0.1-0.1-0.2
			C220.7,46.8,220,46.2,219.7,46.2"/>
		<path class="st2" d="M210.1,42.7c-0.1-0.1-0.1,0.1-0.2,0.2c-0.1,0-0.1-0.1-0.2-0.1c-0.6,0-0.5,0.8-0.8,1.2
			c0.5-0.1,1.1-0.2,1.1-0.9c0-0.1-0.1-0.1-0.1-0.1C210,42.8,210.1,42.8,210.1,42.7"/>
		<path class="st2" d="M220.8,52c-0.1-0.4,0.4-0.7,0.4-1.1c0-0.2-0.1-0.4-0.3-0.6c0,0-0.1,0-0.2-0.1c0-0.1,0-0.2,0.1-0.2
			c-0.2-0.1-0.2,0.2-0.1,0.3c-0.1,0-0.1,0-0.1,0C219.9,50.8,220.5,51.7,220.8,52"/>
		<path class="st2" d="M229.8,49.6c-0.2-0.1-0.4,0.1-0.5,0.2c0,0,0-0.1,0-0.1c-0.1,0-0.3,0.1-0.5,0c0.2-0.1,0.4-0.1,0.6-0.2
			c0.1,0-0.1-0.1-0.1-0.1c0.2,0.1,0.5,0.2,0.6,0c0,0,0,0,0-0.1c-0.1,0-0.1,0.1-0.2,0.1c-0.1-0.2-0.4-0.3-0.7-0.2
			c-0.2,0.2-0.4,0.4-0.7,0.5C228.7,50.1,229.7,50.3,229.8,49.6"/>
		<path class="st2" d="M225.5,50.7c0.4,0,0.8-0.1,0.8-0.6c0,0-0.1-0.1-0.1-0.1c0-0.1,0.1-0.1,0.1-0.2c0,0,0,0-0.1,0
			c0,0,0,0.1-0.1,0.1C225.7,49.8,225.7,50.4,225.5,50.7"/>
		<path class="st2" d="M227.1,47.3c0.1,0,0.1,0,0.2-0.1c0.1,0,0.1,0.2,0.2,0.1c0.1-0.1-0.1-0.1-0.2-0.2c0.2-0.5-0.5-0.8-1-0.7
			C226.5,46.6,226.5,47.4,227.1,47.3"/>
		<path class="st2" d="M230.6,50.5c0-0.1,0-0.1,0-0.2h-0.1L230.6,50.5c-0.6,0-0.3,0.7-0.3,1C230.5,51.4,231,50.8,230.6,50.5"/>
		<path class="st2" d="M226.9,51.1c0.1,0.5,0.8,0.5,1.1,1c0.1-0.4,0.1-1.1-0.1-1.4c-0.1-0.1-0.5-0.3-0.6-0.1
			c0.1,0.2,0.2,0.4,0.4,0.5c0,0-0.1,0-0.1,0c0.1,0.2,0.2,0.3,0.2,0.5c-0.2-0.2-0.3-0.4-0.4-0.7c-0.1,0-0.1,0.1-0.1,0.1
			c0.1-0.3,0.1-0.6-0.2-0.7c0,0-0.1,0-0.1,0.1c0,0.1,0.2,0.1,0.2,0.2c0,0-0.1,0.1-0.1,0.1C226.9,50.7,226.8,50.9,226.9,51.1"/>
		<path class="st2" d="M221.6,48.7c-0.1,0-0.1,0-0.1,0c0-0.1,0-0.2,0-0.3c-0.2,0-0.1,0.1-0.1,0.2c-0.1,0-0.1,0-0.2,0.1
			c-0.5,0.4,0.1,0.9,0.1,1.4C221.6,49.8,222.1,49.1,221.6,48.7"/>
		<path class="st2" d="M224.1,50c0-0.1,0-0.2-0.1-0.2c0,0,0,0,0,0C224,49.9,224,49.9,224.1,50c-0.5,0.3,0,0.7,0.2,1
			C224.6,50.7,224.6,49.9,224.1,50"/>
		<path class="st2" d="M225.5,49.2c0.1,0,0.1-0.1,0.2-0.1c0,0.1,0,0.2,0.1,0.2c0.1-0.1-0.1-0.2-0.1-0.3c0.3-0.5-0.5-0.8-1-0.7
			C224.9,48.5,224.9,49.3,225.5,49.2"/>
		<path class="st2" d="M224,45.3c0.2,0.1,0.5,0.4,0.8,0.5c0.3,0.1,0.5-0.1,0.6-0.3c0.1,0,0.2,0.1,0.3,0c0-0.1-0.2-0.1-0.3-0.1
			c0,0,0-0.1,0-0.2c-0.3-0.6-1.2-0.2-1.5,0.1C223.9,45.3,224,45.3,224,45.3"/>
		<path class="st2" d="M218.4,32.6c-0.1,0.3,0.1,0.8-0.2,1.2c0.4-0.2,1.1-0.4,1.2-0.9c0.1-0.2,0.1-0.6-0.2-0.6
			c-0.1,0.1-0.2,0.4-0.2,0.6c0-0.1,0-0.1-0.1-0.1c-0.1,0.2-0.2,0.3-0.3,0.4c0.1-0.3,0.3-0.4,0.4-0.7c-0.1,0-0.1,0.1-0.2,0
			c0.3-0.1,0.5-0.2,0.6-0.5c-0.1,0-0.1,0-0.1,0c-0.1,0.1,0,0.2-0.1,0.3C218.8,32,218.5,32.3,218.4,32.6"/>
		<path class="st2" d="M220.9,45.5c0-0.1,0.1,0,0.2-0.1c-0.2-0.1-0.5-0.2-0.8-0.4c0.2,0,0.4,0.2,0.6,0.2c0-0.1-0.1-0.1,0-0.1
			c0.1,0.2,0.3,0.3,0.5,0.4c0.2-0.4-0.3-0.8-0.7-0.8c-0.4,0-0.8,0-1.1,0.1c0.5,0.1,0.6,1,1.2,1c0.2,0,0.5-0.1,0.6-0.2
			c0.1,0.1,0.1,0.2,0.2,0.2c0,0,0.1,0,0.1-0.1C221.6,45.4,221.2,45.3,220.9,45.5"/>
		<path class="st2" d="M214.8,33.6c0,0.2-0.1,0.5-0.1,0.8c0,0.6,0.5,1.3,0.9,1c0.1,0.1,0.1,0.3,0.3,0.4c0,0,0-0.1,0.1-0.1
			c0-0.1-0.2-0.1-0.2-0.2c0.3-0.3,0.2-0.9-0.1-1.1C215.5,34,215,33.9,214.8,33.6"/>
		<path class="st2" d="M217.8,33.8c-0.3,0.3-1,0.5-1.1,1c0,0.2,0,0.5,0.1,0.6c0,0.1,0.1,0,0.2,0c-0.1,0.1-0.2,0.3-0.1,0.4
			c0,0,0.1,0,0.1,0c0.1,0,0-0.3,0.1-0.3c0.4,0.1,0.7-0.2,0.7-0.6C217.9,34.6,217.6,34,217.8,33.8C217.8,33.8,217.8,33.8,217.8,33.8"
			/>
		<path class="st2" d="M212.7,34.5c0.2-0.1,0.3-0.3,0.4-0.5c0,0,0,0.1,0.1,0.1c0.1-0.1,0.2-0.3,0.4-0.4c-0.2,0.3-0.4,0.4-0.6,0.7
			c0.1,0,0.2,0,0.2,0c-0.4,0-0.6,0.2-0.7,0.5c0,0,0.1,0,0.1,0c0-0.1,0.1-0.2,0.1-0.3c0.2,0.2,0.6,0,0.8-0.1c0.4-0.3,0.2-0.8,0.5-1.2
			c0-0.1,0.2-0.1,0.1-0.2c-0.2,0.1-0.5,0.1-0.8,0.2c-0.4,0.1-0.7,0.4-0.7,0.8C212.5,34.3,212.6,34.5,212.7,34.5"/>
		<path class="st2" d="M209.5,42.4c0-0.1-0.1-0.1,0-0.1c0.1,0.1,0.2,0.2,0.4,0.1v-0.1c-0.1,0-0.2,0-0.3,0c0-0.5-0.2-0.7-0.6-0.7
			c-0.3,0-0.8,0.2-1.1,0c0.2,0.4,0.5,1,1.1,1C209.2,42.6,209.4,42.6,209.5,42.4"/>
		<path class="st2" d="M210,32.3c0.2,0.2,0.7,0.5,0.9,0.3c-0.1-0.3-0.4-0.5-0.6-0.7c0.1,0,0.1,0,0.2,0c-0.1-0.3-0.3-0.4-0.4-0.7
			c0.3,0.3,0.4,0.7,0.7,0.9c0-0.1,0-0.3,0.1-0.2c-0.1,0.5,0.1,0.8,0.4,1c0-0.1,0.1-0.1,0.1-0.2c-0.1-0.1-0.2-0.1-0.3-0.2
			c0.1-0.1,0.2-0.5,0.2-0.7c-0.2-0.9-1.3-0.8-1.6-1.5c0,0,0,0,0,0C209.6,31.1,209.6,31.9,210,32.3"/>
		<path class="st2" d="M217.8,32.2c0.4,0,0.7-0.1,0.7-0.5c-0.2-0.1-0.6-0.1-0.8,0c0-0.1,0.1-0.1,0.1-0.1c-0.2-0.1-0.5-0.1-0.7-0.2
			c0.3,0,0.7,0.2,1,0.2c0-0.1-0.1-0.2-0.1-0.2c0.1,0.1,0.2,0.2,0.3,0.4c0.2,0,0.4,0.2,0.6,0.1c0,0,0-0.1,0-0.2c-0.1,0-0.2,0-0.3,0
			c0-0.4-0.3-0.7-0.7-0.8c-0.6-0.1-1,0.4-1.6,0.3C216.7,31.5,217.2,32.1,217.8,32.2"/>
		<path class="st2" d="M218.7,42.4c-0.1,0.1,0,0.3,0,0.5c0,0,0,0-0.1,0c0,0.1,0,0.3,0,0.4c0-0.2,0-0.4,0-0.6c-0.1,0-0.1,0.1-0.1,0
			c0.1-0.1,0.2-0.3,0.2-0.5C218.5,42.1,218.6,42.2,218.7,42.4c-0.2,0-0.2,0-0.3,0c-0.5,0.4,0.1,0.9,0.1,1.4
			C218.9,43.5,219.4,42.6,218.7,42.4"/>
		<path class="st2" d="M222.3,40.7c0-0.1,0-0.1,0-0.2c0.1,0,0.3,0.1,0.3,0v-0.1c-0.1-0.1-0.1,0-0.2,0c0-0.3-0.2-0.4-0.5-0.5
			c-0.3,0-0.6,0.3-1,0.2C221.2,40.6,221.8,41.1,222.3,40.7"/>
		<path class="st2" d="M221.7,43.1c0.1-0.7-0.5,0-0.5,0.1v-0.1c-0.2,0.1-0.3,0.3-0.5,0.3c0.2-0.2,0.5-0.3,0.6-0.6c0,0-0.1,0-0.2,0
			c0.4,0,0.6-0.1,0.7-0.4c-0.1,0-0.1-0.1-0.1-0.1c-0.1,0.1-0.1,0.2-0.2,0.2c-0.1-0.1-0.3-0.1-0.5-0.1c-0.7,0.1-0.6,1-1,1.4
			C220.7,43.9,221.6,43.7,221.7,43.1"/>
		<path class="st2" d="M214.4,38.7c0.4,0,1-0.4,0.7-0.8c0-0.1,0.1-0.1,0.1-0.2c-0.1,0-0.1,0.1-0.1,0.1
			C214.5,37.7,214.6,38.4,214.4,38.7"/>
		<path class="st2" d="M224.8,37.1c0.1-0.2,0.2-0.7-0.2-0.7c0,0,0-0.1-0.1-0.1c0,0,0,0.1,0,0.1C224.3,36.7,224.7,37,224.8,37.1"/>
		<path class="st2" d="M224.2,36.6c0-0.1-0.1-0.1-0.1-0.1c0-0.1,0.1-0.1,0.1-0.2c0,0,0,0-0.1,0c0,0,0,0.1-0.1,0.1
			c-0.5-0.2-0.5,0.5-0.7,0.7C223.8,37.1,224.2,37,224.2,36.6"/>
		<path class="st2" d="M214.6,43.9c0,0.1,0.1,0.4,0.2,0.3c0.1-0.1-0.1-0.2-0.1-0.3c0.1-0.1,0.1-0.1,0.2-0.2c0.4-0.8-0.7-1-0.8-1.5
			c-0.1,0.3-0.2,0.7-0.2,1.1C214,43.8,214.4,44.1,214.6,43.9"/>
		<path class="st2" d="M222.2,37.2c0.4-0.2,1.1-0.4,1.1-1c0-0.3-0.1-0.6-0.4-0.6c-0.1,0.2-0.2,0.4-0.1,0.6c-0.1,0-0.1-0.1-0.1-0.1
			c-0.1,0.1-0.1,0.4-0.2,0.5c0.1-0.3,0.2-0.5,0.2-0.7c-0.1,0-0.1,0-0.2,0c0.3-0.1,0.5-0.2,0.5-0.6c0,0-0.1,0-0.2,0
			c0,0.1,0,0.2,0,0.2c-0.5,0-0.8,0.3-0.8,0.6C222.1,36.4,222.4,36.8,222.2,37.2"/>
		<path class="st2" d="M238,19.4c-0.2,0-0.3,0-0.4,0.1c0,0-0.1-0.1-0.1-0.1c0,0.1,0.1,0.1,0.2,0.1c-0.1,0.5,0.6,0.4,0.9,0.2
			C238.3,19.7,238.2,19.4,238,19.4"/>
		<path class="st2" d="M249.8,37.8c0.6,0,0.9-0.6,1.4-0.6c0-0.1-0.2-0.2-0.4-0.3c-0.2-0.1-0.4-0.2-0.5-0.3c-0.4-0.1-0.9,0.1-0.9,0.5
			c0.3,0.1,0.5,0,0.6-0.1c0,0.1-0.1,0.1-0.1,0.2c0.2,0,0.4-0.1,0.5,0c-0.3,0-0.6,0-0.8,0.1c0,0.1,0.1,0.1,0.1,0.2
			c-0.1-0.2-0.5-0.3-0.8-0.2c0,0.1,0,0.1,0.1,0.2c0.1,0,0.2-0.1,0.3-0.1C249.3,37.6,249.6,37.8,249.8,37.8"/>
		<path class="st2" d="M246.2,43.7C246.2,43.7,246.2,43.7,246.2,43.7c-0.3,0.2-0.8,0.4-0.8,0.8c0,0.2,0,0.4,0.2,0.5
			c0,0.1-0.2,0.3,0,0.3c0.1,0,0-0.2,0-0.2h0.2c0.2-0.1,0.4-0.2,0.4-0.5C246.2,44.3,246,44,246.2,43.7"/>
		<path class="st2" d="M249.1,40.2c-0.1,0.1-0.2,0.1-0.1,0.3c0,0,0,0,0.1,0C249.1,40.4,249.1,40.3,249.1,40.2c0.4,0.2,0.6,0,0.7-0.3
			c0.1-0.3,0-0.6,0.2-0.8c-0.4,0.1-1.2,0.4-1,1C249,40.1,249,40.1,249.1,40.2"/>
		<path class="st2" d="M246,42.2c0,0.1,0.1,0.1,0.1,0.1c-0.1,0.1-0.2,0.1-0.2,0.3c0,0,0,0,0,0c0.1,0,0.1-0.2,0.2-0.2
			c0,0,0.1,0.1,0.2,0.1c0.6,0,0.5-0.8,0.8-1.1C246.6,41.5,246,41.6,246,42.2"/>
		<path class="st2" d="M247.8,45.6c0-0.7-0.7-0.6-1-0.9c0,0,0-0.1-0.1-0.1c0,0.7,0.2,1.7,0.9,1.4c0.1,0-0.1-0.1,0-0.1
			c0.1,0.1,0.1,0.3,0.3,0.3c0,0,0-0.1,0.1-0.1c-0.1-0.1-0.2-0.1-0.2-0.2C247.8,45.8,247.8,45.7,247.8,45.6"/>
		<path class="st2" d="M244.7,48.7c0-0.3-0.1-0.6,0-0.8c-0.4,0.2-1,0.6-0.8,1.2c0,0,0.1,0,0.1,0.1c0,0.1-0.2,0.3,0,0.3
			c0,0,0-0.2,0-0.2C244.4,49.2,244.6,49,244.7,48.7"/>
		<path class="st2" d="M241.9,46.7c-0.3,0.2-0.7,0-1.1,0.1c-0.4,0-0.6,0.4-0.6,0.8c-0.1,0-0.2,0-0.3,0c0,0,0,0.1,0,0.2
			c0.2,0,0.3-0.1,0.4-0.2c0,0.2,0.2,0.3,0.4,0.3C241.3,47.9,241.7,47.1,241.9,46.7L241.9,46.7z"/>
		<path class="st2" d="M244.4,47c0.1,0,0.2,0.1,0.3,0C244.7,46.9,244.6,47,244.4,47l0.1-0.2c-0.1-0.5-0.7-0.2-1.2-0.3
			C243.4,46.8,244.1,47.6,244.4,47"/>
		<path class="st2" d="M237.4,43.6c0.2,0,0.5,0,0.5-0.3c-0.2-0.1-0.4-0.2-0.7-0.2c0-0.1,0.2,0,0.1-0.1c-0.2-0.1-0.4-0.2-0.5-0.3
			c0.3,0.1,0.5,0.3,0.9,0.4c0,0-0.1-0.2,0-0.2c0.1,0.3,0.3,0.6,0.7,0.6c0,0,0-0.1,0-0.2c-0.1-0.1-0.3,0-0.3-0.1
			c0.1-0.5-0.3-0.9-0.7-0.9c-0.4,0-0.9,0.2-1.2-0.1C236.5,42.7,236.8,43.5,237.4,43.6"/>
		<path class="st2" d="M243.9,40.3c-0.1-0.3,0.4-0.6,0.3-0.9c0-0.2-0.2-0.3-0.4-0.4c0-0.1,0.1-0.1,0.1-0.2c-0.2-0.1-0.1,0.2-0.1,0.3
			c-0.2,0-0.3,0.2-0.4,0.3c-0.1,0.3,0.1,0.5,0.3,0.7C243.8,40.2,243.9,40.4,243.9,40.3"/>
		<path class="st2" d="M240.2,37.1c0-0.1,0-0.2,0.1-0.2c0.3,0.1,0.6-0.1,0.8-0.3c0.1-0.2,0.1-0.5,0.1-0.8c0-0.1,0.1-0.2,0.2-0.3h0
			c-0.4,0.2-1.1,0.3-1.2,0.8c0,0.2,0,0.5,0.2,0.5c-0.1,0.1-0.2,0.2-0.2,0.3C240.1,37,240.1,37.1,240.2,37.1"/>
		<path class="st2" d="M237.3,45.1c0.6-0.1,1.3-0.2,1.4-0.8c0-0.2,0-0.3-0.1-0.3c0.1-0.1,0.2-0.2,0.2-0.3c-0.1-0.2-0.2,0.1-0.2,0.2
			c-0.1,0-0.1-0.1-0.2-0.1C237.5,43.7,237.6,44.7,237.3,45.1"/>
		<path class="st2" d="M238.1,38.4c-0.1,0-0.1,0-0.1-0.1c0.1-0.1,0.2-0.2,0.1-0.4c-0.2-0.1-0.1,0.2-0.2,0.2
			c-0.5-0.1-0.8,0.3-0.8,0.8c0,0.3,0,0.6-0.1,0.8C237.5,39.6,238.4,39.2,238.1,38.4"/>
		<path class="st2" d="M243.3,43.4c0,0,0.1,0.1,0.1,0c0-0.1,0-0.2,0.1-0.2c0.1,0.1,0.2,0.1,0.3,0.1c0.7-0.1,0.4-1.1,0.7-1.4
			c-0.4,0.1-1.2,0.3-1.3,0.8c0,0.2,0,0.4,0.2,0.4c0.1-0.1,0.2-0.3,0.3-0.5c0,0,0,0.1,0,0.1c0.1-0.1,0.2-0.3,0.3-0.3
			c-0.1,0.2-0.3,0.4-0.4,0.6c0.1,0,0.2,0,0.2,0C243.5,42.9,243.4,43.1,243.3,43.4"/>
		<path class="st2" d="M245.1,39c0.2,0,0.3-0.1,0.5,0c-0.1,0-0.2,0.1-0.3,0.1c0.2,0.3,0.7,0.5,0.9,0.7c-0.3-0.1-0.4-0.3-0.7-0.4
			c0,0,0,0.2,0,0.2c-0.1-0.2-0.4-0.6-0.6-0.6c-0.1,0-0.2,0.2-0.2,0.3c0,0.9,1.3,1.1,2.2,1.1c0-0.1-0.1-0.1-0.2-0.2
			c-0.3-0.3-0.3-0.7-0.5-1.1c-0.3-0.4-1-0.6-1.4-0.3c-0.1-0.1-0.1-0.2-0.2-0.3c-0.1,0-0.1,0.1-0.2,0.1C244.7,38.7,244.9,39,245.1,39
			"/>
		<path class="st2" d="M241.6,40.5c-0.2,0.4-0.4,1.2,0.1,1.4c0.1,0,0.1,0,0.2,0c0,0.1,0,0.3,0.1,0.3c0.1-0.1-0.1-0.1-0.1-0.2
			c0.2-0.1,0.3-0.5,0.2-0.7C242,40.9,241.7,40.8,241.6,40.5"/>
		<path class="st2" d="M241.8,42.4c-0.1-0.6-0.6-0.2-1-0.2C240.9,42.4,241.5,42.9,241.8,42.4c0,0.1,0.2,0.2,0.2,0
			C241.9,42.3,241.8,42.4,241.8,42.4"/>
		<path class="st2" d="M255.4,34.3c0.2-0.1,0.3-0.2,0.4-0.4c0-0.1,0-0.3,0-0.4c0.1,0,0,0.1,0.1,0.2c0.3-0.2,0.5-0.4,0.8-0.6
			c-0.1,0.2-0.4,0.3-0.4,0.5c0.1,0,0.1-0.1,0.2,0c-0.3,0.1-0.5,0.2-0.6,0.4c0.1,0.1,0.2,0.1,0.3,0.1c0.8,0,1.1-0.9,1.2-1.6
			c-0.4,0.5-1.6,0.3-1.8,1.1c0,0.2,0,0.3,0.1,0.4c-0.1,0.1-0.2,0.1-0.3,0.1C255.4,34.2,255.4,34.3,255.4,34.3"/>
		<path class="st2" d="M252.4,41.2c0-0.1,0-0.2-0.1-0.2C252.2,41,252.3,41.1,252.4,41.2c-0.1,0-0.2,0-0.2,0.1
			c-0.3,0.6,0.4,0.7,0.5,1.2C253,42.2,253.1,41.1,252.4,41.2"/>
		<path class="st2" d="M251.3,42.9c-0.1,0-0.2,0.1-0.1,0.1C251.3,43.1,251.3,42.9,251.3,42.9c0.1,0.1,0.1,0.2,0.2,0.2
			c0.4,0.1,0.4-0.4,0.7-0.6C251.8,42.3,251.1,42.4,251.3,42.9"/>
		<path class="st2" d="M254.6,32.3c-0.1-0.5,0.3-0.8,0.3-1.2c0-0.3-0.3-0.5-0.7-0.5c0-0.1,0-0.2,0-0.2c-0.3-0.1-0.2,0.3-0.1,0.4
			c0.1,0.1,0.3,0.1,0.3,0.2c-0.1,0-0.1-0.1-0.2-0.1c0,0.3,0.1,0.5,0.1,0.7c-0.1-0.1-0.1-0.3-0.1-0.5c-0.1,0-0.1,0.1-0.1,0.1
			c0.1-0.2,0-0.4,0-0.6c-0.3,0-0.4,0.2-0.4,0.5C253.6,31.7,254.3,32,254.6,32.3"/>
		<path class="st2" d="M254.2,34.4c0.4-0.5,0.1-1.5-0.1-2c0,0,0,0,0,0.1c-0.2,0.6-1.2,0.8-1.4,1.4c-0.1,0.3,0.1,0.8,0.4,0.9
			c-0.1,0.1-0.2,0.2-0.3,0.3c0.1,0,0.1,0.1,0.2,0.1c0.1-0.1,0.3-0.4,0.3-0.6c0-0.2-0.2-0.3-0.2-0.4c0.1,0,0.1,0.2,0.2,0.2
			c0.2-0.3,0.3-0.7,0.5-1c0,0.3-0.2,0.5-0.2,0.8c0.1,0,0.2-0.1,0.3-0.1c-0.3,0.2-0.5,0.4-0.5,0.8C253.6,34.9,254.1,34.6,254.2,34.4"
			/>
		<path class="st2" d="M252.1,38.9c0.1,0,0.1-0.1,0.2-0.2c0.1,0.2,0.4,0.3,0.7,0.3c0.5-0.1,0.7-0.8,1.2-0.8
			c-0.3-0.1-0.9-0.4-1.3-0.3c-0.3,0.1-0.6,0.3-0.5,0.7c0.3,0,0.4-0.1,0.6-0.3c0,0.1-0.1,0.1,0,0.1c0.2,0,0.3-0.1,0.5-0.1
			c-0.3,0.1-0.6,0.1-0.8,0.3c0,0,0.2,0.1,0.1,0.1c-0.2-0.2-0.6-0.2-0.8,0C252,38.9,252,38.9,252.1,38.9"/>
		<path class="st2" d="M255.1,37.9C255.1,37.9,255.1,37.9,255.1,37.9c-0.3,0.3-0.9,0.6-0.9,1.2c0,0.2,0.1,0.5,0.4,0.5
			c0.1-0.2,0.1-0.4,0-0.6c0,0,0,0.1,0.1,0.1c0-0.2,0.1-0.5,0.2-0.5c0,0.3-0.1,0.5-0.1,0.8c0.1,0,0.1-0.1,0.2,0
			c-0.2,0.1-0.4,0.3-0.4,0.7c0.1,0,0.1,0,0.2,0c0-0.1,0-0.2,0-0.3c0.4,0,0.6-0.3,0.7-0.6C255.4,38.7,254.9,38.3,255.1,37.9"/>
		<path class="st2" d="M255.4,40.1c0,0.2,0,0.3,0.1,0.4c0.2-0.1,0.4-0.4,0.5-0.6v0.2c0.2-0.1,0.3-0.3,0.6-0.4
			c-0.2,0.3-0.5,0.4-0.7,0.7c0.1,0,0.2,0,0.2,0.1c-0.1,0-0.3,0-0.4,0c-0.2,0.1-0.4,0.2-0.5,0.4c0.1,0,0.1,0.1,0.2,0.1
			c0-0.1,0.1-0.2,0.2-0.3c0.3,0.3,0.9,0.1,1.1-0.2c0.2-0.3,0.2-0.8,0.4-1.1c0.1-0.1,0.2-0.2,0.2-0.3
			C256.5,39.2,255.5,39.4,255.4,40.1"/>
		<path class="st2" d="M257.6,39.2c0,0.3,0.4,0.8,0.7,0.7c0-0.4-0.1-0.7-0.2-0.9c0.1,0,0.1,0.1,0.2,0.1c0-0.3-0.1-0.6,0-0.8
			c0.1,0.3,0,0.8,0.1,1.1c0.1,0,0.1-0.1,0.3-0.1c-0.1,0.2-0.2,0.3-0.3,0.4c0,0.2,0,0.5,0.1,0.6c0.1,0,0.1,0,0.2-0.1
			c0-0.2-0.1-0.2-0.1-0.4c0.4-0.1,0.6-0.5,0.6-0.9c0-0.7-0.8-0.9-0.7-1.6c0,0,0,0,0,0C258.1,37.9,257.5,38.4,257.6,39.2"/>
		<path class="st2" d="M249.2,45.9c0.8-0.1,0.8-1.2,1.3-1.6c-0.2,0-0.3,0-0.5,0c-0.5,0-1.1,0.2-1.3,0.5c-0.1,0.2-0.2,0.6,0,0.7
			c0.3-0.1,0.4-0.3,0.6-0.6c0,0.1,0,0.1,0,0.2c0.2-0.1,0.4-0.3,0.6-0.3c-0.2,0.2-0.6,0.4-0.8,0.6c0.1,0,0.2,0,0.2,0.1
			c-0.1,0-0.3,0-0.4,0c-0.2,0.1-0.4,0.2-0.5,0.4c0,0,0.1,0.1,0.1,0.1c0.1-0.1,0.1-0.2,0.2-0.3C248.8,45.9,249,45.9,249.2,45.9"/>
		<path class="st2" d="M249.9,47.3c-0.2-0.1-0.6-0.3-0.9-0.1c0,0-0.1,0.2-0.2,0.2c-0.1,0-0.2-0.5-0.3-0.1c0.1,0.2,0.3,0.2,0.5,0.3
			c0.1,0,0.3-0.1,0.4-0.1c-0.1,0.1-0.2,0.1-0.2,0.1c0.2,0.2,0.6,0.4,0.8,0.6c-0.3,0-0.4-0.2-0.6-0.3c0,0.1,0.1,0.1,0,0.2
			c-0.1-0.2-0.3-0.4-0.6-0.5c-0.1,0.1-0.1,0.1-0.1,0.2c-0.1,0.5,0.4,0.8,1,0.9c0.3,0,0.7,0,1-0.1C250.2,48.4,250.3,47.6,249.9,47.3"
			/>
		<path class="st2" d="M245.3,50.1c-0.2-0.1-0.6,0-0.6,0.2c0.1,0.1,0.4,0.2,0.6,0.2c0,0-0.1,0-0.1,0.1c0.1,0.1,0.4,0.2,0.5,0.3
			c-0.2-0.1-0.4-0.3-0.7-0.3c0,0,0,0.1,0,0.2c-0.1-0.3-0.2-0.5-0.6-0.5v0.1c0.1,0,0.2,0,0.2,0.1c0,0.5,0.3,0.7,0.6,0.8
			c0.3,0,0.8-0.1,1.1,0.1C246,50.9,245.8,50.3,245.3,50.1"/>
		<path class="st2" d="M253.1,46.9c0-0.1,0.1-0.2,0.2-0.3c-0.1,0-0.1-0.1-0.2-0.1c-0.1,0.2-0.1,0.4-0.1,0.7c0.1,0.1,0.2,0.3,0.3,0.4
			c-0.1,0-0.1-0.2-0.2-0.2c-0.1,0.4-0.1,0.8-0.2,1.1c0-0.3,0-0.6,0-0.8c-0.1,0-0.1,0.1-0.2,0.1c0.2-0.2,0.3-0.5,0.3-0.8
			c-0.5-0.2-0.8,0.4-0.8,0.8c0,0.7,0.4,1.4,0.6,1.7c0-0.7,0.8-0.9,0.9-1.6C253.7,47.5,253.5,47,253.1,46.9"/>
		<path class="st2" d="M255.1,35.8c-0.2,0-0.2-0.1-0.4-0.2c0,0,0,0.1-0.1,0.1c0.2,0.1,0.5,0.1,0.7,0.2c0.1-0.1,0.3-0.2,0.4-0.2
			c0,0.1-0.2,0.1-0.2,0.2c0.4,0.1,0.9,0.1,1.2,0.3c-0.3,0-0.6-0.1-0.9-0.1c0,0.1,0.1,0.1,0.1,0.2c-0.2-0.2-0.5-0.3-0.9-0.3
			c-0.1,0.1,0,0.4,0.1,0.5c0.6,0.6,1.9,0.3,2.5-0.1c-0.7,0-1-0.8-1.7-0.9C255.8,35.2,255.3,35.4,255.1,35.8"/>
		<path class="st2" d="M256.3,27.4c0.2,0,0.4,0,0.5,0.1c-0.1,0-0.2,0-0.3,0c0.2,0.3,0.5,0.5,0.7,0.8c-0.2-0.1-0.4-0.3-0.6-0.5
			c0,0.1,0,0.2-0.1,0.3c0-0.3-0.2-0.6-0.4-0.7c-0.3,0.1-0.2,0.7-0.1,0.9c0.3,0.4,1.1,0.5,1.8,0.6c-0.1-0.1-0.2-0.3-0.3-0.5
			c-0.1-0.3-0.1-0.6-0.1-0.8c-0.1-0.5-0.8-0.8-1.3-0.5c-0.1-0.1-0.1-0.4-0.3-0.2C256,27.1,256.2,27.2,256.3,27.4"/>
		<path class="st2" d="M256,29.8c0,0.1-0.2,0.1-0.2,0.2c0.4,0.1,0.8,0,1.2,0.2c-0.3,0-0.5,0-0.8,0c0,0.1,0.1,0.1,0.1,0.2
			c-0.2-0.2-0.5-0.2-0.9-0.3c-0.2,0.4,0.4,0.7,0.7,0.7c0.7,0.1,1.5-0.4,1.9-0.7c-0.7,0-0.9-0.6-1.5-0.7c-0.6-0.1-1.1,0.1-1.2,0.5
			c-0.1,0-0.2-0.1-0.4-0.1c0,0.1-0.1,0.1-0.1,0.2c0.2,0.1,0.5,0.1,0.7,0.1C255.7,29.9,255.8,29.8,256,29.8"/>
		<path class="st2" d="M257,43.9c-0.1-0.1-0.1-0.4-0.3-0.2c0.1,0.1,0.2,0.4,0.4,0.4c0.1,0,0.3,0,0.4,0c-0.1,0-0.2,0-0.2,0.1
			c0.2,0.3,0.5,0.5,0.6,0.7c-0.2-0.1-0.3-0.3-0.5-0.4c-0.1,0.1,0,0.2,0,0.2c0-0.2-0.2-0.6-0.4-0.6c-0.1,0-0.2,0.3-0.2,0.4
			c0.1,0.7,1,0.8,1.7,0.9c-0.4-0.3-0.2-1.1-0.6-1.4C257.7,43.8,257.3,43.7,257,43.9"/>
		<path class="st2" d="M253.7,45.2c-0.1-0.3-0.5-0.5-0.9-0.4c0-0.1,0-0.2-0.1-0.3c-0.1,0-0.1,0-0.1,0c0.1,0.4,0.3,0.5,0.6,0.6
			c-0.1,0-0.1,0-0.2,0c0.1,0.3,0.3,0.5,0.4,0.8c-0.2-0.1-0.2-0.3-0.4-0.5c0,0,0,0.1-0.1,0.1c0-0.3-0.1-0.5-0.3-0.6
			c-0.2,0.1-0.2,0.2-0.2,0.5c0,0.7,0.8,0.9,1.4,1.1C253.6,46.2,253.8,45.6,253.7,45.2"/>
		<path class="st2" d="M256.3,45.9c0-0.1,0.1-0.1,0.1-0.2c-0.2-0.1-0.2,0.3-0.2,0.5c0.1,0.1,0.2,0.1,0.2,0.2c-0.1,0-0.1-0.1-0.2-0.1
			c0,0.3,0,0.5,0,0.8c0-0.2,0-0.3,0-0.5c-0.1,0-0.1,0.1-0.1,0.1c0.1-0.1,0.1-0.4,0.1-0.6c-0.3,0-0.4,0.2-0.5,0.4
			c-0.1,0.5,0.4,1,0.6,1.3c-0.1-0.5,0.4-0.7,0.4-1.1C256.8,46.3,256.6,46,256.3,45.9"/>
		<path class="st2" d="M251.9,30.6c0,0.1,0.1,0.2,0,0.3c-0.1,0,0-0.1-0.1-0.1c-0.2,0.2-0.3,0.5-0.5,0.6c0.1-0.2,0.2-0.3,0.3-0.5
			c0,0-0.1,0.1-0.1,0c0.2-0.1,0.3-0.2,0.4-0.4c-0.1-0.1-0.2-0.1-0.3-0.1c-0.6,0.1-0.7,0.9-0.6,1.6c0.1-0.1,0.1-0.1,0.2-0.2
			c0.3-0.2,0.7-0.2,0.9-0.5c0.2-0.2,0.2-0.6,0-0.8c0.1-0.1,0.2-0.1,0.2-0.2C252.2,30.1,252,30.4,251.9,30.6"/>
		<path class="st2" d="M240.3,16.6c-0.2,0-0.3,0-0.5,0c0.1,0,0.2,0,0.3-0.1c-0.2-0.3-0.6-0.5-0.7-0.8c0.2,0.1,0.4,0.3,0.6,0.5
			c0,0,0-0.2,0-0.2c0,0.4,0.2,0.5,0.5,0.7c0.2-0.1,0.2-0.4,0.2-0.6c-0.2-0.7-1.2-0.8-1.9-0.9c0.5,0.4,0.3,1.3,0.8,1.7
			c0.2,0.2,0.7,0.3,1,0c0.1,0.1,0.1,0.2,0.2,0.3c0.1,0,0.1,0,0.2-0.1C240.7,16.8,240.5,16.7,240.3,16.6"/>
		<path class="st2" d="M239.4,26.3c-0.2-0.5,0.3-0.9,0.2-1.4c0-0.3-0.3-0.6-0.7-0.6c0-0.1,0-0.2,0-0.3c0,0-0.1,0-0.2,0
			c-0.1,0.2,0.1,0.3,0.1,0.5c0.1,0.1,0.3,0.2,0.3,0.3c-0.1,0-0.1-0.1-0.2-0.1c0,0.3,0.2,0.6,0.2,0.9c-0.1-0.2-0.1-0.4-0.2-0.6
			c-0.1,0-0.1,0.1-0.1,0.1c0.1-0.2,0-0.5,0-0.6c-0.3,0-0.4,0.2-0.4,0.5C238.4,25.5,239.1,26,239.4,26.3"/>
		<path class="st2" d="M239.8,14.3c-0.2-0.2-0.4-0.4-0.7-0.5h0.2c-0.1-0.2-0.4-0.4-0.5-0.6c0.3,0.2,0.5,0.6,0.8,0.8
			c0-0.1,0-0.2,0.1-0.2c0,0.5,0.2,0.8,0.5,0.9c0,0,0.1-0.1,0.1-0.2c-0.1-0.1-0.2-0.1-0.3-0.2c0.2-0.2,0.1-0.7,0-0.9
			c-0.4-0.6-1.3-0.4-1.7-0.9c0.1,0.6,0.2,1.4,0.6,1.8C239,14.5,239.6,14.7,239.8,14.3"/>
		<path class="st2" d="M238.6,31.4c0,0.2,0.1,0.3,0.2,0.4c0,0.1-0.2,0.1-0.2,0.2c0,0,0,0.1,0.1,0.1c0.1-0.1,0.1-0.3,0.2-0.4
			c0.1,0.1,0.1,0.1,0.2,0.1c0.6-0.1,0.7-1.2,0.5-1.8C239.5,30.5,238.6,30.7,238.6,31.4"/>
		<path class="st2" d="M238,29.2c0-0.1,0-0.2,0.1-0.3c-0.3-0.1-0.2,0.3-0.2,0.5c0.1,0.1,0.3,0.2,0.3,0.3c-0.1,0-0.2-0.1-0.2-0.1
			c0,0.3,0.1,0.6,0.1,0.9c-0.1-0.2-0.1-0.4-0.1-0.6c0,0-0.1,0.1-0.1,0.1c0.1-0.2,0.1-0.5,0.1-0.7c-0.3,0-0.5,0.3-0.5,0.5
			c-0.1,0.7,0.6,1.1,0.8,1.5c-0.1-0.6,0.4-0.8,0.4-1.3C238.6,29.6,238.3,29.2,238,29.2"/>
		<path class="st2" d="M243.9,16.1c0.1-0.1,0.1-0.2,0.1-0.4c0-0.8-1-0.8-1.4-1.3c0,0.7,0.1,1.6,0.7,1.7c0.2,0,0.3,0,0.3-0.1
			c-0.1-0.2-0.3-0.4-0.5-0.5c0,0,0.1,0,0.1,0c-0.1-0.2-0.2-0.3-0.3-0.5c0.2,0.2,0.3,0.5,0.6,0.7c0-0.1,0-0.2,0.1-0.2
			c-0.1,0.4,0,0.7,0.3,0.8c0,0,0.1-0.1,0.1-0.1C244,16.2,243.9,16.2,243.9,16.1"/>
		<path class="st2" d="M250,17C250,17,250,17,250,17c-0.3,0.3-0.8,0.2-1.2,0.3c-0.5,0.1-0.9,0.6-0.7,1.2c-0.1,0.1-0.2,0.1-0.3,0.1
			c0,0.1,0,0.1,0.1,0.2c0.1,0,0.2-0.1,0.3-0.2c0.1-0.1,0.2-0.2,0.2-0.2c0.1-0.1,0-0.3,0.1-0.4v0.2c0.4-0.1,0.6-0.4,0.9-0.6
			c-0.1,0.2-0.4,0.3-0.5,0.5c0,0,0.1,0,0.2,0.1c-0.3,0-0.6,0.2-0.8,0.4c0.1,0.3,0.5,0.3,0.8,0.2C249.6,18.5,249.8,17.6,250,17"/>
		<path class="st2" d="M229.8,11.8c0.1,0,0.1,0,0.1,0c0,0.1-0.1,0.3,0.1,0.3c0.1-0.1-0.1-0.1,0-0.2c0.1,0,0.1,0,0.2-0.1
			c0.4-0.3-0.2-0.9-0.2-1.3C229.7,10.8,229.3,11.5,229.8,11.8"/>
		<path class="st2" d="M228.2,12.2C228.2,12.2,228.2,12.2,228.2,12.2c0,0.1,0,0.3,0,0.5c0,0.9,0.2,1.7,0.8,2.1
			c0.2,0.1,0.7,0.3,0.9,0c-0.2-0.4-0.5-0.6-0.8-0.8c0.1,0,0.2,0,0.3,0c-0.2-0.3-0.5-0.5-0.5-0.9c0.3,0.4,0.6,0.8,0.9,1.2
			c0-0.1,0-0.3,0.1-0.3c0,0.2,0,0.4,0,0.6c0.2,0.2,0.3,0.5,0.5,0.7c0.1,0,0.1-0.1,0.1-0.2c-0.1-0.1-0.3-0.2-0.4-0.3
			c0.1-0.2,0.2-0.4,0.2-0.7C230.1,12.9,228.7,13,228.2,12.2"/>
		<path class="st2" d="M230.1,25c0.3-0.2,0.9-0.3,0.7-0.9c0,0-0.1,0-0.1-0.1c0.1-0.1,0.1-0.1,0.1-0.2c0,0,0,0-0.1,0
			c0,0,0,0.1-0.1,0.2C230,23.8,230.2,24.6,230.1,25"/>
		<path class="st2" d="M236.4,18.4c0.1-0.1,0.1-0.2,0-0.3c-0.1-0.6-0.9-0.5-1.3-0.8c0.1,0.5,0.4,1.4,1.1,1.2
			C236.2,18.5,236.2,18.5,236.4,18.4c0,0.1,0.1,0.3,0.2,0.2C236.6,18.5,236.4,18.5,236.4,18.4"/>
		<path class="st2" d="M237.7,16.8c0-0.5-0.5-0.9-0.3-1.4c0,0,0,0,0,0c-0.3,0.4-0.9,0.8-0.9,1.5c0,0.3,0.1,0.6,0.5,0.6
			c0.1-0.2,0.1-0.6,0-0.7c0.1,0,0.1,0.1,0.1,0.1c0.1-0.2,0-0.5,0.1-0.6c0,0.4-0.1,0.6-0.1,1c0.1,0,0.2-0.1,0.2-0.1
			c-0.2,0.2-0.5,0.4-0.4,0.9c0.1,0,0.1,0,0.2,0c0-0.1-0.1-0.2-0.1-0.3c0.1,0,0.1,0,0.2,0C237.5,17.4,237.7,17.1,237.7,16.8"/>
		<path class="st2" d="M234.1,13.4c1.2,0.3,1.6-0.9,2.7-0.7c-0.6-0.5-1.3-1.4-2.3-1.5c-0.6,0-1.3,0.3-1.2,0.9c0.5,0.1,1,0,1.3-0.2
			c-0.1,0.1-0.2,0.1-0.3,0.3c0.4,0,0.9,0,1.2,0.2c-0.6,0-1.1-0.1-1.7-0.1c0.1,0.1,0.2,0.3,0.2,0.4c-0.2-0.1-0.3-0.5-0.5-0.6
			c-0.2-0.1-0.8-0.1-1,0c0,0.1,0,0.2,0.1,0.3c0.2,0,0.3-0.1,0.5-0.1c0.1,0.5,0.4,0.8,0.8,1c-0.3,0.3-0.5,1.1,0,1.3
			c0.1,0,0.1,0,0.2,0c0,0.1,0,0.4,0.1,0.3c0.1-0.1-0.1-0.1,0-0.2c0.3-0.1,0.4-0.3,0.4-0.6C234.5,13.8,234.1,13.6,234.1,13.4"/>
		<path class="st2" d="M234.6,20.8c0-0.8-0.9-0.6-1.3-1c0.1,0.5,0.3,1.2,0.8,1.2c0.2,0,0.3,0,0.3-0.1c-0.1-0.1-0.3-0.2-0.4-0.3
			c0,0,0.1,0,0.1,0c-0.1-0.1-0.2-0.2-0.3-0.3c0.2,0.1,0.3,0.3,0.5,0.4c0,0,0-0.1,0-0.2c0,0.3,0.2,0.5,0.4,0.6c0,0,0.1,0,0.1-0.1
			c0-0.1-0.2-0.1-0.2-0.1C234.6,20.9,234.6,20.8,234.6,20.8"/>
		<path class="st2" d="M239,19.6c0.2,0.5,0.4,1.2,1,1.3c0.2,0,0.4,0,0.5-0.2c-0.1-0.1-0.3-0.2-0.5-0.3c0,0,0.1,0,0.1-0.1
			c-0.1-0.1-0.3-0.2-0.4-0.4c0.3,0.1,0.4,0.3,0.7,0.4c0-0.1,0-0.1,0-0.2c0,0.3,0.2,0.5,0.5,0.6c0,0,0-0.1,0-0.1
			c-0.1,0-0.2,0-0.2-0.1c0.1-0.5-0.2-0.8-0.6-0.9C239.6,19.7,239.2,19.8,239,19.6"/>
		<path class="st2" d="M247.2,20.1c-0.3,0.1-0.7,0.6-0.5,1c-0.1,0-0.2,0.1-0.3,0.1c0,0.1,0,0.1,0,0.2c0.3,0,0.4-0.2,0.5-0.3
			c0-0.2,0.1-0.3,0.1-0.4v0.3c0.4-0.1,0.6-0.4,0.9-0.5c-0.1,0.2-0.4,0.3-0.6,0.5c0.1,0,0.1,0,0.2,0c-0.3,0-0.5,0.1-0.7,0.3
			c0.1,0.2,0.4,0.3,0.6,0.3c0.7-0.1,0.9-1,1.1-1.5c0,0,0,0,0,0C248.3,20.3,247.6,20,247.2,20.1"/>
		<path class="st2" d="M248.8,26.9c0,0.3,0.1,0.5,0.2,0.7c-0.1,0.1-0.2,0.1-0.3,0.2c0.2,0.3,0.4-0.2,0.5-0.4c0-0.1-0.1-0.3-0.1-0.4
			c0.1,0,0.1,0.1,0.1,0.2c0.3-0.1,0.4-0.6,0.7-0.8c-0.1,0.2-0.3,0.4-0.4,0.6c0.1,0,0.2,0,0.2,0c-0.3,0.1-0.5,0.3-0.6,0.5
			c0.1,0.1,0.2,0.1,0.3,0.1c0.9,0,1-1.1,0.9-2.1C250.1,26.2,248.9,26,248.8,26.9"/>
		<path class="st2" d="M250.4,23.8c0-0.7-1-0.6-1.4-1c0,0.6,0.2,1.3,0.8,1.4c0.2,0,0.2,0,0.3-0.1c-0.1-0.2-0.3-0.3-0.5-0.4
			c0,0,0.1,0,0.1,0c-0.1-0.1-0.3-0.2-0.3-0.4c0.2,0.2,0.3,0.4,0.6,0.5c0-0.1,0-0.1,0-0.2c0,0.4,0.1,0.6,0.4,0.6c0-0.1,0-0.1,0-0.1
			c-0.1-0.1-0.2-0.1-0.2-0.1C250.4,24,250.4,23.9,250.4,23.8"/>
		<path class="st2" d="M247.5,22.2c-0.2-0.2-0.6-0.4-0.9-0.2c0-0.1-0.1-0.1-0.1-0.2c-0.1,0-0.1,0-0.2,0.1c0.1,0.3,0.3,0.4,0.7,0.4
			c-0.1,0-0.1,0-0.2,0c0.1,0.3,0.4,0.4,0.6,0.6c-0.2-0.1-0.3-0.2-0.4-0.3c0,0,0,0.1-0.1,0.1c-0.1-0.2-0.2-0.4-0.4-0.5
			c-0.1,0.1-0.2,0.2-0.1,0.4c0.1,0.6,1,0.7,1.6,0.7c0-0.1-0.1-0.1-0.2-0.2C247.6,22.9,247.6,22.4,247.5,22.2"/>
		<path class="st2" d="M247.3,27.4c0,0.2,0.2,0.5,0.3,0.6c0.2,0,0.2-0.3,0.2-0.5c-0.1-0.6-0.9-0.8-1.4-1c0.3,0.4,0.1,1.1,0.5,1.4
			c0.1,0.1,0.4,0.2,0.7,0.2c0,0.1,0,0.2,0.1,0.2c0,0,0.1,0,0.1,0c-0.1-0.3-0.3-0.5-0.6-0.5h0.2c-0.1-0.3-0.3-0.4-0.5-0.7
			c0.2,0.1,0.2,0.3,0.4,0.4C247.3,27.5,247.2,27.4,247.3,27.4"/>
		<path class="st2" d="M250.6,20c0.2,0.7-0.4,1.1-0.4,1.7c-0.1,0.7,0.4,1.1,1,1.2c0,0.2-0.1,0.3-0.1,0.4c0.1,0,0.1,0.1,0.2,0
			c0.1-0.3-0.1-0.5-0.1-0.8c-0.2-0.1-0.4-0.2-0.5-0.4c0.1,0,0.2,0.1,0.3,0.1c0-0.5-0.2-0.9-0.2-1.3c0.2,0.2,0.2,0.6,0.3,0.9
			c0.1,0,0.1-0.2,0.2-0.2c-0.1,0.3-0.2,0.7,0,1c0.5,0,0.7-0.4,0.7-0.7C252.1,21.1,251,20.4,250.6,20"/>
		<path class="st2" d="M256.2,22.6c-0.4,0.3-1.2,0.6-1.2,1.2c0,0.2,0.1,0.6,0.3,0.6c0.1-0.1,0.2-0.4,0.2-0.7c0.1,0,0,0.1,0.1,0.1
			c0.1-0.2,0.1-0.4,0.3-0.5c-0.1,0.3-0.3,0.5-0.4,0.8c0.1,0,0.2-0.1,0.2,0c-0.3,0.1-0.5,0.3-0.6,0.7c0,0,0.1,0,0.2,0
			c0-0.1,0-0.2,0-0.3c0.5,0,0.8-0.3,0.9-0.7C256.3,23.4,256,22.9,256.2,22.6C256.2,22.6,256.2,22.6,256.2,22.6"/>
		<path class="st2" d="M250.9,33.4c-0.5,0.2-1.3,0.4-1.5,1c-0.1,0.3,0,0.7,0.3,0.8c0.2-0.2,0.3-0.4,0.3-0.7c0,0.1,0,0.2,0.1,0.2
			c0.1-0.2,0.2-0.5,0.4-0.5c-0.1,0.3-0.4,0.5-0.5,0.9c0.1,0,0.2,0,0.3,0c-0.1,0-0.3,0.1-0.4,0.1c-0.1,0.2-0.3,0.3-0.3,0.5
			c0.1,0,0.1,0.1,0.2,0.1c0-0.1,0-0.3,0.1-0.3c0.4,0.2,0.9-0.1,1-0.4C250.9,34.4,250.6,33.7,250.9,33.4L250.9,33.4z"/>
		<path class="st2" d="M253.5,27.1c-0.3,0-0.6,0.3-0.6,0.7c-0.1,0-0.2,0-0.3,0c0,0,0,0.1,0,0.1c0.2,0,0.3-0.1,0.5-0.1
			c0-0.1,0.1-0.3,0.2-0.3c0,0.1,0,0.1,0,0.1c0.3,0,0.5-0.1,0.8-0.2c-0.1,0.1-0.4,0.1-0.5,0.2c0,0,0.1,0.1,0.1,0.1
			c-0.2-0.1-0.4,0-0.6,0.1c0,0.2,0.2,0.3,0.4,0.3c0.6,0.1,1-0.6,1.3-1C254.5,27.5,254,27.1,253.5,27.1"/>
		<path class="st2" d="M252.9,22.3c0.3,0.3,0,0.9,0.1,1.3c0,0.5,0.5,0.8,1.1,0.8c0,0.1,0,0.2,0,0.3c0.1,0,0.1,0,0.2,0
			c0-0.3-0.2-0.4-0.3-0.6c-0.2,0-0.3-0.1-0.5-0.2c0.1,0,0.2,0,0.3,0c-0.1-0.3-0.3-0.6-0.4-0.9c0.2,0.1,0.3,0.4,0.4,0.6
			c0.1,0,0-0.1,0.1-0.2c-0.1,0.3,0.1,0.6,0.2,0.7c0.3,0,0.4-0.4,0.3-0.7C254.4,22.8,253.4,22.6,252.9,22.3"/>
		<path class="st2" d="M246.4,32.6c-0.1,0.1-0.1,0.3-0.1,0.5c0,0,0-0.1-0.1-0.1c-0.1,0.1-0.1,0.4-0.2,0.4c0.1-0.2,0.2-0.4,0.3-0.7
			c-0.1,0-0.1,0.1-0.2,0C246.1,32.8,246.2,32.7,246.4,32.6c0-0.1,0.1-0.2,0.1-0.4h-0.1c-0.1,0,0,0.2-0.1,0.3c0,0-0.1,0-0.1,0
			c-0.3,0.1-0.5,0.3-0.5,0.6c0,0.3,0.2,0.8,0,1c0.4-0.2,1-0.5,1-1.1C246.6,32.8,246.6,32.6,246.4,32.6"/>
		<path class="st2" d="M246,15.8c0.2,0.4-0.1,1-0.1,1.5c0,0.4,0.4,0.9,0.9,0.8c0,0.1,0,0.3,0,0.4c0.1,0,0.1,0,0.2,0
			c0-0.2-0.1-0.4-0.2-0.6c-0.1-0.1-0.3-0.1-0.4-0.2c0.1,0,0.2,0.1,0.3,0.1c-0.1-0.4-0.3-0.7-0.3-1c0.1,0.2,0.2,0.4,0.3,0.7
			c0.1,0,0.1-0.1,0.1-0.1c0,0.3,0,0.5,0.1,0.7c0.3,0,0.4-0.3,0.4-0.6C247.3,16.5,246.5,16.1,246,15.8"/>
		<path class="st2" d="M245.1,27.3c-0.1-0.3,0.1-0.5,0.1-0.8c0-0.3-0.2-0.5-0.5-0.5c0,0,0-0.1,0-0.2c-0.2-0.1-0.1,0.2-0.1,0.3h-0.1
			C244.1,26.6,244.7,27.1,245.1,27.3"/>
		<path class="st2" d="M245.4,31.8c0.2,0.1,0.4,0,0.6-0.1c0-0.1,0-0.1-0.1-0.2c-0.1,0-0.2,0.1-0.3,0.1c-0.1-0.4-0.5-0.6-0.8-0.6
			c-0.6,0-0.9,0.7-1.5,0.7c0.4,0.2,1.2,0.9,1.9,0.6c0.2-0.1,0.4-0.2,0.3-0.5c-0.3-0.1-0.6,0-0.8,0.2c0-0.1,0.1-0.1,0.1-0.2
			c-0.2,0-0.6,0.1-0.7-0.1c0.3,0,0.7,0,1-0.1c0-0.1-0.2-0.1-0.1-0.2C245.2,31.6,245.3,31.8,245.4,31.8"/>
		<path class="st2" d="M243.9,29c0.1-0.1,0.2-0.3,0.4-0.4c0,0.1-0.2,0.2-0.2,0.3c0.4,0,0.9,0,1.3,0c-0.2,0.1-0.6,0.1-0.9,0.1
			c0,0.1,0.2,0.2,0.2,0.2c-0.2-0.2-0.6-0.2-1-0.2c-0.1,0.5,0.5,0.7,0.9,0.7c0.8,0,1.4-0.6,1.8-1c-0.7,0.1-1.1-0.6-1.8-0.7
			c-0.6-0.1-1,0.3-1.1,0.7c-0.2,0-0.3-0.1-0.4-0.1c0,0.1-0.1,0.1-0.1,0.2C243.4,29.1,243.7,29,243.9,29"/>
		<path class="st2" d="M243.5,33.7c-0.1,0.1-0.3,0.4,0,0.5c-0.1,0-0.3,0-0.3,0.2c0,0,0,0,0.1,0.1c0.1,0,0.1-0.1,0.2-0.1
			c0.1,0.2,0.3,0.3,0.6,0.3c0.5,0,0.4-0.6,0.8-0.7c-0.1-0.1-0.2-0.1-0.4-0.2C244.2,33.6,243.8,33.5,243.5,33.7"/>
		<path class="st2" d="M243.9,20.9c0,0.3,0,0.5,0.3,0.7c0.2-0.2,0.4-0.5,0.4-0.9c0,0.1,0,0.2,0.1,0.3c0.2-0.2,0.3-0.6,0.5-0.7
			c-0.2,0.4-0.5,0.7-0.7,1.1c0.1,0,0.2,0,0.3,0c-0.2,0.1-0.3,0.1-0.5,0.1c-0.2,0.1-0.4,0.5-0.4,0.7c0,0,0.1,0.1,0.2,0
			c0.1-0.1,0-0.3,0.1-0.4c0.5,0.2,0.9-0.1,1.1-0.4c0.4-0.5,0.1-1.6,0.5-2h0C245.1,19.7,244,20,243.9,20.9"/>
		<path class="st2" d="M241.4,30c0.1-0.2,0.1-0.5-0.1-0.6c0,0,0.1-0.1,0.1-0.1c0,0,0,0-0.1-0.1c-0.1,0-0.1,0.2-0.1,0.2
			c-0.5-0.2-0.5,0.7-0.4,1.1C240.9,30.2,241.3,30.2,241.4,30"/>
		<path class="st2" d="M241.8,33.2c0.1,0,0.2-0.1,0.2-0.2c0-0.6-0.7-0.8-1.2-0.7c0.4,0.3,0.1,1.3,0.9,1.2c0.1,0,0.1-0.1,0.2-0.1
			c0,0.1,0,0.2,0.1,0.2C242.1,33.4,241.8,33.3,241.8,33.2"/>
		<path class="st2" d="M233.6,0c-20.2,0-36.6,16.4-36.6,36.6c0,8.1,2.6,15.8,7.6,22.3l0.2,0.3l0.4-0.1c0.6-0.1,1.2-0.2,2-0.4
			c2.6-0.5,6.4-1.4,11.9-1.4c1.8,0,3.6,0.1,5.4,0.3c2.6,0.2,4.2,0.8,5.3,1.2c0,0,0,0,0.1,0c0.1,0,0.1,0,0.1,0h6.9
			c1.7,0.5,4.5,0.8,5,0.9c1.9,0.3,4.6,0.4,7.8,0.4c5.3,0,10.6-0.4,12.1-0.5l0.3,0l0.2-0.2c5.3-6.6,8-14.5,8-22.8
			C270.2,16.4,253.8,0,233.6,0 M236,41.1c0.1-1.9,0.1-3.8,0-5.6c2.1-0.9,6.4-1.1,7.5,0.9c0.2,0.3,0.4,0.9,0.4,1.3
			c0,0.5-0.6,0.9-0.8,0.4c0-0.1,0.2-0.2,0.3-0.2c-0.3-0.1-0.7,0.1-0.6,0.4c0,0.3,0.7,0.3,0.9,0.2c0.7-0.3,0.9-1.3,0.5-1.9
			c0.6,0.3,1,0.9,1.6,1.4c0.6,0.5,1.1,1,1.9,1.1c0.7,0,1.2-0.2,1.4-0.7c0.2-0.6-0.1-1.2-0.7-1.2c-0.3,0-0.5,0.6,0,0.6
			c-0.3-0.1-0.1-0.4,0-0.4c0.2,0,0.4,0.1,0.5,0.3c0.1,0.3-0.1,0.7-0.3,0.8c-0.2,0.2-0.6,0.3-1,0.2c-0.8-0.1-1.3-0.7-1.8-1.3
			c-0.4-0.5-0.8-0.8-1.2-1.2c-0.1-0.1-0.3-0.2-0.4-0.4c0.9-0.1,1.8-0.6,2.7-0.6c0.3,0,0.5,0,0.6,0.1c0.4,0.3-0.1,0.8-0.4,0.8
			c-0.2,0-0.4-0.2-0.2-0.4c-0.1,0-0.2,0.1-0.2,0.2c0,0.3,0.6,0.4,0.9,0.3c0.3-0.1,0.5-0.4,0.5-0.8c0.6,0.2,1.2,0.5,2,0.5
			c0.8,0.1,1.6,0,2.1-0.3c0.3-0.2,0.5-0.3,0.8-0.4c0.2,0,0.5,0.1,0.4,0.3c0,0.1-0.2,0.2-0.2,0.3c0.3,0,0.3-0.2,0.3-0.5
			c-0.2-0.4-0.9-0.3-1.2-0.1c0.2-0.5-0.3-0.9-0.7-0.9c-0.1,0-0.4,0.4,0,0.4c0-0.1-0.1,0-0.1-0.2c0.3-0.4,0.7,0.3,0.5,0.6
			c0,0.1-0.2,0.1-0.2,0.2c-0.4,0.2-0.9,0.2-1.4,0.2c-0.8,0-1.4-0.2-2-0.4c-0.6-0.3-1.1-0.6-1.8-0.6c0.7-0.2,1.1-0.8,1.6-1.3
			c0.5-0.5,1-0.9,1.4-1.5c0.4-0.5,0.7-1.1,1.2-1.7c0.2-0.3,0.4-0.5,0.6-0.8c0.3-0.3,1.1-0.9,1.4-0.3v0.3c-0.1,0.1-0.2,0.2-0.3,0.2
			c-0.1,0-0.1-0.1-0.2-0.2c0,0.3,0.2,0.4,0.5,0.4c0.2-0.1,0.3-0.5,0.3-0.8c0.3,0.2,0.7,0.7,1.2,0.7c0.4,0,0.7-0.3,0.7-0.6
			c0-0.2-0.2-0.4-0.5-0.4c-0.2,0-0.5,0.2-0.2,0.4c0,0-0.1-0.1,0-0.2c0.2-0.1,0.4,0,0.5,0.2c0,0.3-0.3,0.4-0.5,0.4
			c-0.7,0-1-0.9-1.6-1c-0.5-0.1-0.9,0.3-1.1,0.5c-0.2,0.2-0.3,0.3-0.5,0.5c0.4-1.5,1.5-2.9,2.8-3.7c0.4-0.3,1-0.6,1.6-0.5
			c0.4,0,0.6,0.3,0.7,0.5c0.2,0.5-0.3,0.8-0.8,0.7c0.4,0.5,1,0,1.1-0.4c0.2-0.8-0.6-1.2-1.3-1.2c-0.7,0-1.2,0.3-1.8,0.6
			c-0.2,0.1-0.4,0.2-0.6,0.4c-0.2,0.1-0.4,0.3-0.6,0.4c-0.1-0.7-0.1-1.6-0.8-1.7c-0.4-0.1-0.9,0.2-1,0.5c-0.1,0.3,0.1,0.5,0.3,0.5
			c0.1-0.1,0-0.4,0-0.6c0.1,0,0.3-0.1,0.5-0.1c0.6,0.1,0.5,1,0.3,1.6c-0.2,1-0.6,1.9-1,2.8c-0.3,0.6-0.5,1.2-0.7,1.8
			c-0.4,0.7-0.8,1.4-1.5,1.7c0.2-0.3,0.4-0.7,0.5-1.2c0.1-0.6-0.3-1-0.5-1.4c-0.2-0.5-0.5-1.6,0.1-1.8c0.2-0.1,0.7,0,0.7,0.2
			c0,0.2-0.2,0.2-0.4,0.2c0.1,0.3,0.4,0.1,0.5,0c0.2-0.5-0.7-0.7-1.1-0.5c-0.7,0.4-0.2,1.7-0.1,2.4c-0.7-0.1-1.2,0.3-1.3,0.8
			c-0.1,0.2,0.1,0.6,0.3,0.7c0.2,0,0.5-0.3,0.5-0.5c0-0.1-0.2-0.3-0.3-0.1c0.2,0.1,0.1,0.3-0.1,0.3c-0.2,0-0.2-0.4-0.1-0.6
			c0.1-0.2,0.4-0.3,0.7-0.3c0.4,0,0.7,0.2,0.7,0.6c-0.1,0.7-0.5,1.2-0.9,1.7c-0.7,0.7-1.6,1.4-2.7,1.7c-0.4,0.1-1,0.1-1.5,0.2
			c-0.2,0-0.4,0.1-0.5,0.1c-0.2,0-0.3-0.2-0.5-0.3c0.2-0.1,0.4-0.2,0.4-0.4c0.1-0.4-0.5-0.6-0.9-0.4c-0.2,0.1-0.3,0.4,0,0.4
			c0.1-0.1,0-0.1,0-0.2c0.1-0.1,0.6,0,0.6,0.1c0,0.2-0.4,0.4-0.5,0.5c-0.5,0.2-1.2-0.1-1.7-0.3c-0.5-0.2-1.1-0.2-1.7-0.3
			c-0.9,0-2,0-2.6-0.3c0.1-0.4,0.4-0.8,0.8-1.1c0.4-0.3,0.9-0.5,1.4-0.4c0.2,0,0.4,0.2,0.4,0.4c0.1,0.5-0.6,0.7-0.5,0.2
			c-0.3,0.1,0,0.4,0.2,0.4c0.3,0,0.5-0.3,0.5-0.6c0-0.8-1.4-0.8-2-0.4c0-0.5-0.4-1-0.8-1c-0.3,0-0.5,0.3-0.3,0.5
			c0,0.1,0.2,0.2,0.3,0c-0.1-0.1-0.1,0-0.2-0.1c0-0.4,0.5-0.1,0.6,0c0.1,0.1,0.2,0.5,0.1,0.7c-0.1,0.4-0.6,0.7-0.8,1
			c-0.1-1.1-0.3-2.1-0.5-3c0.9-0.9,2-1.9,3.6-2.3c1.2-0.3,2.6-0.2,2.7,1.1c0.1-0.3,0.1-0.9-0.1-1.1c0.3,0,0.6,0.3,0.9,0.6
			c0.2,0.3,0.5,0.6,0.5,1c0,0.4-0.4,0.6-0.7,0.7c0.3,0.2,0.6,0,0.7-0.2c0.2-0.2,0.4-0.7,0.4-1c-0.2-0.7-0.9-1.1-1.4-1.4
			c0.5-0.1,0.8-0.6,1.1-1c-0.4,0.2-0.9-0.2-1.3-0.2c-0.4,0-0.7,0.3-0.8,0.7c-0.1,0-0.2,0-0.3,0c-0.1,0-0.1,0.1-0.1,0.1
			c-0.1,0-0.3,0-0.5-0.1c0.4-0.2,0.8-0.5,1.2-0.8c0.4-0.2,0.8-0.4,1.4-0.6c0.5-0.1,1.1-0.2,1.6-0.4c0.7-0.1,1.4-0.3,1.6-0.7
			c0.7,0.2,1-0.4,1.6-0.3c-0.4-0.4-1.5-1.3-2-0.5c0,0.1,0.1,0.2,0,0.2c-0.1,0-0.4-0.1-0.5,0c-0.1,0.2,0.2,0.1,0.3,0.1
			c0,0.1,0,0.1,0,0.2c0.1,0,0.1-0.1,0.1-0.1c0,0.2,0.1,0.2,0.2,0.3c-0.2,0.3-1.7,0.7-1.6-0.1c0.1-0.5,0.5-1,0.8-1.4
			c0.6-0.8,1.2-1.7,1.7-2.6c0.3-0.5,0.6-1,0.7-1.5c0-0.2,0-0.4-0.1-0.5c-0.3-0.4-1.1-0.2-1.1,0.2c0.2-0.1,0.4-0.3,0.7-0.2
			c0.4,0.1,0,0.9,0,1.1c-0.4,0.7-0.9,1.4-1.3,2c-0.3,0.5-0.6,0.9-1,1.2c-0.3,0.4-0.8,0.8-1.3,0.9c0.1-0.4,0.3-0.8,0.3-1.3
			c0.1-1.2-0.5-1.7-1.3-2c-0.2-0.9,0-1.8,0.4-2.4c0.3-0.5,0.8-1,1.3-1.1c0.1,0,0.2-0.1,0.3-0.1c0.5,0,0.8,0.5,0.6,0.9
			c-0.1,0.3-0.6,0.2-0.5-0.1c-0.3,0.4,0.3,0.6,0.6,0.4c0.3-0.2,0.3-0.8,0.1-1.1c-0.5-0.6-1.5-0.2-1.9,0.1c-0.3,0.3-0.6,0.5-0.9,0.8
			c-0.2-0.4-0.5-0.7-1.1-0.8c-0.4,0-0.7,0.1-0.9,0.4c0,0.3,0.1,0.6,0.4,0.6c0.1,0,0.3-0.2,0.1-0.3c-0.1,0,0,0.1-0.1,0.1
			c-0.1,0-0.2-0.1-0.2-0.2c-0.1-0.5,0.7-0.4,0.9-0.2c0.8,0.6,0.1,2.2,0,3c-0.2,0.1-0.3,0.1-0.4,0.3c1-0.4,2,0.2,2.1,1
			c0.2,0.8-0.2,1.7-0.5,2.3c-0.6,1-1.5,1.7-2.5,2.3c-0.4,0.2-1.2,0.6-1.8,0.6c-0.5,0-0.5-0.2-0.6-0.5c-0.1-0.2-0.1-0.3-0.1-0.5
			c-0.1-0.5,0-1.1,0.1-1.6c0-0.3,0.1-0.7,0.1-1.1c0-0.5,0-1.1,0.3-1.3c0.1-0.2,0.7-0.3,0.7,0.1c0,0.1-0.2,0-0.2,0.1
			c0,0.3,0.5,0.1,0.5-0.1c0-0.3-0.2-0.4-0.4-0.5c0.1-0.3-0.1-0.7,0.1-0.9c-0.4,0.2-1.1,0.6-0.8,1.1c-0.2,0.2-0.2,0.5-0.3,0.7
			c-0.1,0.3-0.2,0.5-0.2,0.8c0,0.3,0,0.6,0,1c0,0.3-0.2,0.7-0.2,0.9c-0.4-0.6-0.5-1.4-1.1-1.7c0.3-0.1,0.9-0.4,0.6-0.8
			c0-0.1,0.2-0.1,0.1-0.2c-0.1,0,0,0.1-0.1,0.1c-0.6-0.2-0.5,0.5-0.6,0.8c-0.3,0-0.7,0.2-0.7,0.4c0,0.3,0.4,0.6,0.8,0.4
			c0-0.1,0-0.2-0.1-0.2c0,0.1,0,0.1-0.1,0.1c-0.2,0-0.3-0.4,0-0.4c0.2,0,0.4,0.3,0.5,0.5c0.2,0.3,0.3,0.6,0.3,1.1c0,0.4,0.1,1,0,1.4
			c0,0.5-0.4,1-0.7,1.3c-0.3,0.3-0.8,0.6-1.2,0.7c-0.4-1.2-0.9-2.4-1.2-3.7c-0.2-0.8-0.1-1.8,0.4-2.3c0.2-0.2,0.5-0.4,0.8-0.5
			c0.3-0.2,0.6-0.4,0.9-0.4c0.3-0.1,1.1-0.1,1.1,0.2c0,0.2-0.2,0.2-0.3,0.1c-0.1-0.1,0.1-0.1,0-0.1c-0.1,0-0.2,0-0.2,0.1
			c-0.1,0.3,0.8,0.7,0.8,0.2c0.1,0,0.2,0,0.2-0.1c0.1,0,0.1,0.2,0.2,0.1c0-0.1-0.1-0.1-0.1-0.1c0.2-0.5-0.4-0.5-0.7-0.6
			c0,0-0.1-0.1-0.1,0c0,0,0,0.1,0,0.1c-0.5-0.1-1.1,0.1-1.5,0c0.2-0.1,0.3-0.3,0.5-0.5c0.2-0.2,0.4-0.3,0.6-0.4
			c0.2-0.1,0.4-0.3,0.5-0.5c0.2-0.2,0.4-0.4,0.5-0.6c0.1-0.4-0.2-0.9-0.6-0.8c-0.3,0-0.3,0.5,0,0.5c0.1-0.1-0.1-0.1,0-0.2
			c0.3-0.1,0.4,0.2,0.4,0.4c0,0.2-0.2,0.4-0.3,0.5c-0.5,0.3-0.9,0.8-1.4,1.2c-0.3,0.3-0.7,0.6-1.2,0.7c-0.2,0-0.4,0.1-0.6,0.1
			c-0.2,0-0.3-0.3-0.3-0.5c-0.1-0.4-0.2-0.9-0.2-1.4c0-0.2-0.1-0.5-0.1-0.7c-0.1-1.1,0.1-1.9,0.6-2.5c0.3-0.4,0.7-0.7,0.8-1.2
			c0.1-0.4-0.2-0.9-0.5-0.6c0,0.1,0,0.3,0.1,0.3c0.1-0.3,0.3,0,0.3,0.3c0,0.3-0.4,0.7-0.6,0.7c-0.1-0.6-0.1-1.3-0.1-1.9
			c-0.1-1-0.8-1.8-1.6-2.2c-0.4-0.2-1-0.4-1.4-0.3c-0.2,0.1-0.2,0.2-0.4,0.3c-0.1-0.5-0.5-0.3-0.8-0.2c0.1,0.2,0.3,0.5,0.5,0.5
			c0.2,0,0.1-0.2,0.2-0.2c0.1,0.1,0,0.2,0,0.3c0.1,0.3,0.5,0.5,0.6,0.1c-0.2,0.1-0.4-0.1-0.4-0.3c0.1-0.3,1-0.2,1.2-0.1
			c1.4,0.6,1.8,2.7,1.4,4.6c0,0.3-0.2,0.8-0.4,0.8c-0.1,0-0.3-0.3-0.4-0.4c-0.2-0.2-0.3-0.3-0.4-0.4c-0.3-0.3-0.6-0.8-0.6-1.2
			c0.1-0.3,0.6-0.3,0.6,0.1c-0.1,0-0.1,0.1-0.1,0.1c-0.1,0-0.1-0.1-0.2-0.1c0,0.2,0.1,0.3,0.3,0.3c0.3-0.2,0.1-0.6-0.1-0.7
			c-0.4-0.1-0.6,0.1-0.6,0.4c-0.1,0.6,0.4,1.1,0.8,1.4c0.3,0.4,0.8,0.7,0.8,1.1c0,0.2,0,0.3-0.1,0.5c0,0.3,0,0.6,0,0.9
			c0.1,1.4,0.3,2.8,0.4,3.9c-0.1,0-0.1,0-0.2,0.1c-0.2-0.2-0.3-0.5-0.5-0.6c-0.4-0.4-1.5-0.5-1.6,0c0,0.2,0,0.4,0.1,0.5
			c0.1,0.1,0.5,0.3,0.5-0.1c-0.2,0.1-0.5,0-0.4-0.3c0.1-0.2,0.6-0.3,0.9-0.2c0.4,0.1,0.8,0.7,0.8,1.1c0,0.2,0,0.3-0.1,0.4
			c0,0.6,0.1,0.9,0.1,1.4c0,0,0.1,0.1,0.1,0.1c0.1,0.2,0.1,0.5,0.2,0.7c0.2,0.7,0.4,1.4,0.6,2.1c-0.5-0.5-1-1-1.8-1.5
			c-0.5-0.3-1.1-0.6-1.4-1.1c-0.1-0.2-0.3-0.9,0-0.9c0.2,0,0.7,0.5,0.3,0.6c0.1,0.2,0.3,0.1,0.4,0c0.1-0.4-0.4-0.8-0.8-0.7
			c-0.3,0.1-0.3,0.5-0.3,0.9c-0.8-0.3-1.5-0.5-2.5-0.6c-0.6-0.9-1.1-2-1.2-3.4c0-0.7,0.1-1.5,0.4-2c0.1-0.2,0.3-0.5,0.5-0.7
			c0.2-0.3,0.5-0.7,0.8-0.8c0.7-0.2,0.6,0.9,0.1,0.5c0.1,0.4,0.7,0.3,0.7,0c0.1-0.5-0.4-0.9-0.9-0.8c-0.6,0.1-1,0.7-1.3,1.1
			c0.1-1.2,0.6-2.3,0.7-3.5c0.1-0.9-0.3-1.8-1.3-1.7c-0.5,0.1-1.1,0.6-1,1.2c0,0.1,0.1,0.3,0.2,0.3c0.2,0.1,0.6-0.3,0.4-0.5
			c0.1,0.2-0.1,0.3-0.3,0.3c-0.1,0-0.2-0.2-0.1-0.4c0.1-0.4,0.5-0.7,0.8-0.7c0.3,0,0.5,0.2,0.6,0.3c0.5,0.7,0.2,1.8-0.1,2.6
			c-0.2,0.7-0.4,1.4-0.6,2c-1.1,0.1-2-0.6-2.3-1.4c-0.1-0.3,0.1-0.6,0.3-0.6c0.4-0.2,0.8,0.3,0.3,0.4c0.2,0.1,0.4-0.1,0.3-0.3
			c0-0.2-0.2-0.3-0.3-0.4c-0.5-0.2-0.9,0.3-0.8,0.8c0.1,0.7,0.7,1,1,1.4c-0.4,0.1-0.7,0.7-0.5,1.2c0.1,0.2,0.2,0.3,0.4,0.3
			s0.4-0.2,0.4-0.3c0-0.1-0.1-0.2-0.2-0.1c-0.1,0.1,0.1,0,0,0.1c-0.1,0.1-0.1,0.1-0.1,0.1c-0.4,0.1-0.3-0.6-0.1-0.8
			c0.3-0.4,1.2-0.3,1.7-0.1c-0.1,0.6-0.2,1.5-0.3,2.3c-0.1-0.1-0.3-0.1-0.5-0.1c-0.5,0.1-0.4,1.1,0.1,1c0.1,0,0.2-0.1,0.2-0.3
			c-0.1,0-0.1,0.1-0.2,0.1c-0.1,0-0.3-0.2-0.2-0.5c0.1-0.2,0.4-0.1,0.5,0c0.4,0.2,0.3,0.7,0.4,1.2c0.2,0.8,0.7,1.5,1.1,1.9
			c-0.9-0.2-1.7-0.1-2.7-0.1c-0.6,0-1-0.2-1.4-0.4c-0.3-0.2-0.8-0.6-0.8-1.1c0-0.4,0.4-0.9,0.8-0.9c0.2,0,0.4,0.1,0.5,0.3
			c0,0.2-0.2,0.3-0.4,0.2c0.1,0.4,0.5,0,0.5-0.2c0-0.4-0.6-0.6-1-0.4c0-0.1-0.2-0.2-0.2-0.4c0.2-0.2,0.4-0.5,0.3-0.8
			c-0.1-0.9-1.1-1-1.3-1.7c-0.1,0.4-0.3,1-0.2,1.6c0,0.5,0.3,0.9,0.8,1c0.1,0,0.2,0,0.3-0.1c0-0.3-0.3-0.6-0.5-0.8
			c0.1,0,0.1,0.1,0.2,0.1c-0.1-0.3-0.2-0.5-0.2-0.8c0.2,0.3,0.3,0.8,0.5,1.1c0-0.1,0.1-0.2,0.2-0.3c0,0.2-0.2,0.3-0.2,0.5
			c0,0.2,0.2,0.4,0.3,0.6c-0.1,0-0.1,0.1-0.2,0.1c-0.9-0.1-1.6-0.2-2.2-0.7c-0.5-0.4-1-1-1.2-1.7c-0.1-0.3-0.1-0.7,0.1-0.9
			c0.3-0.2,1-0.2,1,0.2c0,0.2-0.1,0.4-0.3,0.3c0.3,0.3,0.6-0.1,0.5-0.5c-0.1-0.3-0.3-0.5-0.6-0.5c-0.7-0.1-1,0.4-1.1,0.9
			c-0.1,1,0.5,1.6,0.8,2.2c-0.6,0.2-1.2,0.7-1,1.5c0,0.2,0.2,0.4,0.4,0.5c0.4,0,0.7-0.3,0.5-0.5c-0.1,0-0.2,0-0.2,0.1
			c0,0,0.1,0,0.1,0.1c-0.1,0.1-0.1,0.2-0.2,0.2c-0.4,0-0.3-0.6-0.2-0.8c0.2-0.3,0.6-0.5,1-0.4c0.8,0.1,1.5,0.7,2.1,0.9
			c0,0.3,0.1,0.6,0.2,0.8c0.6,1.2,2.5,1.3,4.3,1.4c0.3,0,0.6,0,0.8,0.2c-0.7,0.1-1.3,0.5-1.4,1.3c0,0.5,0.2,0.9,0.6,1.1
			c0.5,0.2,0.6-0.7,0.2-0.8c0.1,0.1,0.1,0.5-0.1,0.5c-0.3,0-0.5-0.3-0.4-0.6c0.1-0.4,0.6-0.6,1-0.8c0.3-0.1,0.6-0.3,0.9-0.3
			c1.1-0.2,2,0.4,2.7,0.8c1.3,0.9,2.3,2.3,3.1,3.8c0.2,0.3,0.4,0.6,0.4,0.9c0.1,0.2,0.1,0.5,0.1,0.8c0.1,0.8,0.2,1.6,0.2,2.4
			c-0.6-0.1-1.2-0.3-1.6-0.7c-0.4-0.4-0.8-0.9-0.9-1.5c-0.1-0.6,0.1-1.1,0.7-1c0.2,0,0.4,0.2,0.4,0.3c0,0.2-0.2,0.3-0.4,0.3
			c0.3,0.3,0.6-0.1,0.5-0.5c-0.2-0.5-0.9-0.5-1.3-0.2c-0.1,0.1-0.3,0.3-0.3,0.5c-0.2,1.1,0.5,1.7,0.8,2.3c-0.2,0.1-0.4,0.1-0.6,0.3
			c-0.3,0.3-0.7,1.3-0.1,1.5c0.2,0.1,0.6,0,0.6-0.3c0-0.2-0.2-0.3-0.3-0.1c0,0,0.1,0,0.1,0.1c-0.1,0.1-0.1,0.1-0.2,0.1
			c-0.4,0-0.3-0.5-0.2-0.7c0.1-0.3,0.6-0.5,1.1-0.4c0.6,0.1,1.3,0.5,1.7,0.7c0,1.1-0.1,2.2-0.2,3.2c-0.1,0.6-0.2,1.3-0.4,1.9
			c-0.3,1.2-0.6,2.8-1.6,3.1c-0.4,0.1-0.9,0-1.1-0.1c-0.5-0.4-0.9-1.2-1.2-1.8c0.3-0.9,1.1-1.6,2.2-1.6c0.4,0,0.6,0,0.8,0.3
			c0.2,0.3,0,0.8-0.4,0.8c-0.1,0-0.2-0.2-0.1-0.3c-0.3,0.1,0,0.5,0.3,0.5c0.4,0,0.6-0.4,0.6-0.8c0-0.3-0.2-0.5-0.4-0.6
			c-0.6-0.3-1.4,0-2,0.2c0-0.6-0.4-1.1-0.9-1.2c-0.2,0-0.4,0.1-0.5,0.2c-0.1,0.2,0,0.5,0.2,0.5c0.1,0,0.2-0.1,0.1-0.2
			c0-0.1-0.1,0-0.1,0c-0.2,0-0.1-0.4,0.1-0.4c0.2,0,0.4,0.1,0.5,0.2c0.5,0.6-0.3,1.5-0.6,1.8c-0.2-0.5-0.2-1.2-0.4-1.7
			c0.2-1.4-0.7-2.5-0.8-3.7c0-0.1,0-0.2,0-0.3c0.1-0.7,0.9-0.3,1,0.1c0,0.3-0.2,0.4-0.4,0.3c0.3,0.4,0.6,0,0.6-0.4
			c0-0.5-0.5-0.9-0.9-0.8c0.2-0.5,0.4-1,0.5-1.7c0.1-0.7,0.1-1.7-0.2-2.2c-0.2-0.3-0.6-0.6-0.5-1c0-0.2,0.1-0.4,0.3-0.4
			c0.1,0,0.2,0.2,0.3,0.2c0-0.1,0-0.2-0.1-0.2c0,0,0,0,0,0c0-0.1,0-0.2,0-0.4c0.5,0,0.8-0.3,0.9-0.7c0.1-0.5-0.3-1.2,0-1.6
			c0,0,0,0,0,0c-0.5,0.4-1.3,0.8-1.3,1.6c0,0.3,0.1,0.6,0.4,0.6c0.1-0.2,0.2-0.5,0.1-0.9c0.1,0,0.1,0.2,0.1,0.2
			c0.1-0.2,0.2-0.6,0.3-0.7c-0.1,0.4-0.3,0.7-0.3,1c0.1,0,0.2-0.1,0.2,0c-0.3,0.1-0.6,0.4-0.6,0.8c-0.1,0-0.2,0-0.3,0
			c-0.4,0.2-0.2,0.9-0.1,1.1c-0.5-0.2-1,0.2-0.9,0.6c0,0.1,0.5,0.4,0.5,0c-0.1,0.2-0.3,0-0.2-0.2c0.1-0.2,0.4-0.3,0.7-0.2
			c0.3,0.1,0.4,0.5,0.4,0.8c0.1,0.7,0.1,1.5-0.1,2.1c-0.2,0.9-0.8,1.4-0.9,2.3c0,0.1,0,0.2,0,0.2c-0.3-0.6-0.7-1.1-1.2-1.5
			c-0.2-0.1-0.3-0.3-0.4-0.4c0.7-0.4,1.7-0.6,1.6-1.7c-0.1-0.2-0.1-0.3-0.3-0.3c-0.2,0.2-0.3,0.5-0.3,0.8c-0.1,0,0-0.2-0.1-0.2
			c-0.1,0.2-0.3,0.5-0.5,0.6c0.2-0.4,0.4-0.6,0.6-1c0,0-0.2,0-0.3,0c0.1-0.1,0.3-0.1,0.5-0.2c0.1-0.2,0.3-0.3,0.3-0.6
			c0,0-0.1,0-0.2,0c0,0.1,0,0.3-0.1,0.4c-0.6-0.1-1,0.3-1.1,0.7c-0.1,0.5,0.2,1.1-0.2,1.5c-0.6-0.7-1.5-1.2-2.4-1.8
			c-0.8-0.5-1.9-1-2.2-2c0-0.1,0-0.2,0-0.3c0.1-0.4,0.8-0.3,0.8,0.1c0,0.1-0.1,0.1-0.2,0.2c0.3,0,0.4-0.2,0.4-0.3
			c0-0.4-0.5-0.4-0.9-0.5c0.3-0.3,0.9-0.8,0.6-1.5c-0.2-0.4-1.1-0.5-1.1,0.1c0,0.2,0.3,0.5,0.4,0.2c0,0-0.1,0.1-0.2,0
			c-0.1-0.3,0.1-0.5,0.4-0.4c0.2,0.1,0.3,0.3,0.3,0.6c-0.1,0.6-0.9,0.9-1,1.5c-0.1,0.6,0.5,1.1,0.8,1.3c0.1,0.1,0.2,0.1,0.3,0.2
			c-1.6-0.5-3-1.4-3.9-2.6c-0.3-0.4-0.6-1-0.7-1.5c0-0.1,0-0.2,0-0.3c0.1-0.5,0.8-0.9,1.2-0.5c0.1,0.1,0.2,0.4,0.2,0.7
			c0.1-0.1,0.2-0.2,0.2-0.5c-0.1-0.3-0.5-0.6-0.8-0.6c-0.7-0.1-1,0.6-1.1,1.2c-0.5,0.1-0.8,0.2-1.3,0.2c-0.9,0-1.4-0.3-1.9-0.7
			c-0.3-0.3-0.6-0.5-0.7-0.9c-0.1-0.3,0.1-0.6,0.3-0.7c0.2-0.1,0.6-0.1,0.7,0.1c0.1,0.2,0,0.4-0.2,0.4c0.3,0.2,0.5-0.3,0.4-0.6
			c-0.1-0.3-0.6-0.4-0.9-0.3c-0.3,0.1-0.6,0.5-0.5,0.9c0.1,1,1,1.5,1.6,2c-0.2,0.2-0.5,0.5-0.6,1v0c0,0-0.1,0-0.1,0
			c0,0.2-0.1,0.3-0.1,0.4c-0.4-0.2-0.9,0.1-1.1,0.3c-0.2,0.3-0.2,0.8-0.3,1.2c0,0.3-0.2,0.5-0.3,0.7c0.8-0.3,2-0.5,2-1.5
			c0-0.2-0.1-0.6-0.3-0.6c-0.1,0-0.2,0.2-0.2,0.3c-0.1,0.2-0.1,0.4-0.2,0.6c0-0.1,0-0.2,0-0.2c-0.2,0.2-0.3,0.5-0.6,0.6
			c0.2-0.4,0.5-0.6,0.7-1c-0.1,0-0.2,0-0.3,0c0.2-0.1,0.3-0.1,0.5-0.1c0.1-0.1,0.3-0.3,0.4-0.4c0,0.3,0.1,0.6,0.3,0.7
			c0.3,0.2,0.8,0,0.8-0.4c0-0.2-0.3-0.3-0.3,0c0,0,0.1,0,0.1,0.1c0,0.1-0.1,0.2-0.1,0.2h-0.2c-0.2-0.1-0.3-0.6-0.2-0.8
			c0.3-0.9,1.9-0.6,3-0.6c0.7,1.7,2.2,2.6,3.7,3.5c0.4,0.2,0.8,0.4,1.2,0.6c0.4,0.2,0.9,0.3,1.3,0.5c0.8,0.4,1.6,0.8,2,1.6
			c-0.4-0.2-0.8-0.5-1.4-0.5c-0.5,0-0.8,0.2-1.2,0.4c-0.3,0.1-0.7,0.3-1,0.3c-0.5,0.1-1,0-1.1-0.4c-0.1-0.2,0-0.7,0.2-0.7
			c0.2,0,0.2,0.2,0.2,0.4c0.3,0,0.1-0.5,0-0.5c-0.1,0-0.2,0-0.3,0c-0.4,0.1-0.4,0.8-0.2,1.1c0.2,0.2,0.5,0.3,0.9,0.3
			c0.7,0,1.1-0.2,1.7-0.3c0,0.1,0,0.2,0,0.4c0,0.4,0.5,0.9,0.9,1c0.2,0,0.4,0,0.6-0.2c0.2-0.3-0.2-0.7-0.5-0.7
			c-0.1,0-0.3,0.2-0.1,0.3c0-0.3,0.4-0.1,0.4,0.1c0,0.1-0.3,0.2-0.5,0.2c-0.5-0.1-0.7-1-0.3-1.3c0.4-0.3,1.1,0.1,1.4,0.2
			c0.3,0.2,0.6,0.4,0.9,0.7c-0.4,1.4-1.4,2.7-3.2,2.8c-0.6,0-0.9-0.1-1.4-0.3c-0.3-0.1-0.8-0.2-1-0.4c-0.2-0.2-0.2-0.7,0.3-0.7
			c0.1,0.1,0.2,0.3,0.1,0.4c0.3-0.1,0.1-0.7-0.1-0.7c-0.5,0-0.7,0.3-0.7,0.8c-0.2-0.2-0.5-0.5-0.9-0.7c-0.4-0.2-0.8-0.3-1-0.6
			c-0.1-0.1-0.2-0.4,0-0.5c0.2,0,0.2,0.1,0.3,0.2c0,0.1-0.1,0.1,0,0.1c0.5,0-0.2-0.8-0.4-0.4c-0.1,0.1,0,0.3,0,0.4
			c-1.1-0.3-2.6-0.1-3.9-0.2c-0.5-0.1-1.1-0.2-1.5-0.4c-0.4-0.2-0.8-0.6-0.9-1.1c-0.1-0.7,0.5-0.8,0.8-1.1c-0.7,0-1.1,0.3-1.1,0.9
			c0,0.7,0.6,1.2,1.2,1.5c0.6,0.3,1.5,0.5,2.2,0.6c0.5,0,1-0.1,1.3,0c-0.3,0.1-0.6,0.3-0.7,0.7c-0.1,0.4,0.1,0.7,0.5,0.8
			c0.2-0.1,0.1-0.5-0.1-0.5c0.2,0.4-0.4,0.3-0.3-0.1c0-0.2,0.4-0.4,0.6-0.5c0.4-0.2,0.9-0.4,1.5-0.2c1.1,0.3,1.8,1.7,2.6,2.2
			c-0.7-0.2-1.7-0.2-2.4,0c-0.3,0.1-0.5,0.2-0.7,0.2c-0.2,0-0.7-0.2-0.7-0.5c0-0.2,0.5-0.2,0.6,0c0,0.1-0.1,0.1,0,0.2
			c0.4-0.1,0.1-0.4-0.2-0.4c-0.2,0-0.6,0.1-0.6,0.3c-0.1,0.3,0.2,0.5,0.4,0.7c-0.7,0.4-1.4,0.8-2,1.3c0,0,0-0.1,0-0.1
			c-1,0-1.9-0.5-2.4-1.2c-0.2-0.3-0.5-1.1-0.2-1.4c0.3-0.3,1.1,0.1,0.7,0.4c0,0-0.2,0-0.2,0c0.2,0.2,0.4-0.1,0.4-0.3
			c0-0.2-0.1-0.3-0.2-0.3c-0.5-0.4-1.1,0.1-1.1,0.6c-0.1,0.8,0.4,1.3,0.7,1.8c-0.6,0-1.2,1.2-0.6,1.6c0.5,0.2,0.7-0.5,0.3-0.4
			c-0.1,0.1,0.1,0,0,0.1c-0.1,0.1-0.1,0.1-0.2,0.1c-0.3,0-0.3-0.4-0.2-0.6c0.1-0.3,0.5-0.5,0.9-0.4c0.6,0.1,1,0.4,1.4,0.6
			c-0.9,0.6-1.6,2-2.9,2.1c-0.2,0-0.3,0-0.5-0.1c-0.4-0.1-0.7-0.9-0.3-1.3c0.1-0.1,0.3-0.2,0.4-0.1c0.2,0.1,0.2,0.4,0,0.4
			c0.4,0,0.3-0.5,0.1-0.6c-0.1,0-0.3,0-0.4,0c-0.3,0.1-0.5,0.5-0.5,0.9c0,0.6,0.6,1,1.2,1c0.9,0,1.6-0.6,2.1-1c0.6-0.5,1-1,1.7-1.4
			c-0.5,0.7-0.3,1.9,0.5,2c0.2,0,0.5,0,0.6-0.1c0.2-0.3-0.3-0.7-0.5-0.5c0.4,0,0.3,0.5-0.1,0.4c-0.2,0-0.4-0.3-0.4-0.5
			c0-0.2,0.1-0.5,0.2-0.7c0.1-0.2,0.2-0.4,0.3-0.6c0.5-1.1,2-1.7,3.4-1.8c0.1,0,0.3,0,0.5,0c-1,0.1-2,0.4-2.5,1.1
			c-0.3,0.4-0.2,1.1,0.2,1.4c0.2,0.2,0.6,0.4,1,0.3c0.3,0,0.6-0.2,0.6-0.4c0-0.2-0.5-0.5-0.6-0.2c0.2-0.2,0.4,0,0.4,0.2
			c0,0.2-0.3,0.3-0.5,0.3c-0.5,0-1.1-0.5-0.9-1c0.3-0.8,1.4-1,2.5-1.1c0.6-0.1,1.1-0.1,1.6-0.2c0.5-0.1,1.1-0.1,1.6-0.2
			c0.3,0.7,0.2,1.6-0.1,2.2c-0.2,0.3-0.5,0.7-0.9,0.7c-0.3,0-0.5-0.3-0.5-0.6c0-0.1,0.1-0.2,0.2-0.2c0.2,0,0.2,0.1,0.3,0.1
			c0-0.3-0.4-0.3-0.6-0.1c-0.3,0.5,0.1,1.1,0.7,1c0.7-0.1,1-0.9,1.3-1.4c0.2,0.2,0.4,0.3,0.7,0.3c0.4,0,0.7-0.2,0.7-0.5
			c0-0.2-0.3-0.5-0.4-0.4c-0.1,0.1-0.1,0.2,0.1,0.2c0.1,0,0-0.1,0.1-0.1c0.1,0,0.2,0.2,0.1,0.3c-0.1,0.2-0.5,0.2-0.7,0.1
			c-0.5-0.3-0.5-1.2-0.5-1.9c0.5-0.1,1-0.4,1.4-0.5c-0.2,0.9,1.2,0.9,1.1,0.1c0-0.2-0.4-0.2-0.4,0c0.4,0,0,0.5-0.2,0.5
			c-0.3,0-0.3-0.5-0.2-0.7c0.1-0.3,0.4-0.5,0.7-0.8c0.3-0.3,0.6-0.6,0.8-0.8c0.1-0.1,0.4-0.1,0.6-0.1c0.8,0.8,1,2.4,1.1,3.8
			c-0.6-0.1-1-0.3-1.4-0.7c-0.2-0.3-0.7-0.9-0.7-1.5c0-0.3,0.4-0.5,0.8-0.4c0.2,0.1,0.3,0.5-0.1,0.5c0.2,0.3,0.5-0.1,0.4-0.3
			c0-0.5-0.8-0.6-1.1-0.3c-0.2,0.2-0.3,0.6-0.3,1c0.1,0.6,0.5,1,0.7,1.4c-0.6,0-1.2,1.2-0.6,1.6c0.4,0.1,0.7-0.5,0.3-0.4
			c-0.1,0.1,0.1,0,0.1,0.1c0,0.1-0.1,0.1-0.1,0.1c-0.4,0.1-0.3-0.5-0.2-0.6c0.1-0.2,0.5-0.4,0.8-0.3c0.5,0.1,1.1,0.5,1.5,0.6
			c0.3,1.4,0.9,2.5,1.6,3.5c-0.6,0.3-1.4,0.6-2.4,0.6c-1,0-2.1-0.4-1.9-1.4c-0.1,0.2-0.2,0.5-0.2,0.7c-0.3-0.2-0.7-0.8-0.6-1.3
			c0.1-0.3,0.3-0.4,0.7-0.4c-0.1-0.1-0.2-0.1-0.4-0.1c-0.4,0.1-0.7,0.5-0.7,0.9c0.1,0.9,1.1,1.4,1.6,1.8c-0.6,0.1-1,0.4-1.8,0.4
			c-0.8,0-1.5-0.3-2.2-0.2c-0.3,0-0.6,0.2-0.5,0.5c0,0.1,0.3,0.3,0.4,0.1c-0.4,0-0.3-0.3-0.1-0.3c0.4-0.1,1,0,1,0.3
			c0,0.3-0.4,0.5-0.6,0.6c-0.2,0.2-0.4,0.4-0.7,0.5c-0.2,0.1-0.6,0.1-0.8,0.1c-1.4,0.1-2.8-0.4-3.5-1.2c-0.1-0.2-0.3-0.4-0.4-0.7
			c-0.1-0.3-0.3-0.6-0.3-1c0.1-0.3,0.5-0.3,0.5,0c0,0.2-0.1,0.2-0.1,0.2c0.2,0,0.3-0.2,0.3-0.3c0.1,0,0.1,0,0.2,0
			c0,0.4,0.3,0.6,0.6,0.6c0.3,0,0.7-0.3,1-0.1c-0.2-0.2-0.5-0.8-1-0.8c-0.2,0-0.5,0-0.5,0.3c0.1,0.1,0.3,0.1,0.5,0.1
			c0,0-0.1,0.1,0,0.1c0.1,0.1,0.3,0.1,0.4,0.2c-0.3,0-0.4-0.1-0.7-0.2c0,0,0.1,0.1,0,0.2c0-0.1-0.1-0.2-0.2-0.3
			c-0.1-0.1-0.3-0.1-0.4-0.1c-0.1,0-0.1-0.1-0.2-0.1c-0.5-0.1-0.7,0.3-0.8,0.6c-0.1,0.6,0.3,0.9,0.4,1.2c-0.6-0.4-1.2-0.9-1.7-1.3
			c-0.4-0.3-0.8-0.7-1.5-0.6c-0.8,0.1-0.9,1.2-0.3,1.6c0.1,0.1,0.3,0.2,0.4,0.2c0.2,0,0.2-0.6-0.1-0.5c0,0.1,0.1,0,0.1,0.1
			c0,0,0.1,0.1,0,0.2c-0.1,0.3-0.5-0.1-0.5-0.2c-0.1-0.3-0.1-0.6,0-0.8c0.1-0.2,0.4-0.2,0.7-0.2c0.6,0.1,1.1,0.6,1.5,1
			c0.9,0.8,2.1,1.7,3.1,2.2c-0.1,0.2-0.2,0.3-0.2,0.5c0.1,0.4,0.8,0.5,0.8,0.1c0-0.1-0.1-0.1-0.2-0.2c-0.1,0,0.1,0.1,0,0.2
			c-0.1,0.1-0.4,0.1-0.4,0c-0.1-0.2,0.2-0.5,0.4-0.5c0.2,0,0.4,0.1,0.7,0.2c0.5,0.1,1.1,0.1,1.5,0c-0.2,0.2-0.6,0.4-0.9,0.7
			c-0.3,0.2-0.7,0.6-0.6,1c0,0.4,0.6,0.4,0.8,0.2c-0.2,0-0.5,0.1-0.6-0.1c0-0.2,0.2-0.4,0.3-0.5c0.4-0.4,0.9-0.7,1.3-1.1
			c0.3-0.2,0.6-0.4,1-0.6c0.3-0.2,0.7-0.4,1.2-0.4c-0.3,0.3-0.6,0.7-0.6,1.2c-0.1,0.5,0.1,0.9,0.5,1.1c0.2,0.2,0.7,0.3,1,0.1
			c-0.7,0-1.2-0.5-1.2-1c0-0.3,0.2-0.7,0.3-0.9c0.6-1,2.1-1.6,3.6-1.6c0.2,0,0.4,0,0.5,0.1c0.1,0.1,0.1,0.6,0.1,0.9
			c-0.1,0.6-0.6,1.3-0.8,1.8c-0.1,0.2-0.2,0.4-0.3,0.6c-0.1,0.2-0.6,0.3-0.6-0.1c0.1-0.1,0.2,0.1,0.2,0c0-0.2-0.3-0.2-0.4,0
			c-0.1,0.4,0.4,0.6,0.7,0.4c0.2-0.1,0.3-0.4,0.4-0.6c0.1-0.2,0.2-0.3,0.3-0.5c0.1-0.4,0.3-0.8,0.5-1.1c0.1,0.4,0,1.1,0.3,1.4
			c0.2,0.2,0.6,0.1,0.7-0.1c0-0.2-0.2-0.4-0.4-0.4c0,0,0,0.1,0,0.2c0.1,0.1,0-0.1,0.1-0.1c0.1,0.1,0.1,0.3-0.1,0.3
			c-0.2,0-0.3-0.5-0.3-0.7c0-0.4,0.1-0.6,0.2-1c0.1-0.2,0.1-0.5,0.2-0.7c0.3-0.4,0.9-0.7,1.5-0.8c0.2,0,0.5,0,0.8,0
			c0.3,0.5,0.7,1.1,0.9,1.7c0.1,0.3,0.2,0.5,0.2,0.8c0.1,0.1,0.2,0.2,0.1,0.4c-0.8,0-1.2-0.2-1.7-0.6c-0.3-0.2-0.7-0.7-0.6-1.1
			c0-0.1,0.2-0.4,0.3-0.4c0.2-0.1,0.5,0,0.6,0.1c0.1,0.2,0,0.3-0.2,0.4c0.3,0.2,0.4-0.2,0.3-0.5c-0.1-0.2-0.3-0.3-0.4-0.3
			c-0.5-0.1-0.8,0.4-0.8,0.9c0.1,0.8,0.7,1.2,1.1,1.6c-0.1,0.2-0.3,0.2-0.4,0.4c-0.2,0.3-0.2,1.1,0.2,1.2c0.2,0.1,0.5-0.1,0.5-0.3
			c0-0.1-0.1-0.2-0.2-0.2c0,0.1,0.1,0.2-0.1,0.3c-0.2,0-0.3-0.1-0.3-0.2c-0.1-0.6,0.3-0.9,0.7-0.9c0.4,0,0.8,0.1,1.1,0.2
			c0.5,2.2,0.2,4.3,0.1,5.1c-0.4,1.5-1.1,2.3-1.9,3.4c-1-0.4-2.7-1-5.8-1.3c-1.9-0.2-3.7-0.3-5.5-0.3c-5.6,0-9.5,0.8-12.1,1.4
			c-0.6,0.1-1.1,0.2-1.6,0.3c-4.6-6.2-7.1-13.5-7.1-21.2c0-19.5,15.9-35.4,35.3-35.4S269,17.1,269,36.6c0,8-2.6,15.6-7.6,21.9
			c-1.7,0.1-6.7,0.5-11.7,0.5c-3.1,0-5.7-0.1-7.6-0.4c-0.5,0-3.4-0.4-5.1-0.8c-0.2-0.3-0.3-0.6-0.4-0.9c-0.2-0.6-2.5-7.1,0.5-8.8
			c0.1-0.1,0.4,0,0.6,0c0.3,0,0.5,0,0.8,0.1c1.2,0.2,2.1,0.9,2.4,2c0,0.1,0,0.2,0,0.3c-0.1,0.4-0.7,0.1-0.3-0.1
			c-0.3-0.1-0.2,0.4-0.5,0.3c0-0.3-0.2-0.5-0.5-0.5c-0.3,0-0.5,0.2-0.7,0.2c0.1,0.2,0.4,0.6,0.7,0.6c0.2,0,0.4-0.1,0.4-0.3
			c0.1,0.1,0.2,0,0.3,0.1c0.1,0,0.1,0.1,0.2,0.1c0.2,0,0.3,0,0.4-0.1c0.4-0.3,0.1-1.1-0.1-1.4c0.2,0.1,0.4,0.3,0.6,0.4
			c0.2,0.2,0.4,0.3,0.6,0.5c0.5,0.4,1,0.9,1.8,0.7c0.5-0.3,0.3-1.5-0.4-1.3c-0.1,0.1,0,0.4,0.1,0.4c0-0.1-0.1-0.2,0-0.3
			c0.6,0,0.6,0.9,0.1,1c-0.1,0-0.2,0-0.3,0c-0.4,0-0.8-0.3-1-0.6c-0.3-0.3-0.6-0.5-0.9-0.8c-0.7-0.5-1.2-1-1.9-1.3
			c0.1-0.1,0.2-0.2,0.2-0.3c0-0.3-0.6-0.4-0.7-0.1c0,0.1,0,0.2,0.1,0.2c0-0.1-0.1-0.1,0.1-0.2c0.1,0,0.3,0,0.3,0.1
			c0,0.2-0.2,0.3-0.3,0.4c-0.2,0-0.4-0.1-0.6-0.1c-0.4-0.1-0.7-0.1-1-0.1c0.8-0.4,1.6-0.8,2.5-1.2c1-0.5,1.6-1.4,2.8-1.5
			c0.9-0.1,1.2,0.3,1.7,0.7c0.3,0.2,0.5,0.4,0.7,0.7c0.1,0.2,0.3,0.8,0.1,0.9c-0.1,0-0.2,0-0.2-0.2c0-0.1,0.1,0,0.1-0.1
			c-0.2-0.5-0.6,0.4-0.2,0.6c0.3,0,0.5-0.1,0.6-0.3c0.1,0.1,0.2,0.1,0.2,0.2c-0.3,0.4-0.2,0.9,0.2,1.2c0.3,0.2,0.6,0.2,0.8,0.4
			c0.1,0.1,0.2,0.2,0.2,0.2c0.1-0.8,0-1.8-0.7-1.9c-0.1,0-0.3,0-0.3,0.1c0.1,0.3,0.3,0.4,0.5,0.6c-0.1,0-0.1,0-0.1,0
			c0.1,0.2,0.3,0.3,0.3,0.6c-0.2-0.2-0.3-0.6-0.6-0.8c0,0.1,0,0.2-0.1,0.2c0.1-0.4-0.1-0.7-0.3-0.9c0-0.6-0.4-0.9-0.5-1.4
			c0.6,0.2,0.9,0.6,1.4,0.9c0.1,0.1,0.3,0.1,0.5,0.2c0.2,0.1,0.3,0.2,0.5,0.2c0.3,0.1,0.9-0.3,0.7-0.7c-0.1-0.2-0.6-0.2-0.5,0.1
			c0.1,0.1,0.1-0.1,0.2-0.1c0.1,0.2-0.1,0.4-0.3,0.4c-0.4,0-0.7-0.2-0.9-0.4c-0.6-0.4-1.5-0.9-1.9-1.4c-0.1-0.1-0.4-0.5-0.4-0.7
			c0-0.2,0.4-0.4,0.6-0.5c0.3-0.1,0.6-0.2,0.8-0.3c0.8-0.3,1.3-0.6,2.2-0.5c0.4,0,0.7,0.3,0.9,0.4c0.4,0.2,0.9,0.3,1.5,0.4
			c0.4,0,0.8-0.1,1.2-0.1c0.1,0,0.2,0,0.3,0c0.1,0,0.5,0.3,0.4,0.5c0,0.2-0.4,0.2-0.5,0c-0.1-0.1,0.1-0.1,0-0.2
			c-0.1,0-0.2,0.1-0.2,0.2c0,0.5,0.9,0.4,0.9-0.1c0-0.2-0.1-0.3-0.2-0.5c0.9-0.3,1.6-0.7,2.4-1.1c0.6,0.2,1.2,0.7,1.2,1.5
			c0.1,0.5,0,1.2-0.6,1.1c-0.3-0.1-0.4-0.6,0-0.5c-0.1-0.3-0.5,0-0.5,0.2c0,0.3,0.3,0.5,0.6,0.4c0.7-0.1,0.7-1.3,0.6-1.9
			c0.4,0,0.9-0.3,1-0.6c0.1-0.2,0.1-0.4,0-0.5c-0.2-0.1-0.7,0-0.4,0.2c0.1,0,0-0.2,0.2-0.2c0.3,0,0,0.5-0.1,0.5
			c-0.1,0.1-0.3,0.1-0.5,0.1c-0.5,0-0.8-0.6-1.1-0.8c0.9-0.4,1.5-1.3,2.6-1.4c0.3,0,0.4,0,0.6,0.1c0.5,0.2,0.4,1.2-0.1,1.3
			c-0.4,0.1-0.4-0.3-0.1-0.4c-0.2-0.1-0.4,0.2-0.3,0.4c0.1,0.2,0.4,0.2,0.6,0.1c0.5-0.3,0.7-1.1,0.3-1.6c-0.4-0.4-1.2-0.3-1.7-0.1
			c-0.3,0.1-0.6,0.3-0.9,0.5c-0.7,0.4-1,0.7-1.8,1c0.3-0.3,0.6-0.8,0.5-1.3c0-0.4-0.3-0.7-0.8-0.7c-0.5,0-0.4,0.6,0,0.7
			c0-0.1-0.2-0.1-0.1-0.3c0-0.1,0.2-0.2,0.3-0.2c0.2,0,0.3,0.3,0.3,0.5c0,0.2-0.3,0.6-0.5,0.8c-0.2,0.2-0.4,0.5-0.6,0.7
			c-0.4,0.3-1,0.6-1.4,0.7c-0.8,0.2-1.6,0.1-1.9-0.6c1.1-0.3,1.9-1.3,1.8-2.6c0-0.3-0.1-0.7-0.3-0.8c-0.3-0.2-0.8-0.1-0.8,0.2
			c0,0.1,0.1,0.2,0.3,0.2c0-0.1-0.1-0.1-0.1-0.2c0-0.3,0.4-0.1,0.5,0c0.1,0.2,0.2,0.6,0.2,0.8c0,1-0.8,1.5-1.5,1.9
			c-0.6,0.3-1.4,0.5-2.1,0.5c-0.2,0-0.3,0-0.4,0c-0.5-0.1-0.1-0.5,0-0.7c0.2-0.4,0.6-1.1,1-1.2c0.2,0,0.4,0.1,0.4,0.3
			c0,0.4-0.5,0.2-0.3-0.1c-0.4,0-0.2,0.5,0.2,0.4c0.4-0.1,0.2-0.8-0.2-0.8c-0.4,0-0.8,0.4-1,0.7c-0.3,0.4-0.4,0.8-0.6,1.1
			c-0.2,0.3-0.6,0.3-1.1,0.4c-0.7,0.2-1.2,0.4-1.8,0.6c-0.8,0.3-1.5,0.7-2.2,0.9c0.1-0.1,0.2-0.2,0.2-0.4c0.1-0.1,0.2-0.2,0.3-0.4
			c0.3-0.5,0-1.3-0.5-1.4c-0.4-0.1-0.7,0.5-0.2,0.7c0-0.1-0.1-0.2-0.1-0.3c0-0.1,0.1-0.1,0.2-0.1c0.3,0,0.5,0.5,0.5,0.8
			c0,0.2-0.1,0.4-0.2,0.5c-0.3,0.4-1,0.6-1.5,0.8c-0.6-0.5-1.3-1-1.4-1.9c-0.2-0.9,0.2-1.6,0.5-2.1c0.1-0.2,0.3-0.5,0.5-0.6
			c0.4-0.1,0.5,0.4,0.3,0.5c-0.1,0-0.2,0-0.2,0c0.1,0.3,0.5,0.2,0.6,0c0.1-0.4-0.3-0.6-0.6-0.6c-0.6,0-0.9,0.6-1.1,1
			c0-0.9,0.3-1.8,0.3-2.8c0-0.6-0.3-1.2-0.8-1.3c-0.5-0.1-0.7,0.2-0.9,0.5c0-0.1-0.2-0.1-0.2-0.2c0.1-0.4-0.2-0.7-0.5-0.8
			c-0.3-0.1-0.8,0-1-0.2c0.1,0.5,0.4,1.4,1.1,1.2c0.1,0,0.1-0.1,0.2-0.2c0.1,0.1,0.2,0.2,0.3,0.2c-0.1,0.2-0.2,0.7,0.1,0.8
			c0.2,0,0.4-0.2,0.2-0.4c0.1,0.2-0.1,0.3-0.2,0.3c-0.1,0-0.2-0.3-0.1-0.5c0.1-0.2,0.4-0.5,0.6-0.5c0.5,0,0.7,0.7,0.7,1.2
			c0,0.6-0.2,1.2-0.3,1.8c-0.1,1-0.3,2-0.2,3.1c-0.7-0.4-0.8,0.9-0.3,0.8c0.1,0,0.2-0.1,0.1-0.3c-0.1-0.1-0.1,0.1-0.2,0.1
			c-0.1-0.1-0.2-0.2-0.2-0.4c0.1-0.2,0.4-0.1,0.5,0c0.2,0.1,0.3,0.4,0.5,0.7c0.2,0.5,0.5,0.9,0.2,1.4c-0.4,0.3-0.8,0.7-1.4,1
			c-0.6,0.3-1.3,0.5-1.9,0.3c-0.6-0.2-0.7-0.8-0.8-1.5C235.8,43.8,235.9,42.4,236,41.1"/>
		<polygon class="st2" points="277.2,42.4 277.2,22.9 286.9,22.9 286.9,24.4 279,24.4 279,31.5 286.4,31.5 286.4,33 279,33 
			279,40.9 287.1,40.9 287.1,42.4 		"/>
		<path class="st2" d="M297.5,27.9h-1.7c0-2.6-1.2-3.8-3.5-3.8c-1.1,0-2,0.3-2.7,1c-0.7,0.7-1,1.5-1,2.5c0,1.6,0.8,2.8,2.5,3.5
			c1.5,0.6,3,1.2,4.5,1.7c1.6,0.9,2.5,2.3,2.5,4.2c0,1.8-0.5,3.2-1.6,4.2c-1,1-2.5,1.5-4.3,1.5c-3.8,0-5.7-1.9-5.7-5.8v-0.6h1.7v0.7
			c0,1.3,0.3,2.3,1,3c0.7,0.7,1.6,1.1,2.9,1.1c1.3,0,2.3-0.3,3.1-1c0.8-0.7,1.1-1.6,1.1-3c0-1.6-0.8-2.7-2.5-3.5
			c-1.5-0.6-3-1.2-4.5-1.7c-1.6-0.9-2.4-2.4-2.4-4.3c0-1.5,0.5-2.8,1.4-3.7c1-0.9,2.3-1.4,3.9-1.4C295.8,22.6,297.5,24.4,297.5,27.9
			"/>
		<polygon class="st2" points="302,42.4 302,24.4 296.9,24.4 296.9,22.9 308.7,22.9 308.7,24.4 303.7,24.4 303.7,42.4 		"/>
		<path class="st2" d="M308.4,42.4V22.9h9.6v1.5h-7.9v7.1h7.4V33h-7.4v8h8.1v1.5H308.4z M314.2,18.2h1.9l-2.7,3.8h-1.3L314.2,18.2z"
			/>
		<path class="st2" d="M318.4,42.4V22.9h5.8c1.6,0,2.8,0.4,3.7,1.3c0.9,0.9,1.3,2.1,1.3,3.6c0,2.9-1.2,4.5-3.5,4.9v0.1
			c1.2,0.1,2,0.5,2.5,1.2c0.5,0.7,0.8,1.8,0.8,3.4l0.1,2.1c0,1.3,0.3,2.3,0.8,2.9h-2c-0.3-0.5-0.5-1.4-0.5-2.7l-0.1-1.6
			c-0.1-1.8-0.3-2.9-0.8-3.5c-0.5-0.7-1.6-1-3.1-1h-3.3v8.9H318.4z M320.2,24.4V32h3c2.9,0,4.4-1.3,4.4-3.8c0-2.5-1.4-3.8-4.2-3.8
			H320.2z"/>
		<polygon class="st2" points="330,42.4 330,22.9 339.6,22.9 339.6,24.4 331.7,24.4 331.7,31.5 339.1,31.5 339.1,33 331.7,33 
			331.7,40.9 339.9,40.9 339.9,42.4 		"/>
		<path class="st2" d="M339.9,32.7c0-6.7,2.1-10.1,6.2-10.1c4.1,0,6.2,3.4,6.2,10.1c0,6.7-2.1,10.1-6.2,10.1
			C342,42.7,339.9,39.4,339.9,32.7 M341.6,32.7c0,5.7,1.5,8.6,4.5,8.6c3,0,4.5-2.9,4.5-8.6c0-5.7-1.5-8.6-4.5-8.6
			C343.1,24.1,341.6,26.9,341.6,32.7"/>
		<path class="st2" d="M358,21.9h7.8c1.6,0,2.8,0.6,3.6,1.7c0.8,1.1,1.1,2.4,1.1,3.9v0.2c0,4.1-2,6.2-5.9,6.2h-2.8v8.6H358V21.9z
			 M361.8,24.9v5.9h2.3c1.7,0,2.6-1.2,2.6-3.5c0-0.8-0.1-1.4-0.4-1.8c-0.3-0.4-0.9-0.6-1.9-0.6H361.8z"/>
		<rect x="371.1" y="21.9" class="st2" width="3.8" height="20.5"/>
		<path class="st2" d="M384.8,28.3c-0.1-2.4-0.7-3.6-1.9-3.8c-0.1,0-0.2,0-0.3,0c-1.6,0-2.4,1.3-2.4,3.8v7c0,1.5,0.2,2.7,0.6,3.4
			c0.4,0.7,1,1.1,1.8,1.1c0.9,0,1.5-0.4,1.8-1.1c0.3-0.7,0.4-1.9,0.4-3.6h3.8c-0.1,1.4-0.2,2.6-0.3,3.6c-0.2,1-0.7,1.9-1.5,2.9
			c-0.8,0.9-2.1,1.4-3.9,1.4h-0.2c-1.6,0-2.9-0.3-3.8-0.8c-1-0.6-1.7-1.5-2.1-2.7c-0.4-1.2-0.6-2.9-0.6-5v-3.5
			c0-2.3,0.2-4.2,0.6-5.5c0.4-1.3,1-2.3,1.9-2.9c0.9-0.6,2.2-0.9,3.8-1h0.3c2.1,0,3.6,0.6,4.4,1.7c0.9,1.2,1.3,2.9,1.3,5.1H384.8z"
			/>
		<path class="st2" d="M389.7,21.9h4l3.9,9.9l1.9,6c-0.3-3.3-0.4-5.6-0.5-7c-0.1-1.4-0.1-2.8-0.1-4.3v-4.6h3.8v20.5h-4l-4.1-10
			l-1.7-5.5c0.1,2,0.3,3.9,0.4,5.8c0.1,1.9,0.2,3.4,0.2,4.5v5.2h-3.8V21.9z"/>
		<rect x="404.3" y="21.9" class="st2" width="3.8" height="20.5"/>
		<path class="st2" d="M418,28.3c-0.1-2.4-0.7-3.6-1.9-3.8c-0.1,0-0.2,0-0.3,0c-1.6,0-2.4,1.3-2.4,3.8v7c0,1.5,0.2,2.7,0.6,3.4
			c0.4,0.7,1,1.1,1.8,1.1c0.9,0,1.5-0.4,1.8-1.1c0.3-0.7,0.4-1.9,0.4-3.6h3.8c-0.1,1.4-0.2,2.6-0.3,3.6c-0.2,1-0.7,1.9-1.5,2.9
			c-0.8,0.9-2.1,1.4-3.9,1.4H416c-1.6,0-2.9-0.3-3.8-0.8c-1-0.6-1.7-1.5-2.1-2.7c-0.4-1.2-0.6-2.9-0.6-5v-3.5c0-2.3,0.2-4.2,0.6-5.5
			c0.4-1.3,1-2.3,1.9-2.9c0.9-0.6,2.2-0.9,3.8-1h0.3c2.1,0,3.6,0.6,4.4,1.7c0.9,1.2,1.3,2.9,1.3,5.1H418z"/>
		<polygon class="st2" points="277.2,13.6 280.7,13.6 280.7,14.5 278.4,14.5 278.4,16.2 280.5,16.2 280.5,17.2 278.4,17.2 
			278.4,20.1 277.2,20.1 		"/>
		<polygon class="st2" points="281.5,13.6 284.9,13.6 284.9,14.5 282.7,14.5 282.7,16.2 284.7,16.2 284.7,17.1 282.7,17.1 
			282.7,19.2 284.9,19.2 284.9,20.1 281.5,20.1 		"/>
		<path class="st2" d="M288.4,15.6c0-0.8-0.2-1.2-0.7-1.2c-0.2,0-0.3,0.1-0.5,0.2c-0.1,0.1-0.2,0.3-0.2,0.5c0,0.3,0.2,0.6,0.4,0.8
			c0.3,0.2,0.7,0.4,1,0.7c0.3,0.2,0.6,0.5,0.9,0.7c0.2,0.3,0.4,0.5,0.4,0.8c0,0.1,0,0.3,0,0.4c0,0.5-0.1,0.9-0.4,1.2
			c-0.3,0.4-0.8,0.6-1.3,0.6h-0.2c-0.6,0-1.1-0.1-1.5-0.4c-0.4-0.3-0.6-0.8-0.6-1.6c0-0.2,0-0.3,0-0.4h1.2v0.1c0,0,0,0.1,0,0.1
			c0,0.1,0,0.1,0,0.2c0,0.7,0.3,1.1,0.8,1.1c0.1,0,0.3,0,0.4-0.1c0.1,0,0.2-0.1,0.3-0.3c0.1-0.1,0.1-0.3,0.1-0.4
			c0-0.4-0.2-0.7-0.6-1c-0.3-0.2-0.6-0.4-0.8-0.6c-0.3-0.2-0.5-0.4-0.7-0.5c-0.2-0.2-0.3-0.4-0.5-0.6c-0.1-0.2-0.2-0.5-0.2-0.7V15
			c0.1-1,0.6-1.5,1.7-1.6h0.1c1.3,0,1.9,0.6,1.9,1.9v0.2H288.4z"/>
		<polygon class="st2" points="294.3,14.5 292.9,14.5 292.9,20.1 291.7,20.1 291.7,14.5 290.3,14.5 290.3,13.6 294.3,13.6 		"/>
		<rect x="295.1" y="13.6" class="st2" width="1.2" height="6.5"/>
		<polygon class="st2" points="299.4,19.5 299.5,18.4 300.2,13.6 301.6,13.6 300.2,20.1 298.5,20.1 297.1,13.6 298.4,13.6 
			299.3,18.4 		"/>
		<path class="st2" d="M303.1,13.6h1.7l1.5,6.5h-1.3l-0.3-1.6h-1.4l-0.3,1.6h-1.3L303.1,13.6z M304.4,17.5l-0.4-2.2l-0.1-1h0l-0.1,1
			l-0.4,2.2H304.4z"/>
		<polygon class="st2" points="306.9,13.6 308.1,13.6 308.1,19.2 310.3,19.2 310.3,20.1 306.9,20.1 		"/>
		<g class="st3">
			<text transform="matrix(1 0 0 1 276.5059 53.3103)" class="st4 st5 st6">23, 24 &amp; 25 DE MARZO. 2017</text>
		</g>
	</g>
	<g class="st1">
		<defs>
			<path id="SVGID_5_" d="M9.2,46c-0.1,0-0.1-0.1-0.2-0.1C9.1,45.9,9.1,46,9.2,46 M9,45.9c-0.1-0.1-0.2-0.2-0.2-0.3c0,0,0,0,0,0
				C8.9,45.7,8.9,45.8,9,45.9 M147.9,17.7c0-0.1-0.1-0.3-0.1-0.4C147.9,17.4,147.9,17.6,147.9,17.7 M147.8,17.3
				C147.8,17.3,147.8,17.3,147.8,17.3S147.8,17.3,147.8,17.3 M147.8,17.3C147.8,17.3,147.8,17.3,147.8,17.3
				C147.8,17.3,147.8,17.3,147.8,17.3 M10.1,16.4c-0.9,0-1.6,0.7-1.6,1.6v26.8c0,0.3,0.1,0.6,0.3,0.9c0.3,0.2,0.6,0.3,0.9,0.3h136.5
				c0.9,0,1.4-0.6,1.4-1.4V17.5c0-0.3-0.1-0.6-0.3-0.9c0.2,0.2,0.4,0.4,0.6,0.7c-0.2-0.6-0.8-0.9-1.4-0.9H10.1z"/>
		</defs>
		<clipPath id="SVGID_6_">
			<use xlink:href="#SVGID_5_"  style="overflow:visible;"/>
		</clipPath>
		
			<linearGradient id="SVGID_7_" gradientUnits="userSpaceOnUse" x1="-9.649323e-006" y1="64.1267" x2="1" y2="64.1267" gradientTransform="matrix(0 29.65 29.65 0 -1823.1207 16.365)">
			<stop  offset="0" style="stop-color:#E82429"/>
			<stop  offset="0.7266" style="stop-color:#E82429"/>
			<stop  offset="0.7643" style="stop-color:#DF2227"/>
			<stop  offset="0.8249" style="stop-color:#C81E22"/>
			<stop  offset="0.9007" style="stop-color:#A2181A"/>
			<stop  offset="0.988" style="stop-color:#6D0E0F"/>
			<stop  offset="1" style="stop-color:#650D0D"/>
		</linearGradient>
		<rect x="8.5" y="16.4" class="st7" width="139.4" height="29.7"/>
	</g>
	<g class="st1">
		<defs>
			<path id="SVGID_8_" d="M8.5,45.6C8.5,45.7,8.5,45.7,8.5,45.6 M9.8,16.4c-0.9,0-1.6,0.7-1.6,1.6v26.8c0,0.4,0.2,0.8,0.3,0.9
				c0,0,0,0,0,0c0,0,0,0,0,0c0,0,0,0,0,0c0.3,0.2,0.6,0.3,0.9,0.3h33.3c4.2-4.3,6.7-10.1,6.7-16.5c0-5.2-2.3-9.6-6-13H9.8z"/>
		</defs>
		<clipPath id="SVGID_9_">
			<use xlink:href="#SVGID_8_"  style="overflow:visible;"/>
		</clipPath>
		
			<linearGradient id="SVGID_10_" gradientUnits="userSpaceOnUse" x1="-1.500422e-004" y1="63.9792" x2="0.9998" y2="63.9792" gradientTransform="matrix(0 -27.8013 -27.8013 0 1807.4736 45.8925)">
			<stop  offset="0" style="stop-color:#000025"/>
			<stop  offset="0.2379" style="stop-color:#001D53"/>
			<stop  offset="0.4248" style="stop-color:#003071"/>
			<stop  offset="0.5307" style="stop-color:#00377C"/>
			<stop  offset="0.547" style="stop-color:#00387E"/>
			<stop  offset="0.8303" style="stop-color:#024897"/>
			<stop  offset="1" style="stop-color:#034EA1"/>
		</linearGradient>
		<rect x="8.2" y="16.4" class="st8" width="41.1" height="29.5"/>
	</g>
	<g class="st1">
		<defs>
			<path id="SVGID_11_" d="M9.5,17c0,3.9,3.2,7.1,7.1,7.1h122.6c3.9,0,7.1-3.2,7.1-7.1H9.5z"/>
		</defs>
		<clipPath id="SVGID_12_">
			<use xlink:href="#SVGID_11_"  style="overflow:visible;"/>
		</clipPath>
		<defs>
			<filter id="Adobe_OpacityMaskFilter" filterUnits="userSpaceOnUse" x="9.5" y="17" width="136.8" height="7.1">
				<feColorMatrix  type="matrix" values="1 0 0 0 0  0 1 0 0 0  0 0 1 0 0  0 0 0 1 0"/>
			</filter>
		</defs>
		<mask maskUnits="userSpaceOnUse" x="9.5" y="17" width="136.8" height="7.1" id="SVGID_13_">
			<g class="st9">
				
					<linearGradient id="SVGID_14_" gradientUnits="userSpaceOnUse" x1="8.876710e-005" y1="64.1267" x2="1" y2="64.1267" gradientTransform="matrix(0 7.0907 7.0907 0 -376.7716 17.0141)">
					<stop  offset="0" style="stop-color:#FFFFFF"/>
					<stop  offset="0.122" style="stop-color:#D7D7D7"/>
					<stop  offset="0.3669" style="stop-color:#8B8B8B"/>
					<stop  offset="0.586" style="stop-color:#505050"/>
					<stop  offset="0.7711" style="stop-color:#242424"/>
					<stop  offset="0.9149" style="stop-color:#0A0A0A"/>
					<stop  offset="1" style="stop-color:#000000"/>
				</linearGradient>
				<rect x="9.5" y="17" class="st10" width="136.8" height="7.1"/>
			</g>
		</mask>
		
			<linearGradient id="SVGID_15_" gradientUnits="userSpaceOnUse" x1="8.876710e-005" y1="64.1267" x2="1" y2="64.1267" gradientTransform="matrix(0 7.0907 7.0907 0 -376.7716 17.0141)">
			<stop  offset="0" style="stop-color:#FFFFFF"/>
			<stop  offset="1" style="stop-color:#FFFFFF"/>
		</linearGradient>
		<rect x="9.5" y="17" class="st11" width="136.8" height="7.1"/>
	</g>
	<g class="st1">
		<defs>
			<rect id="SVGID_16_" y="0" width="422.6" height="64.1"/>
		</defs>
		<clipPath id="SVGID_17_">
			<use xlink:href="#SVGID_16_"  style="overflow:visible;"/>
		</clipPath>
		<path class="st12" d="M147.6,17.5v26.9c0,0.9-0.5,1.4-1.4,1.4H9.7c-0.3,0-0.6-0.1-0.9-0.3c0.1,0.2,0.3,0.3,0.5,0.4
			c0.2,0.2,0.5,0.2,0.8,0.2l136.3,0c0.9,0,1.6-0.7,1.6-1.6V17.9v0v0c0-0.5-0.3-1-0.7-1.2C147.5,16.9,147.6,17.2,147.6,17.5"/>
		<path class="st13" d="M42.6,45.9h-33c-0.3,0-0.6-0.1-0.9-0.3c0.1,0.2,0.3,0.3,0.5,0.4c0.2,0.2,0.5,0.2,0.8,0.2h32.2
			C42.4,46.2,42.5,46,42.6,45.9"/>
		<path class="st14" d="M16.8,25.8c0.2-0.3,0.6-0.5,0.9-0.5H18V27h2.5v0.8c0,0.4-0.3,0.9-1.1,0.9H18v2.9c0,0.9,0.4,1.3,1.2,1.3
			c0.6,0,1-0.1,1.3-0.3h0.1v0.7c0,0.7-0.5,1.2-1.6,1.2c-1.9,0-2.7-1-2.7-2.7v-4.4C16.2,26.6,16.4,26.3,16.8,25.8 M22.8,26.5
			c0.6,0,1.1-0.5,1.1-1.1c0-0.6-0.5-1.1-1.1-1.1c-0.6,0-1.1,0.5-1.1,1.1C21.7,26,22.2,26.5,22.8,26.5 M24.1,34.4
			c0.8,0,1.1-0.3,1.1-1.1v-0.4h-0.3c-0.8,0-1.1-0.2-1.1-1v-3.4c0-0.9-0.5-1.4-1.3-1.4h-0.5v5C21.9,33.6,22.7,34.4,24.1,34.4
			 M38.5,30.8c0-1.5-0.5-2.3-1.7-2.3c-1,0-1.6,0.9-1.6,2.1c0,1.5,0.5,2.3,1.7,2.3C38,32.9,38.5,32,38.5,30.8 M33.3,30.8
			c0-2.2,1.3-4,3.6-4c2.2,0,3.5,1.8,3.5,3.7c0,2.2-1.3,4-3.6,4C34.5,34.5,33.3,32.7,33.3,30.8 M33.6,26L33.6,26
			c0.6-0.8,1.8-1.5,3.4-1.5c1.5,0,2.5,0.7,3.2,1.6h0v-0.8c0-0.2-0.1-0.6-0.3-0.8c-0.6-0.8-1.7-1.4-3.1-1.4c-1.4,0-2.6,0.8-3,1.4
			c-0.1,0.2-0.2,0.6-0.2,0.8V26z M37.6,35.8L37.6,35.8c-0.9,1.4-2.7,2.6-5.1,2.6c-2.2,0-3.7-1.2-4.8-2.6h-0.1v0.9
			c0,0.4,0.2,1,0.4,1.4c0.8,1.2,2.6,2.3,4.6,2.3c2.1,0,3.9-1.3,4.5-2.4c0.2-0.4,0.4-0.9,0.4-1.3V35.8z M31.5,30.8h-1l0,0.2
			c0,0,0.1,0.5,0.1,1v0.6c0,0.3-0.1,0.6-0.8,0.6c-1.1,0-2.3-0.4-2.3-2.4c0-1.3,1-2.2,2.3-2.2c0.9,0,1.7,0.2,2.1,0.6l0,0h0.2v-0.6
			c0-0.8-0.7-1.6-2.2-1.6c-2.6,0-4.4,1.7-4.4,4c0,2.5,2,3.8,4,3.8c1.8,0,2.7-0.6,2.7-2v-1.2C32.5,31.2,32,30.8,31.5,30.8"/>
		<path class="st14" d="M73.2,23.4c3.5,0,6.1,2.1,6.1,6.7v7.5c0,1-0.9,1.7-1.7,1.7c-0.8,0-1.6-0.7-1.6-1.7v-7.4
			c0-2.5-1.1-3.6-2.8-3.6c-1.8,0-2.6,1-2.6,3.5v0v7.5c0,1-0.9,1.7-1.7,1.7c-0.8,0-1.7-0.7-1.7-1.7v-7.4v0c0-2.5-0.8-3.6-2.6-3.6
			c-1.8,0-2.8,1-2.8,3.5v7.5c0,1-0.9,1.7-1.7,1.7c-0.8,0-1.7-0.7-1.7-1.7v-7.4c0-4.7,2.8-6.8,6.3-6.8c1.8,0,3.2,0.6,4.3,1.7
			C69.9,24,71.4,23.4,73.2,23.4"/>
		<path class="st14" d="M98.1,37.4c1.7,1.2,3.8,1.9,5.8,1.9c3.3,0,5.7-1.7,5.7-4.8v0c0-2.7-1.8-3.8-4.9-4.6c-2.7-0.7-3.3-1-3.3-2v0
			c0-0.8,0.7-1.4,2-1.4c1.1,0,2.1,0.4,3.3,1c0.3,0.2,0.5,0.2,0.9,0.2c0.9,0,1.6-0.7,1.6-1.6c0-0.7-0.4-1.1-0.8-1.3
			c-1.4-0.9-3-1.4-4.9-1.4c-3.2,0-5.4,1.9-5.4,4.7v0c0,3.1,2,3.9,5.1,4.7c2.6,0.7,3.1,1.1,3.1,2v0c0,0.9-0.8,1.5-2.2,1.5
			c-1.5,0-2.8-0.5-4-1.4c-0.2-0.2-0.5-0.3-1-0.3c-0.9,0-1.6,0.7-1.6,1.6C97.4,36.6,97.7,37.1,98.1,37.4"/>
		<path class="st14" d="M112,25.1v12.4c0,1,0.8,1.7,1.7,1.7c1,0,1.7-0.8,1.7-1.7V25.1c0-0.9-0.7-1.7-1.7-1.7
			C112.8,23.4,112,24.1,112,25.1"/>
		<path class="st14" d="M118,31.3c0,4.4,3.4,8,7.9,8c2.5,0,4.1-0.7,5.5-1.9c0.3-0.3,0.6-0.7,0.6-1.2c0-0.9-0.7-1.6-1.6-1.6
			c-0.4,0-0.8,0.2-1,0.4c-1,0.8-1.9,1.2-3.4,1.2c-2.7,0-4.5-2.2-4.5-4.9v0c0-2.7,1.9-4.8,4.5-4.8c1.2,0,2.2,0.4,3.2,1.1
			c0.2,0.2,0.6,0.3,1,0.3c0.9,0,1.7-0.7,1.7-1.7c0-0.6-0.3-1.1-0.7-1.4c-1.3-0.9-2.9-1.6-5.2-1.6C121.3,23.3,118,26.9,118,31.3
			L118,31.3"/>
		<path class="st14" d="M129.2,31.2c0-1.5-1.2-2.6-2.7-2.6c-1.5,0-2.7,1.2-2.7,2.6c0,1.5,1.2,2.7,2.7,2.7
			C128,33.9,129.2,32.7,129.2,31.2"/>
		<path class="st14" d="M134.9,31.2c0-0.9-0.8-1.7-1.7-1.7c-0.9,0-1.7,0.8-1.7,1.7c0,0.9,0.8,1.7,1.7,1.7
			C134.1,32.9,134.9,32.2,134.9,31.2"/>
		<path class="st14" d="M139.4,31.2c0-0.6-0.5-1.1-1.1-1.1c-0.6,0-1.1,0.5-1.1,1.1c0,0.6,0.5,1.1,1.1,1.1
			C138.9,32.3,139.4,31.8,139.4,31.2"/>
		<path class="st14" d="M82,32.4c0,4.6,2.5,6.9,6.7,6.9c4.2,0,6.8-2.3,6.8-7v-7.2c0-1-0.8-1.7-1.7-1.7c-1,0-1.7,0.8-1.7,1.7v7.3
			c0,2.5-1.3,3.7-3.3,3.7c-2.1,0-3.3-1.3-3.3-3.8v-7.2c0-1-0.8-1.7-1.7-1.7c-1,0-1.7,0.8-1.7,1.7V32.4"/>
		<path class="st14" d="M82,32.4c0,4.6,2.5,6.9,6.7,6.9c4.2,0,6.8-2.3,6.8-7v-7.2c0-1-0.8-1.7-1.7-1.7c-1,0-1.7,0.8-1.7,1.7v7.3
			c0,2.5-1.3,3.7-3.3,3.7c-2.1,0-3.3-1.3-3.3-3.8v-7.2c0-1-0.8-1.7-1.7-1.7c-1,0-1.7,0.8-1.7,1.7V32.4"/>
	</g>
	<g class="st1">
		<text transform="matrix(1 0 0 1 97.2769 56.3337)"><tspan x="0" y="0" class="st4 st15 st16 st17">PR</tspan><tspan x="13.5" y="0" class="st4 st15 st16 st17">E</tspan><tspan x="20" y="0" class="st4 st15 st16 st17">S</tspan><tspan x="26.3" y="0" class="st4 st15 st16 st17">E</tspan><tspan x="32.8" y="0" class="st4 st15 st16 st17">N</tspan><tspan x="40.2" y="0" class="st4 st15 st16 st17">T</tspan><tspan x="45.8" y="0" class="st4 st15 st16">A</tspan></text>
	</g>
</g>
</svg>
