<?xml version="1.0" encoding="utf-8"?>
<!-- Generator: Adobe Illustrator 19.0.0, SVG Export Plug-In . SVG Version: 6.00 Build 0)  -->
<svg version="1.1" id="Layer_1" xmlns="http://www.w3.org/2000/svg" xmlns:xlink="http://www.w3.org/1999/xlink" x="0px" y="0px"
	 width="36.6px" height="32.7px" viewBox="0 0 36.6 32.7" style="enable-background:new 0 0 36.6 32.7;" xml:space="preserve">
<style type="text/css">
	.Drop_x0020_Shadow{fill:none;}
	.Outer_x0020_Glow_x0020_5_x0020_pt{fill:none;}
	.Blue_x0020_Neon{fill:none;stroke:#8AACDA;stroke-width:7;stroke-linecap:round;stroke-linejoin:round;}
	.Chrome_x0020_Highlight{fill:url(#SVGID_1_);stroke:#FFFFFF;stroke-width:0.3629;stroke-miterlimit:1;}
	.Jive_GS{fill:#FFDD00;}
	.Alyssa_GS{fill:#A6D0E4;}
	.st0{fill:#FFFFFF;}
</style>
<linearGradient id="SVGID_1_" gradientUnits="userSpaceOnUse" x1="-462.4602" y1="-263.0167" x2="-462.4602" y2="-264.0167">
	<stop  offset="0" style="stop-color:#656565"/>
	<stop  offset="0.618" style="stop-color:#1B1B1B"/>
	<stop  offset="0.6292" style="stop-color:#545454"/>
	<stop  offset="0.9831" style="stop-color:#3E3E3E"/>
</linearGradient>
<g id="XMLID_49_">
	<path id="XMLID_50_" class="st0" d="M28,20.8c-1.9,0-3.5,0.9-4.6,2.2l-10-5.1c0.1-0.5,0.2-1,0.2-1.5c0-0.6-0.1-1.1-0.3-1.6l9.9-5.1
		c1.1,1.4,2.8,2.3,4.7,2.3c3.2,0,5.9-2.6,5.9-5.9c0-3.2-2.6-5.9-5.9-5.9c-3.2,0-5.9,2.6-5.9,5.9c0,0.5,0.1,1,0.2,1.5l-9.9,5.1
		c-1.1-1.4-2.7-2.2-4.6-2.2c-3.2,0-5.9,2.6-5.9,5.9c0,3.2,2.6,5.9,5.9,5.9c1.9,0,3.6-0.9,4.7-2.4l9.9,5.1c-0.2,0.5-0.3,1.1-0.3,1.6
		c0,3.2,2.6,5.9,5.9,5.9c3.2,0,5.9-2.6,5.9-5.9C33.9,23.4,31.2,20.8,28,20.8L28,20.8z M28,20.8"/>
</g>
</svg>
