<?xml version="1.0" encoding="utf-8"?>
<!-- Generator: Adobe Illustrator 19.0.0, SVG Export Plug-In . SVG Version: 6.00 Build 0)  -->
<svg version="1.1" id="Layer_1" xmlns="http://www.w3.org/2000/svg" xmlns:xlink="http://www.w3.org/1999/xlink" x="0px" y="0px"
	 width="36.6px" height="32.7px" viewBox="0 0 36.6 32.7" style="enable-background:new 0 0 36.6 32.7;" xml:space="preserve">
<style type="text/css">
	.Drop_x0020_Shadow{fill:none;}
	.Outer_x0020_Glow_x0020_5_x0020_pt{fill:none;}
	.Blue_x0020_Neon{fill:none;stroke:#8AACDA;stroke-width:7;stroke-linecap:round;stroke-linejoin:round;}
	.Chrome_x0020_Highlight{fill:url(#SVGID_1_);stroke:#FFFFFF;stroke-width:0.3629;stroke-miterlimit:1;}
	.Jive_GS{fill:#FFDD00;}
	.Alyssa_GS{fill:#A6D0E4;}
	.st0{fill:#FFFFFF;}
</style>
<linearGradient id="SVGID_1_" gradientUnits="userSpaceOnUse" x1="-462.4602" y1="-263.0167" x2="-462.4602" y2="-264.0167">
	<stop  offset="0" style="stop-color:#656565"/>
	<stop  offset="0.618" style="stop-color:#1B1B1B"/>
	<stop  offset="0.6292" style="stop-color:#545454"/>
	<stop  offset="0.9831" style="stop-color:#3E3E3E"/>
</linearGradient>
<g id="XMLID_51_">
	<path id="XMLID_55_" class="st0" d="M36.2,10.8L25.8,0.4C25.5,0.1,25.2,0,24.8,0c-0.4,0-0.7,0.1-0.9,0.4c-0.3,0.3-0.4,0.6-0.4,0.9
		v5.2H19c-9.7,0-15.7,2.7-17.9,8.2C0.4,16.6,0,18.9,0,21.6c0,2.3,0.9,5.3,2.6,9.2c0,0.1,0.1,0.3,0.2,0.5c0.1,0.2,0.2,0.4,0.3,0.6
		c0.1,0.2,0.2,0.3,0.3,0.4c0.2,0.2,0.4,0.3,0.6,0.3c0.2,0,0.4-0.1,0.5-0.2c0.1-0.1,0.2-0.3,0.2-0.5c0-0.1,0-0.3-0.1-0.5
		c0-0.2-0.1-0.4-0.1-0.5c-0.1-0.9-0.1-1.8-0.1-2.5c0-1.4,0.1-2.6,0.4-3.7c0.2-1.1,0.6-2,1-2.8c0.4-0.8,1-1.5,1.6-2.1
		c0.7-0.6,1.4-1.1,2.2-1.4c0.8-0.4,1.7-0.7,2.7-0.9c1-0.2,2.1-0.4,3.1-0.4C16.4,17,17.6,17,19,17h4.6v5.2c0,0.4,0.1,0.7,0.4,0.9
		c0.3,0.3,0.6,0.4,0.9,0.4c0.4,0,0.7-0.1,0.9-0.4l10.5-10.5c0.3-0.3,0.4-0.6,0.4-0.9C36.6,11.4,36.5,11.1,36.2,10.8L36.2,10.8z
		 M36.2,10.8"/>
</g>
</svg>
