<?xml version="1.0" encoding="utf-8"?>
<!-- Generator: Adobe Illustrator 19.0.0, SVG Export Plug-In . SVG Version: 6.00 Build 0)  -->
<svg version="1.1" id="Layer_1" xmlns="http://www.w3.org/2000/svg" xmlns:xlink="http://www.w3.org/1999/xlink" x="0px" y="0px"
	 width="66.6px" height="54px" viewBox="-446 254 66.6 54" style="enable-background:new -446 254 66.6 54;" xml:space="preserve">
<style type="text/css">
	.st0{fill:#FFFFFF;}
</style>
<g id="XMLID_55_">
	<path id="XMLID_111_" class="st0" d="M-394.4,279.6l8.1-8.1c0.4-0.4,0.4-1.1,0-1.6c-0.4-0.4-1.1-0.4-1.6,0l-8.1,8.1l-8.1-8.1
		c-0.4-0.4-1.1-0.4-1.6,0c-0.4,0.4-0.4,1.1,0,1.6l8.1,8.1l-8.1,8.1c-0.4,0.4-0.4,1.1,0,1.6c0.2,0.2,0.5,0.3,0.8,0.3
		c0.3,0,0.6-0.1,0.8-0.3l8.1-8.1l8.1,8.1c0.2,0.2,0.5,0.3,0.8,0.3c0.3,0,0.6-0.1,0.8-0.3c0.4-0.4,0.4-1.1,0-1.6L-394.4,279.6z"/>
	<path id="XMLID_102_" class="st0" d="M-416.1,255.2c-0.6,0-1.2,0.2-1.8,0.5c-0.1,0-0.1,0.1-0.1,0.1l-15,12.7h-11.9
		c-0.6,0-1.1,0.5-1.1,1.1v21.1c0,0.6,0.5,1.1,1.1,1.1h11.8l15,13.8c0.1,0.1,0.1,0.1,0.2,0.1c0.5,0.3,1.1,0.5,1.8,0.5
		c1.9,0,3.4-1.6,3.4-3.5v-44C-412.7,256.7-414.2,255.2-416.1,255.2L-416.1,255.2z M-431.6,289.6c0,0.6-0.5,1.1-1.1,1.1
		c-0.6,0-1.1-0.5-1.1-1.1v-4.4c0-0.6,0.5-1.1,1.1-1.1c0.6,0,1.1,0.5,1.1,1.1V289.6z M-431.6,275.2c0,0.6-0.5,1.1-1.1,1.1
		c-0.6,0-1.1-0.5-1.1-1.1v-4.4c0-0.6,0.5-1.1,1.1-1.1c0.6,0,1.1,0.5,1.1,1.1V275.2z"/>
</g>
</svg>
