<?xml version="1.0" encoding="utf-8"?>
<!-- Generator: Adobe Illustrator 19.0.0, SVG Export Plug-In . SVG Version: 6.00 Build 0)  -->
<svg version="1.1" id="Layer_1" xmlns="http://www.w3.org/2000/svg" xmlns:xlink="http://www.w3.org/1999/xlink" x="0px" y="0px"
	 width="66.6px" height="54px" viewBox="-446 254 66.6 54" style="enable-background:new -446 254 66.6 54;" xml:space="preserve">
<style type="text/css">
	.st0{fill:#FFFFFF;}
</style>
<g id="XMLID_54_">
	<path id="XMLID_124_" class="st0" d="M-416.1,255.2c-0.6,0-1.2,0.2-1.8,0.5c-0.1,0-0.1,0.1-0.1,0.1l-15,12.7h-11.9
		c-0.6,0-1.1,0.5-1.1,1.1v21.1c0,0.3,0.1,0.6,0.3,0.8c0.2,0.2,0.5,0.3,0.8,0.3h11.8l15,13.8c0.1,0,0.1,0.1,0.2,0.1
		c0.5,0.3,1.1,0.5,1.8,0.5c1.9,0,3.4-1.6,3.4-3.5v-44C-412.7,256.7-414.2,255.2-416.1,255.2L-416.1,255.2z M-431.6,289.6
		c0,0.6-0.5,1.1-1.1,1.1c-0.6,0-1.1-0.5-1.1-1.1v-4.4c0-0.6,0.5-1.1,1.1-1.1c0.6,0,1.1,0.5,1.1,1.1V289.6z M-431.6,275.2
		c0,0.6-0.5,1.1-1.1,1.1c-0.6,0-1.1-0.5-1.1-1.1v-4.4c0-0.6,0.5-1.1,1.1-1.1c0.6,0,1.1,0.5,1.1,1.1V275.2z"/>
	<path id="XMLID_118_" class="st0" d="M-388.2,280.2c0-9.3-5.9-17.5-14.7-20.5c-0.6-0.2-1.2,0.1-1.4,0.7c-0.2,0.6,0.1,1.2,0.7,1.4
		c7.9,2.7,13.2,10.1,13.2,18.4c0,8.3-5.3,15.7-13.2,18.4c-0.6,0.2-0.9,0.8-0.7,1.4c0.2,0.5,0.6,0.8,1.1,0.8c0.1,0,0.2,0,0.4-0.1
		C-394.1,297.7-388.2,289.4-388.2,280.2L-388.2,280.2z"/>
	<path id="XMLID_113_" class="st0" d="M-396.6,254.1c-0.6-0.2-1.2,0-1.5,0.6c-0.2,0.6,0,1.2,0.6,1.5c9.7,4.1,15.9,13.5,15.9,24
		c0,10.9-6.5,20.4-16.7,24.3c-0.6,0.2-0.9,0.9-0.6,1.4c0.2,0.4,0.6,0.7,1,0.7c0.1,0,0.3,0,0.4-0.1c11-4.3,18.1-14.6,18.1-26.4
		C-379.4,268.8-386.1,258.5-396.6,254.1L-396.6,254.1z"/>
	<path id="XMLID_103_" class="st0" d="M-398.2,280.2c0-6.6-4.5-12.6-10.8-14.4c-0.6-0.2-1.2,0.2-1.4,0.8c-0.2,0.6,0.2,1.2,0.8,1.4
		c5.4,1.6,9.2,6.6,9.2,12.3c0,5.6-3.8,10.7-9.2,12.3c-0.6,0.2-0.9,0.8-0.8,1.4c0.1,0.5,0.6,0.8,1.1,0.8c0.1,0,0.2,0,0.3,0
		C-402.7,292.7-398.2,286.8-398.2,280.2L-398.2,280.2z"/>
</g>
</svg>
