<?xml version="1.0" encoding="utf-8"?>
<!-- Generator: Adobe Illustrator 19.0.0, SVG Export Plug-In . SVG Version: 6.00 Build 0)  -->
<svg version="1.1" id="Layer_1" xmlns="http://www.w3.org/2000/svg" xmlns:xlink="http://www.w3.org/1999/xlink" x="0px" y="0px"
	 width="1051.5px" height="992.3px" viewBox="0 0 1051.5 992.3" style="enable-background:new 0 0 1051.5 992.3;"
	 xml:space="preserve">
<style type="text/css">
	._x005B_Por_x0020_defecto_x005D_{fill:#FFFFFF;stroke:#000000;stroke-miterlimit:10;}
	.st0{fill:#FFFFFF;}
	.st1{fill:#FEFEFE;}
</style>
<g>
	<g>
		<g>
			<path class="st0" d="M162.9,164.4h2.4c-1.4-9.3-3-24.4-3-36.8V81.3h44.7v152.3h-54.8l-20.7-50.8c-3.5-8.5-6.3-19.3-8.3-27.8h-2.4
				c1.4,9.3,3,24.4,3,36.8v41.8H79V81.3h52.8l22.7,55.2C158,145.1,160.8,155.9,162.9,164.4z"/>
			<path class="st0" d="M302.4,207.9h-30.5l-4.7,25.8h-49.1l38.6-152.3h63l38.6,152.3h-51.2L302.4,207.9z M287.1,171.3
				c2.8,0,5.5,0.2,7.3,0.6l2-1.6c-0.8-2-2-6.7-2.8-11l-2.8-14.8c-1.2-6.3-2-12.4-2.4-19.5h-2.4c-0.6,7.1-1.6,13.2-2.8,19.5
				l-2.6,14.8c-0.8,4.3-2,8.9-2.8,11l2,1.6c1.8-0.4,4.5-0.6,7.3-0.6H287.1z"/>
			<path class="st0" d="M490.2,81.3l-36.2,152.3h-67.8L350.1,81.3h52l15.2,85.7c1.4,8.5,2,12.8,2.8,21.1h2.4
				c0.8-8.3,1.4-12.6,2.8-21.1l14.8-85.7H490.2z"/>
			<path class="st0" d="M550.2,81.3v152.3h-48.7V81.3H550.2z"/>
			<path class="st0" d="M574.5,81.3h66.4c42.2,0,59.5,23.8,59.5,76.2c0,52-17.3,76.2-59.5,76.2h-66.4V81.3z M623.3,124v67h5.1
				c14.4,0,20.3-11.4,20.3-33.5c0-22.1-5.9-33.5-20.3-33.5H623.3z"/>
			<path class="st0" d="M787.8,207.9h-30.5l-4.7,25.8h-49.1l38.6-152.3h63l38.6,152.3h-51.2L787.8,207.9z M772.5,171.3
				c2.8,0,5.5,0.2,7.3,0.6l2-1.6c-0.8-2-2-6.7-2.8-11l-2.8-14.8c-1.2-6.3-2-12.4-2.4-19.5h-2.4c-0.6,7.1-1.6,13.2-2.8,19.5
				l-2.6,14.8c-0.8,4.3-2,8.9-2.8,11l2,1.6c1.8-0.4,4.5-0.6,7.3-0.6H772.5z"/>
			<path class="st0" d="M854.8,81.3h66.4c42.2,0,59.5,23.8,59.5,76.2c0,52-17.3,76.2-59.5,76.2h-66.4V81.3z M903.5,124v67h5.1
				c14.4,0,20.3-11.4,20.3-33.5c0-22.1-5.9-33.5-20.3-33.5H903.5z"/>
		</g>
		<g>
			<path class="st0" d="M87.4,268.9H146l-6.2,23.2h-31.4l-2.5,9.2h26.7l-4.6,17.7h-26.7l-2.4,9.1h32.5l-6.4,23.8H65.1L87.4,268.9z"
				/>
			<path class="st0" d="M193.9,345.4c-6.7,5.3-16.7,8.2-29.1,8.2c-18,0-27-6.6-27-20.8c0-2.1,0.2-4.3,0.6-6.6l27-1.3
				c-0.3,1.3-0.6,2.4-0.6,3.4c0,3,1.9,3.9,4.9,3.9c4.6,0,8-2.9,8-6.4c0-2.5-1.8-3.9-4.5-4.8l-9.8-3c-10-3-15.3-9-15.3-18.5
				c0-8.4,4.4-18.7,13.5-25.1c6.4-4.6,15.5-7.1,25.9-7.1c16.8,0,25.4,6.6,25.4,20.7c0,2.1-0.2,4.3-0.6,6.7l-26.6,1.3
				c0.4-1.7,0.7-2.9,0.7-4c0-2.9-1.7-3.8-4.3-3.8c-4.6,0-7.4,3.3-7.4,6.7c0,2.8,1.5,4.3,3.9,4.9l11.3,2.8
				c10.1,2.4,15.8,9.1,15.8,19.1C205.6,329.6,201.9,339.1,193.9,345.4z"/>
			<path class="st0" d="M262.8,294.4l-15.4,57.5h-27.2l15.4-57.5h-18.5l6.9-25.4h64.2l-6.9,25.4H262.8z"/>
			<path class="st0" d="M297,268.9h58.6l-6.2,23.2H318l-2.5,9.2h26.7l-4.6,17.7h-26.7l-2.4,9.1h32.5l-6.4,23.8h-59.7L297,268.9z
				 M344,255.8l-29.1,7.6l-3.1-9.3l28.4-12.7L344,255.8z"/>
			<path class="st0" d="M379.6,326.4l-6.9,25.6h-27.2l22.2-83h37.3c15.4,0,23.3,6.2,23.3,17c0,7.4-2.8,15.8-8.4,21.4
				c-4.5,4.4-11,6.5-18.9,6.7l-0.4,1.3l2.1,0.3c7.5,1.2,11,6.3,11.8,16.9l1.5,19.2h-28.3l-1.1-19.9c-0.2-4.3-2-5.6-6.7-5.6H379.6z
				 M389.9,288.1l-5.4,19.9h3.4c6.9,0,11.4-7.4,11.4-14.4c0-3.9-1.7-5.5-5.6-5.5H389.9z"/>
			<path class="st0" d="M444.5,268.9h58.6l-6.2,23.2h-31.4l-2.5,9.2h26.7l-4.6,17.7h-26.7l-2.4,9.1h32.5l-6.4,23.8h-59.7
				L444.5,268.9z"/>
			<path class="st0" d="M569.2,315.4c-7.5,27.1-19.9,38.2-43.9,38.2c-18.7,0-27.9-8.5-27.9-23.8c0-4.3,0.7-9.1,2.1-14.4l2.8-10
				c7.5-27.2,19.9-38.2,43.9-38.2c18.7,0,27.9,8.5,27.9,23.8c0,4.3-0.7,9.1-2.1,14.4L569.2,315.4z M545.5,304.3
				c0.8-2.7,1.2-4.8,1.2-6.5c0-4.3-2.4-5.6-6.2-5.6c-5.2,0-8.1,2.7-11,12.2l-3.7,12.2c-0.8,2.7-1.2,4.8-1.2,6.5
				c0,4.3,2.4,5.6,6.2,5.6c5.2,0,8.1-2.7,11-12.2L545.5,304.3z"/>
			<path class="st0" d="M624.7,329.8l-6,22.1h-27.2l22.2-83h32.9c18,0,26.9,7.1,26.9,21c0,10.4-3.9,23.7-11.4,30.9
				c-6.2,6-15.3,9-26.2,9H624.7z M635.2,290.5l-5.1,18.8h2.1c9,0,12.5-7,12.5-13.2c0-3.8-2.3-5.6-7.4-5.6H635.2z"/>
			<path class="st0" d="M716.3,268.9l-22.2,83h-27.2l22.2-83H716.3z"/>
			<path class="st0" d="M782.1,318.5c-7,24.9-19.7,35.1-42.8,35.1c-18.7,0-27.7-8.5-27.7-23.8c0-4.3,0.7-9.1,2.1-14.4l2.8-10
				c7.5-27.2,19.7-38.2,43.7-38.2c18.7,0,27.8,8.5,27.8,23.8c0,3.4-0.6,7.2-1.5,11.4l-27.1,1.9c0.7-2.3,1.1-4.8,1.1-6.5
				c0-4.3-2.1-5.6-5.9-5.6c-5.2,0-7.9,2.7-10.7,12.2l-3.7,12.2c-0.8,2.7-1.2,4.8-1.2,6.5c0,4.3,2.2,5.6,6,5.6c5.2,0,7.9-2.7,11-12.2
				L782.1,318.5z"/>
			<path class="st0" d="M838,299c0.4,3.4,0.8,7.7,0.7,11.4l-0.1,3.8h1.3c0.7-5.1,2-13.3,3.8-20l6.7-25.2H875l-22.2,83h-29.5
				l-3.8-27.7c-0.4-3.2-0.8-7.1-0.7-10.6l0.1-4.5h-1.3c-0.7,5.1-2,13.3-3.8,20l-6.1,22.8h-24.7l22.2-83h28.8L838,299z"/>
			<path class="st0" d="M915.5,268.9l-22.2,83h-27.2l22.2-83H915.5z"/>
			<path class="st0" d="M981.4,318.5c-7,24.9-19.7,35.1-42.8,35.1c-18.7,0-27.7-8.5-27.7-23.8c0-4.3,0.7-9.1,2.1-14.4l2.8-10
				c7.5-27.2,19.7-38.2,43.7-38.2c18.7,0,27.8,8.5,27.8,23.8c0,3.4-0.6,7.2-1.5,11.4l-27.1,1.9c0.7-2.3,1.1-4.8,1.1-6.5
				c0-4.3-2.1-5.6-5.9-5.6c-5.2,0-7.9,2.7-10.7,12.2l-3.7,12.2c-0.8,2.7-1.2,4.8-1.2,6.5c0,4.3,2.2,5.6,6,5.6c5.2,0,7.9-2.7,11-12.2
				L981.4,318.5z"/>
		</g>
		<g>
			<path class="st1" d="M624,416.4h-0.8l-3.8,14.1h0.8c0.9,0,1.7-0.2,2.4-0.6c0.7-0.4,1.3-1,1.9-1.9c0.7-1.1,1.3-2.5,1.8-4.1
				c0.5-1.6,0.7-3,0.7-4.2c0-1.1-0.2-1.9-0.7-2.4C625.8,416.6,625.1,416.4,624,416.4z"/>
			<path class="st1" d="M582,426.3c0.3,0,0.6,0,0.9,0h0c0.3,0,0.6,0,0.8,0c0.3,0,0.5,0.1,0.7,0.1l0.6-0.3c0-0.2,0-0.4,0-0.6
				s0-0.3,0-0.4c0-0.3,0-0.6,0-0.9c0-0.3,0-0.6,0.1-0.8l0.2-2.8c0-0.7,0.1-1.3,0.2-2c0.1-0.7,0.2-1.4,0.4-2.1h-0.5
				c-0.3,0.7-0.5,1.4-0.8,2.1c-0.3,0.7-0.6,1.3-0.9,2l-1.4,3.1c-0.2,0.5-0.4,0.9-0.7,1.3c-0.2,0.4-0.4,0.8-0.5,1l0.3,0.3
				C581.5,426.4,581.7,426.4,582,426.3z"/>
			<path class="st1" d="M770.4,418.6c0,0.9,0.3,1.8,0.9,2.4c0.6,0.7,1.6,1.1,3,1.3l2.8-10.3c-2.3,0.4-4,1.2-5.1,2.6
				C771,415.9,770.4,417.3,770.4,418.6z"/>
			<path class="st1" d="M554.1,416.4h-0.8l-3.8,14.1h0.8c0.9,0,1.7-0.2,2.4-0.6c0.7-0.4,1.3-1,1.9-1.9c0.7-1.1,1.3-2.5,1.8-4.1
				c0.5-1.6,0.7-3,0.7-4.2c0-1.1-0.2-1.9-0.7-2.4C555.9,416.6,555.2,416.4,554.1,416.4z"/>
			<path class="st1" d="M711.7,416.4h-0.8l-3.8,14.1h0.8c0.9,0,1.7-0.2,2.4-0.6c0.7-0.4,1.3-1,1.9-1.9c0.7-1.1,1.3-2.5,1.8-4.1
				s0.7-3,0.7-4.2c0-1.1-0.2-1.9-0.7-2.4C713.4,416.6,712.7,416.4,711.7,416.4z"/>
			<path class="st1" d="M521.5,426.3c0.3,0,0.6,0,0.9,0h0c0.3,0,0.6,0,0.8,0c0.3,0,0.5,0.1,0.7,0.1l0.6-0.3c0-0.2,0-0.4,0-0.6
				s0-0.3,0-0.4c0-0.3,0-0.6,0-0.9c0-0.3,0-0.6,0.1-0.8l0.2-2.8c0-0.7,0.1-1.3,0.2-2c0.1-0.7,0.2-1.4,0.4-2.1h-0.5
				c-0.3,0.7-0.5,1.4-0.8,2.1c-0.3,0.7-0.6,1.3-0.9,2l-1.4,3.1c-0.2,0.5-0.4,0.9-0.7,1.3c-0.2,0.4-0.4,0.8-0.5,1l0.3,0.3
				C520.9,426.4,521.2,426.4,521.5,426.3z"/>
			<path class="st1" d="M117.4,426.3c0.3,0,0.6,0,0.9,0h0c0.3,0,0.6,0,0.8,0c0.3,0,0.5,0.1,0.7,0.1l0.6-0.3c0-0.2,0-0.4,0-0.6
				s0-0.3,0-0.4c0-0.3,0-0.6,0-0.9c0-0.3,0-0.6,0.1-0.8l0.2-2.8c0-0.7,0.1-1.3,0.2-2c0.1-0.7,0.2-1.4,0.4-2.1h-0.5
				c-0.3,0.7-0.5,1.4-0.8,2.1c-0.3,0.7-0.6,1.3-0.9,2l-1.4,3.1c-0.2,0.5-0.4,0.9-0.7,1.3c-0.2,0.4-0.4,0.8-0.5,1l0.3,0.3
				C116.8,426.4,117.1,426.4,117.4,426.3z"/>
			<path class="st1" d="M269.2,414.8h-1.4l-2.1,7.7h1.3c1.3,0,2.4-0.6,3.2-1.8c0.8-1.2,1.2-2.4,1.2-3.8c0-0.7-0.2-1.3-0.5-1.6
				C270.6,415,270,414.8,269.2,414.8z"/>
			<path class="st1" d="M495,414.8h-1.4l-2.1,7.7h1.3c1.3,0,2.4-0.6,3.2-1.8c0.8-1.2,1.2-2.4,1.2-3.8c0-0.7-0.2-1.3-0.5-1.6
				C496.4,415,495.8,414.8,495,414.8z"/>
			<path class="st1" d="M777.1,434.6c2.3-0.3,4-1.1,5.3-2.3c1.2-1.2,1.9-2.6,1.9-4.1c0-1-0.3-1.9-1-2.7s-1.7-1.4-3.3-1.6
				L777.1,434.6z"/>
			<path class="st1" d="M295.7,426.3c0.3,0,0.6,0,0.9,0h0c0.3,0,0.6,0,0.8,0c0.3,0,0.5,0.1,0.7,0.1l0.6-0.3c0-0.2,0-0.4,0-0.6
				s0-0.3,0-0.4c0-0.3,0-0.6,0-0.9c0-0.3,0-0.6,0.1-0.8l0.2-2.8c0-0.7,0.1-1.3,0.2-2c0.1-0.7,0.2-1.4,0.4-2.1h-0.5
				c-0.3,0.7-0.5,1.4-0.8,2.1c-0.3,0.7-0.6,1.3-0.9,2l-1.4,3.1c-0.2,0.5-0.4,0.9-0.7,1.3c-0.2,0.4-0.4,0.8-0.5,1l0.3,0.3
				C295.2,426.4,295.4,426.4,295.7,426.3z"/>
			<path class="st1" d="M64.8,391.2V453h917.7v-61.8H64.8z M129.4,439.4h-10.4l0.5-5.4h-6.3l-2.4,5.4H100l16.1-31.9H130L129.4,439.4
				z M158.1,432.5c-0.7,1.7-1.9,3.1-3.4,4.3c-1.3,1-2.9,1.8-4.8,2.3c-1.9,0.5-4,0.8-6.4,0.8c-3.5,0-6.1-0.7-7.8-2
				c-1.7-1.3-2.6-3.3-2.6-6c0-0.4,0-0.8,0.1-1.2c0-0.4,0.1-0.9,0.1-1.3l10.4-0.5c-0.1,0.3-0.1,0.5-0.1,0.7c0,0.2-0.1,0.4-0.1,0.6
				c0,0.6,0.2,1,0.5,1.2c0.3,0.2,0.8,0.3,1.4,0.3c0.9,0,1.6-0.2,2.2-0.7c0.6-0.5,0.9-1.1,0.9-1.7c0-0.5-0.2-0.9-0.5-1.1
				s-0.7-0.5-1.3-0.7l-3.8-1.1c-1.9-0.6-3.4-1.4-4.4-2.6c-1-1.2-1.5-2.7-1.5-4.5c0-1.6,0.4-3.3,1.3-5.1c0.9-1.8,2.2-3.3,3.9-4.5
				c1.2-0.9,2.7-1.6,4.4-2c1.7-0.5,3.6-0.7,5.6-0.7c3.2,0,5.6,0.7,7.3,2c1.7,1.3,2.5,3.3,2.5,6c0,0.4,0,0.8-0.1,1.3
				s-0.1,0.9-0.1,1.3l-10.2,0.5c0.1-0.3,0.1-0.6,0.2-0.9s0.1-0.5,0.1-0.7c0-0.5-0.1-0.9-0.4-1.1c-0.3-0.2-0.7-0.3-1.2-0.3
				c-0.9,0-1.6,0.3-2.1,0.8c-0.5,0.5-0.8,1.1-0.8,1.8c0,0.5,0.1,1,0.4,1.3c0.3,0.3,0.6,0.5,1.1,0.6l4.3,1.1c1.9,0.5,3.4,1.3,4.5,2.6
				c1.1,1.3,1.6,2.9,1.6,4.8C159.2,429.3,158.8,430.8,158.1,432.5z M186.6,419.9l-1.8,6.8h-10.3l-0.9,3.5h12.5l-2.5,9.2h-23
				l8.6-31.9h22.6l-2.4,8.9h-12.1l-1,3.5H186.6z M219.7,417.8c-0.1,0.7-0.2,1.4-0.4,2.1l-10.4,0.7c0.1-0.5,0.2-0.9,0.3-1.3
				c0.1-0.4,0.1-0.8,0.1-1.2c0-0.8-0.2-1.4-0.6-1.7c-0.4-0.3-1-0.5-1.7-0.5c-1,0-1.8,0.3-2.4,1c-0.6,0.7-1.2,1.9-1.7,3.7l-2,6.8
				c-0.5,1.6-0.5,2.7-0.1,3.3c0.4,0.6,1.1,0.9,2.1,0.9c0.9,0,1.6-0.2,2.2-0.6c0.6-0.4,1.2-1.2,1.9-2.3l-0.3-0.3
				c-0.3,0.1-0.7,0.1-1,0.2c-0.4,0-0.8,0.1-1.5,0.1l1.6-6h12.7l-4.5,16.6h-6.4l0.4-3.4h-0.5c-0.8,1.1-1.9,2.1-3.3,2.8
				c-1.4,0.8-3.2,1.2-5.2,1.2c-2.7,0-4.8-0.8-6.3-2.3c-1.5-1.5-2.3-3.7-2.3-6.3c0-1,0.1-2,0.2-3.1c0.1-1.1,0.3-2,0.6-3l1.1-3.8
				c1.4-5.2,3.5-9,6-11.3c2.6-2.3,6.2-3.4,10.8-3.4c3.6,0,6.3,0.8,8,2.4c1.8,1.6,2.7,3.8,2.7,6.8
				C219.8,416.6,219.8,417.2,219.7,417.8z M242.9,436.7c-2.6,2.2-6,3.3-10.2,3.3c-3.6,0-6.4-0.8-8.2-2.3c-1.8-1.5-2.8-3.7-2.8-6.5
				c0-0.8,0.1-1.6,0.2-2.6c0.1-0.9,0.3-1.9,0.6-2.9l4.9-18.3h10.5l-5,18.7c-0.1,0.5-0.2,0.9-0.3,1.3c-0.1,0.4-0.1,0.7-0.1,1
				c0,0.7,0.2,1.2,0.6,1.5c0.4,0.3,0.9,0.4,1.6,0.4c1,0,1.8-0.3,2.4-0.9c0.6-0.6,1.2-1.7,1.6-3.4l5-18.7h10l-4.9,18.3
				C247.5,430.8,245.5,434.4,242.9,436.7z M267,439.4l-0.4-7.7c0-0.8-0.2-1.4-0.6-1.7c-0.4-0.3-1.1-0.5-2-0.5h-0.1l-2.6,9.8h-10.5
				l8.6-31.9h14.4c3,0,5.2,0.6,6.7,1.7c1.5,1.2,2.3,2.8,2.3,4.8c0,1.4-0.3,2.9-0.8,4.4c-0.5,1.5-1.3,2.8-2.4,3.8
				c-0.9,0.9-1.9,1.5-3.2,1.9c-1.2,0.4-2.6,0.7-4.1,0.7l-0.2,0.5l0.8,0.1c1.4,0.2,2.5,0.9,3.2,1.9c0.7,1,1.1,2.6,1.3,4.6l0.6,7.4
				H267z M307.7,439.4h-10.4l0.5-5.4h-6.3l-2.4,5.4h-10.7l16.1-31.9h13.9L307.7,439.4z M342,417.2l-5.9,22.1h-10.5l5.9-22.1h-7.1
				l2.6-9.8h24.7l-2.6,9.8H342z M377.1,425.7c-1.4,5.1-3.4,8.7-6,10.9c-2.6,2.2-6,3.3-10.2,3.3c-3.6,0-6.4-0.8-8.2-2.3
				c-1.8-1.5-2.8-3.7-2.8-6.5c0-0.8,0.1-1.6,0.2-2.6c0.1-0.9,0.3-1.9,0.6-2.9l4.9-18.3h10.5l-5,18.7c-0.1,0.5-0.2,0.9-0.3,1.3
				c-0.1,0.4-0.1,0.7-0.1,1c0,0.7,0.2,1.2,0.6,1.5s0.9,0.4,1.6,0.4c1,0,1.8-0.3,2.4-0.9c0.6-0.6,1.2-1.7,1.6-3.4l5-18.7h10
				L377.1,425.7z M413.8,430.2l-2.5,9.2h-23l8.6-31.9h22.6l-2.4,8.9H405l-1,3.5h10.3l-1.8,6.8h-10.3l-0.9,3.5H413.8z M443.3,439.4
				h-11.4l-1.4-10.6c-0.1-0.6-0.2-1.3-0.2-2c-0.1-0.7-0.1-1.4,0-2.1l0-1.7h-0.5c-0.1,1-0.3,2.2-0.6,3.6c-0.3,1.4-0.6,2.8-0.9,4.1
				l-2.3,8.8h-9.5l8.6-31.9h11.1l1.5,11.6c0.1,0.7,0.2,1.4,0.2,2.2c0.1,0.8,0.1,1.5,0,2.2l0,1.4h0.5c0.1-1,0.3-2.2,0.6-3.6
				c0.3-1.4,0.6-2.8,0.9-4.1l2.6-9.7h9.5L443.3,439.4z M465.1,439.4h-10.5l5.9-22.1h-7.1l2.6-9.8h24.7l-2.6,9.8h-7.1L465.1,439.4z
				 M492.8,439.4l-0.4-7.7c0-0.8-0.2-1.4-0.6-1.7c-0.4-0.3-1.1-0.5-2-0.5h-0.1l-2.6,9.8h-10.5l8.6-31.9h14.4c3,0,5.2,0.6,6.7,1.7
				c1.5,1.2,2.3,2.8,2.3,4.8c0,1.4-0.3,2.9-0.8,4.4c-0.5,1.5-1.3,2.8-2.4,3.8c-0.9,0.9-1.9,1.5-3.2,1.9c-1.2,0.4-2.6,0.7-4.1,0.7
				l-0.2,0.5l0.8,0.1c1.4,0.2,2.5,0.9,3.2,1.9c0.7,1,1.1,2.6,1.3,4.6l0.6,7.4H492.8z M533.5,439.4H523l0.5-5.4h-6.3l-2.4,5.4h-10.7
				l16.1-31.9h13.9L533.5,439.4z M557.4,438.3c-1.8,0.7-3.8,1.1-5.9,1.1h-14.8l8.6-31.9h13c3.2,0,5.6,0.8,7.4,2.5
				c1.7,1.7,2.6,4.1,2.6,7.2c0,2.9-0.6,6.1-1.7,9.6c-1.1,3.4-2.6,6.2-4.5,8.4C560.7,436.5,559.2,437.6,557.4,438.3z M594,439.4
				h-10.4l0.5-5.4h-6.3l-2.4,5.4h-10.7l16.1-31.9h13.9L594,439.4z M631.9,435c-1.3,1.4-2.8,2.5-4.6,3.3c-1.8,0.7-3.8,1.1-5.9,1.1
				h-14.8l8.6-31.9h13c3.2,0,5.6,0.8,7.4,2.5c1.7,1.7,2.6,4.1,2.6,7.2c0,2.9-0.6,6.1-1.7,9.6C635.3,430.1,633.8,432.9,631.9,435z
				 M663.7,419.9l-1.8,6.8h-10.3l-0.9,3.5h12.5l-2.5,9.2h-23l8.6-31.9h22.6l-2.4,8.9h-12.1l-1,3.5H663.7z M691.6,432.5
				c-0.7,1.7-1.9,3.1-3.4,4.3c-1.3,1-2.9,1.8-4.8,2.3c-1.9,0.5-4,0.8-6.4,0.8c-3.5,0-6.1-0.7-7.8-2s-2.6-3.3-2.6-6
				c0-0.4,0-0.8,0.1-1.2c0-0.4,0.1-0.9,0.1-1.3l10.4-0.5c-0.1,0.3-0.1,0.5-0.1,0.7c0,0.2-0.1,0.4-0.1,0.6c0,0.6,0.2,1,0.5,1.2
				c0.3,0.2,0.8,0.3,1.4,0.3c0.9,0,1.6-0.2,2.2-0.7c0.6-0.5,0.9-1.1,0.9-1.7c0-0.5-0.2-0.9-0.5-1.1s-0.7-0.5-1.3-0.7l-3.8-1.1
				c-1.9-0.6-3.4-1.4-4.4-2.6c-1-1.2-1.5-2.7-1.5-4.5c0-1.6,0.4-3.3,1.3-5.1c0.9-1.8,2.2-3.3,3.9-4.5c1.2-0.9,2.7-1.6,4.4-2
				c1.7-0.5,3.6-0.7,5.6-0.7c3.2,0,5.6,0.7,7.3,2c1.7,1.3,2.5,3.3,2.5,6c0,0.4,0,0.8-0.1,1.3s-0.1,0.9-0.1,1.3l-10.2,0.5
				c0.1-0.3,0.1-0.6,0.2-0.9s0.1-0.5,0.1-0.7c0-0.5-0.1-0.9-0.4-1.1s-0.7-0.3-1.2-0.3c-0.9,0-1.6,0.3-2.1,0.8
				c-0.5,0.5-0.8,1.1-0.8,1.8c0,0.5,0.1,1,0.4,1.3c0.3,0.3,0.6,0.5,1.1,0.6l4.3,1.1c1.9,0.5,3.4,1.3,4.5,2.6
				c1.1,1.3,1.6,2.9,1.6,4.8C692.7,429.3,692.3,430.8,691.6,432.5z M719.5,435c-1.3,1.4-2.8,2.5-4.6,3.3c-1.8,0.7-3.8,1.1-5.9,1.1
				h-14.8l8.6-31.9h13c3.2,0,5.6,0.8,7.4,2.5c1.7,1.7,2.6,4.1,2.6,7.2c0,2.9-0.6,6.1-1.7,9.6C722.9,430.1,721.4,432.9,719.5,435z
				 M754.1,416.4H742l-1,3.5h10.3l-1.8,6.8h-10.3l-0.9,3.5h12.5l-2.5,9.2h-23l8.6-31.9h22.6L754.1,416.4z M769.8,439.4l1.1-3.9
				c-1.7-0.3-3-0.9-4-1.9c-1-1-1.5-2.2-1.5-3.7c0-0.2,0-0.3,0-0.5c0-0.2,0.1-0.4,0.1-0.7l0.8-0.1c0,0.2-0.1,0.4-0.1,0.6
				c0,0.2,0,0.4,0,0.6c0,1.3,0.4,2.4,1.3,3.2c0.9,0.8,2.1,1.3,3.6,1.6l3.1-11.5c-1.5-0.3-2.7-0.8-3.4-1.6c-0.8-0.8-1.2-1.8-1.2-2.9
				c0-1.6,0.6-3.2,1.9-4.6c1.3-1.5,3.2-2.4,5.9-2.8l1-3.8h0.9l-8.6,31.9H769.8z M787.6,417.1c0,0.2-0.1,0.4-0.1,0.6l-0.9,0.1
				c0-0.2,0.1-0.4,0.1-0.6c0-0.2,0-0.4,0-0.6c0-1.1-0.3-2-1-2.8c-0.7-0.8-1.6-1.3-2.7-1.6l-2.9,11c1.7,0.3,2.9,0.9,3.7,1.9
				c0.8,1,1.2,2,1.2,3.2c0,1.8-0.7,3.3-2.1,4.7c-1.4,1.3-3.4,2.2-6.1,2.6l-1,3.9h-0.9l8.6-31.9h0.9l-1.1,3.9
				c1.3,0.3,2.4,0.9,3.2,1.8c0.8,0.9,1.2,2,1.2,3.3C787.6,416.7,787.6,416.9,787.6,417.1z M800.7,421.7c0.8-0.7,1.8-1.2,2.9-1.6
				c1.2-0.4,2.5-0.6,3.9-0.6c2.2,0,4,0.7,5.3,2.1c1.3,1.4,1.9,3.3,1.9,5.7c0,3.2-1.3,6.2-3.8,8.8c-2.5,2.7-6.3,4-11.3,4
				c-3.5,0-6.2-0.8-8.1-2.4c-1.9-1.6-2.9-3.6-2.9-6c0-0.4,0-0.8,0.1-1.3c0.1-0.5,0.1-1,0.3-1.5l10.3-0.9c-0.1,0.4-0.2,0.8-0.2,1.1
				c0,0.3,0,0.6,0,0.9c0,0.7,0.2,1.3,0.5,1.7c0.4,0.4,0.8,0.6,1.4,0.6c0.8,0,1.5-0.3,2-1c0.6-0.7,0.9-1.7,0.9-3.1
				c0-0.7-0.2-1.2-0.5-1.5c-0.3-0.4-0.8-0.5-1.4-0.5c-0.4,0-0.7,0.1-1,0.2c-0.3,0.1-0.6,0.3-0.9,0.5l-9.3-1.6l6.6-17.6h22.2
				l-2.5,9.2h-14.6l-0.9,2.3c-0.2,0.5-0.4,0.9-0.6,1.3c-0.2,0.4-0.4,0.8-0.6,1.2L800.7,421.7z M839.3,436c-2.5,2.7-6.3,4-11.3,4
				c-3.5,0-6.2-0.8-8.1-2.4c-1.9-1.6-2.9-3.6-2.9-6c0-0.4,0-0.8,0.1-1.3c0.1-0.5,0.1-1,0.3-1.5l10.3-0.9c-0.1,0.4-0.2,0.8-0.2,1.1
				c0,0.3,0,0.6,0,0.9c0,0.7,0.2,1.3,0.5,1.7c0.4,0.4,0.8,0.6,1.4,0.6c0.8,0,1.5-0.3,2-1c0.6-0.7,0.9-1.7,0.9-3.1
				c0-0.7-0.2-1.2-0.5-1.5c-0.3-0.4-0.8-0.5-1.4-0.5c-0.4,0-0.7,0.1-1,0.2c-0.3,0.1-0.6,0.3-0.9,0.5l-9.3-1.6l6.6-17.6h22.2
				l-2.5,9.2h-14.6l-0.9,2.3c-0.2,0.5-0.4,0.9-0.6,1.3c-0.2,0.4-0.4,0.8-0.6,1.2l0.3,0.3c0.8-0.7,1.8-1.2,2.9-1.6
				c1.2-0.4,2.5-0.6,3.9-0.6c2.2,0,4,0.7,5.3,2.1c1.3,1.4,1.9,3.3,1.9,5.7C843.1,430.4,841.8,433.3,839.3,436z M854,439.8
				c-1.1,1.9-2.5,3.8-4.3,5.5h-5.9l2.9-5.6c-0.8-0.4-1.4-0.9-1.8-1.6c-0.4-0.7-0.6-1.4-0.6-2.3c0-1.5,0.5-2.8,1.6-3.9
				s2.5-1.6,4.5-1.6h0.6c1.4,0,2.5,0.4,3.4,1.1c0.9,0.7,1.3,1.8,1.3,3.1C855.7,436.1,855.1,437.9,854,439.8z M889.2,418.6
				c-0.1,0.9-0.3,1.9-0.6,2.9l-1.1,3.8c-1.4,5.2-3.4,8.9-5.9,11.2s-6.1,3.4-10.6,3.4c-3.4,0-6-0.8-7.7-2.4c-1.7-1.6-2.6-3.8-2.6-6.8
				c0-0.8,0.1-1.7,0.2-2.6c0.1-0.9,0.3-1.9,0.6-2.9l1.1-3.8c1.4-5.2,3.4-9,5.9-11.3c2.6-2.3,6.1-3.4,10.6-3.4c3.4,0,6,0.8,7.7,2.4
				c1.7,1.6,2.6,3.8,2.6,6.8C889.4,416.8,889.4,417.7,889.2,418.6z M918.6,418.6c-0.1,0.9-0.3,1.9-0.6,2.9l-1.1,3.8
				c-1.4,5.2-3.4,8.9-5.9,11.2s-6.1,3.4-10.6,3.4c-3.4,0-6-0.8-7.7-2.4c-1.7-1.6-2.6-3.8-2.6-6.8c0-0.8,0.1-1.7,0.2-2.6
				c0.1-0.9,0.3-1.9,0.6-2.9l1.1-3.8c1.4-5.2,3.4-9,5.9-11.3c2.6-2.3,6.1-3.4,10.6-3.4c3.4,0,6,0.8,7.7,2.4c1.7,1.6,2.6,3.8,2.6,6.8
				C918.8,416.8,918.8,417.7,918.6,418.6z M948,418.6c-0.1,0.9-0.3,1.9-0.6,2.9l-1.1,3.8c-1.4,5.2-3.4,8.9-5.9,11.2
				c-2.6,2.3-6.1,3.4-10.6,3.4c-3.4,0-6-0.8-7.7-2.4c-1.7-1.6-2.6-3.8-2.6-6.8c0-0.8,0.1-1.7,0.2-2.6c0.1-0.9,0.3-1.9,0.6-2.9
				l1.1-3.8c1.4-5.2,3.4-9,5.9-11.3c2.6-2.3,6.1-3.4,10.6-3.4c3.4,0,6,0.8,7.7,2.4c1.7,1.6,2.6,3.8,2.6,6.8
				C948.2,416.8,948.1,417.7,948,418.6z"/>
			<path class="st1" d="M906.3,416.4c-0.9,0-1.6,0.3-2.2,1c-0.6,0.7-1.1,1.9-1.6,3.7l-1.4,4.7c-0.1,0.5-0.3,1-0.3,1.4
				c-0.1,0.4-0.1,0.8-0.1,1.1c0,0.8,0.2,1.4,0.5,1.7c0.4,0.3,0.8,0.5,1.4,0.5c0.9,0,1.6-0.3,2.1-1c0.6-0.7,1.1-1.9,1.6-3.7l1.4-4.7
				c0.1-0.5,0.3-1,0.3-1.4c0.1-0.4,0.1-0.8,0.1-1.1c0-0.8-0.2-1.4-0.5-1.7C907.4,416.5,906.9,416.4,906.3,416.4z"/>
			<path class="st1" d="M935.7,416.4c-0.9,0-1.6,0.3-2.2,1c-0.6,0.7-1.1,1.9-1.6,3.7l-1.4,4.7c-0.1,0.5-0.3,1-0.3,1.4
				c-0.1,0.4-0.1,0.8-0.1,1.1c0,0.8,0.2,1.4,0.5,1.7c0.4,0.3,0.8,0.5,1.4,0.5c0.9,0,1.6-0.3,2.1-1c0.6-0.7,1.1-1.9,1.6-3.7l1.4-4.7
				c0.1-0.5,0.3-1,0.3-1.4c0.1-0.4,0.1-0.8,0.1-1.1c0-0.8-0.2-1.4-0.5-1.7C936.8,416.5,936.3,416.4,935.7,416.4z"/>
			<path class="st1" d="M877,416.4c-0.9,0-1.6,0.3-2.2,1c-0.6,0.7-1.1,1.9-1.6,3.7l-1.4,4.7c-0.1,0.5-0.3,1-0.3,1.4
				c-0.1,0.4-0.1,0.8-0.1,1.1c0,0.8,0.2,1.4,0.5,1.7c0.4,0.3,0.8,0.5,1.4,0.5c0.9,0,1.6-0.3,2.1-1c0.6-0.7,1.1-1.9,1.6-3.7l1.4-4.7
				c0.1-0.5,0.3-1,0.3-1.4c0.1-0.4,0.1-0.8,0.1-1.1c0-0.8-0.2-1.4-0.5-1.7C878,416.5,877.6,416.4,877,416.4z"/>
		</g>
		<g>
			<path class="st0" d="M642.5,613.9h-576v-64.7h576V613.9z M67,613.4h575v-63.7H67V613.4z"/>
			<path class="st0" d="M987.3,617.8h-309v-64.6h309V617.8z M678.7,617.4h308.2v-63.8H678.7V617.4z"/>
			<g>
				<g>
					<path class="st0" d="M169.5,584c-3.4,12.2-9.7,17.3-21.1,17.3c-9.2,0-13.6-4.2-13.6-11.7c0-2.1,0.3-4.5,1-7.1l1.4-4.9
						c3.7-13.4,9.7-18.8,21.5-18.8c9.2,0,13.7,4.2,13.7,11.7c0,1.7-0.3,3.5-0.8,5.6l-13.3,0.9c0.3-1.1,0.5-2.3,0.5-3.2
						c0-2.1-1-2.8-2.9-2.8c-2.6,0-3.9,1.3-5.3,6l-1.8,6c-0.4,1.3-0.6,2.3-0.6,3.2c0,2.1,1.1,2.8,2.9,2.8c2.6,0,3.9-1.3,5.4-6
						L169.5,584z"/>
					<path class="st0" d="M207.4,582.5c-3.7,13.3-9.8,18.8-21.6,18.8c-9.2,0-13.7-4.2-13.7-11.7c0-2.1,0.3-4.5,1-7.1l1.4-4.9
						c3.7-13.4,9.8-18.8,21.6-18.8c9.2,0,13.7,4.2,13.7,11.7c0,2.1-0.3,4.5-1,7.1L207.4,582.5z M195.8,577c0.4-1.3,0.6-2.3,0.6-3.2
						c0-2.1-1.2-2.8-3-2.8c-2.6,0-4,1.3-5.4,6l-1.8,6c-0.4,1.3-0.6,2.3-0.6,3.2c0,2.1,1.2,2.8,3,2.8c2.6,0,4-1.3,5.4-6L195.8,577z"
						/>
					<path class="st0" d="M232.4,600.5h-5.5l-1.4-13.6c-0.2-1.7-0.3-3.7-0.3-5.5c0-0.4,0-1.1,0.1-2h-0.7c-0.3,2.5-0.9,6.5-1.9,9.9
						l-3,11.2h-12.2l10.9-40.8H234l0.6,14.1c0.1,1,0.1,1.9,0.1,3c0,0.9-0.1,2.2-0.1,3h0.7c1.1-2.5,2.2-4.3,3.2-6l8.7-14.1h16.6
						l-10.9,40.8h-13.3l3-11.2c0.9-3.3,2.4-7.3,3.5-9.9h-0.7c-1.1,2.3-2.7,5.1-4.2,7.5L232.4,600.5z"/>
					<path class="st0" d="M270.2,559.6h18.1c7.5,0,11.7,3,11.7,8.1c0,2.9-1.2,5.8-3.6,7.9c-2.2,1.9-5.3,2.9-9.1,2.9l-0.2,0.7
						c5,0.1,8.4,2.5,8.4,7.5c0,3.8-1.5,7.9-4.8,10.6c-2.7,2.1-6.5,3.2-11.4,3.2h-20L270.2,559.6z M277.2,583.5l-1.9,7.1h1.6
						c3.8,0,5.2-2.2,5.2-4.7c0-1.6-1.2-2.4-3.9-2.4H277.2z M281.1,569l-1.9,7.1h1.6c3.5,0,4.9-2.4,4.9-5c0-1.4-0.9-2.1-3-2.1H281.1z
						"/>
					<path class="st0" d="M334.6,582.5c-3.7,13.3-9.8,18.8-21.6,18.8c-9.2,0-13.7-4.2-13.7-11.7c0-2.1,0.3-4.5,1-7.1l1.4-4.9
						c3.7-13.4,9.8-18.8,21.6-18.8c9.2,0,13.7,4.2,13.7,11.7c0,2.1-0.3,4.5-1,7.1L334.6,582.5z M323,577c0.4-1.3,0.6-2.3,0.6-3.2
						c0-2.1-1.2-2.8-3-2.8c-2.6,0-4,1.3-5.4,6l-1.8,6c-0.4,1.3-0.6,2.3-0.6,3.2c0,2.1,1.2,2.8,3,2.8c2.6,0,4-1.3,5.4-6L323,577z"/>
					<path class="st0" d="M340.2,601.3c-3.5,0-5.9-2-5.9-5.3c0-3.8,3.1-7.1,7.7-7.1h0.8c3.5,0,5.9,2,5.9,5.3c0,3.8-3.1,7.1-7.7,7.1
						H340.2z M345.5,581.6c-3.5,0-5.9-2-5.9-5.3c0-3.8,3.1-7.1,7.7-7.1h0.8c3.5,0,5.9,2,5.9,5.3c0,3.8-3.1,7.1-7.7,7.1H345.5z"/>
					<path class="st0" d="M373.8,559.6h28.8l-3,11.4h-15.5l-1.3,4.5H396l-2.3,8.7h-13.1l-1.2,4.5h16l-3.2,11.7h-29.4L373.8,559.6z"
						/>
					<path class="st0" d="M425.5,572.1l-7.6,28.3h-13.4l7.6-28.3H403l3.4-12.5H438l-3.4,12.5H425.5z"/>
					<path class="st0" d="M451.6,593.5h-8l-3.1,6.9h-13.7l20.6-40.8h17.7l-0.8,40.8H451L451.6,593.5z M450.1,583.7
						c0.8,0,1.5,0.1,1.9,0.2l0.7-0.4c-0.1-0.5-0.1-1-0.1-1.3c0-0.8,0.1-1.6,0.1-2.1l0.3-3.5c0.1-1.7,0.3-3.3,0.7-5.2h-0.7
						c-0.7,1.9-1.4,3.5-2.1,5.2l-1.8,4c-0.5,1.1-1.2,2.4-1.5,2.9l0.4,0.4C448.6,583.8,449.3,583.7,450.1,583.7L450.1,583.7z"/>
					<path class="st0" d="M483.6,589.6l-2.9,10.9h-13.4l10.9-40.8h16.2c8.9,0,13.2,3.5,13.2,10.3c0,5.1-1.9,11.6-5.6,15.2
						c-3,2.9-7.5,4.4-12.9,4.4H483.6z M488.8,570.2l-2.5,9.3h1c4.4,0,6.2-3.4,6.2-6.5c0-1.9-1.1-2.8-3.6-2.8H488.8z"/>
					<path class="st0" d="M524.6,593.5h-8l-3.1,6.9h-13.7l20.6-40.8h17.7l-0.8,40.8H524L524.6,593.5z M523.1,583.7
						c0.8,0,1.5,0.1,1.9,0.2l0.7-0.4c-0.1-0.5-0.1-1-0.1-1.3c0-0.8,0.1-1.6,0.1-2.1l0.3-3.5c0.1-1.7,0.3-3.3,0.7-5.2h-0.7
						c-0.7,1.9-1.4,3.5-2.1,5.2l-1.8,4c-0.5,1.1-1.2,2.4-1.5,2.9l0.4,0.4C521.6,583.8,522.3,583.7,523.1,583.7L523.1,583.7z"/>
					<path class="st0" d="M575.5,559.6l-10.9,40.8h-13.4l10.9-40.8H575.5z"/>
				</g>
			</g>
			<g>
				<path class="st0" d="M147.2,641.5c-0.4-0.3-0.8-0.4-1.4-0.4c-0.8,0-1.5,0.3-2,0.8c-0.5,0.5-1,1.5-1.4,3l-1.1,3.8
					c-0.1,0.4-0.2,0.8-0.3,1.1c-0.1,0.3-0.1,0.6-0.1,0.9c0,0.7,0.2,1.1,0.5,1.4c0.4,0.3,0.8,0.4,1.4,0.4c0.8,0,1.5-0.3,2-0.8
					c0.5-0.5,1-1.5,1.4-3l1.1-3.8c0.1-0.4,0.2-0.8,0.3-1.1c0.1-0.3,0.1-0.6,0.1-0.9C147.7,642.2,147.6,641.7,147.2,641.5z"/>
				<path class="st0" d="M304.4,649.1c0.2,0,0.5,0,0.7,0h0c0.2,0,0.5,0,0.7,0c0.2,0,0.4,0,0.5,0.1l0.4-0.3c0-0.2,0-0.3,0-0.4
					c0-0.1,0-0.3,0-0.3c0-0.2,0-0.5,0-0.7c0-0.3,0-0.5,0.1-0.6l0.2-2.2c0-0.5,0.1-1.1,0.2-1.6c0.1-0.5,0.2-1.1,0.3-1.7H307
					c-0.2,0.6-0.4,1.2-0.7,1.7c-0.2,0.5-0.5,1.1-0.7,1.6l-1.1,2.5c-0.2,0.4-0.3,0.7-0.5,1.1c-0.2,0.4-0.3,0.6-0.4,0.8l0.2,0.3
					C304,649.2,304.2,649.2,304.4,649.1z"/>
				<path class="st0" d="M187.2,649.1c0.2,0,0.5,0,0.7,0h0c0.2,0,0.5,0,0.7,0c0.2,0,0.4,0,0.5,0.1l0.4-0.3c0-0.2,0-0.3,0-0.4
					c0-0.1,0-0.3,0-0.3c0-0.2,0-0.5,0-0.7c0-0.3,0-0.5,0.1-0.6l0.2-2.2c0-0.5,0.1-1.1,0.2-1.6c0.1-0.5,0.2-1.1,0.3-1.7h-0.4
					c-0.2,0.6-0.4,1.2-0.7,1.7c-0.2,0.5-0.5,1.1-0.7,1.6l-1.1,2.5c-0.2,0.4-0.3,0.7-0.5,1.1c-0.2,0.4-0.3,0.6-0.4,0.8l0.2,0.3
					C186.7,649.2,186.9,649.2,187.2,649.1z"/>
				<path class="st0" d="M66.8,623.8v43.8h286.6v-43.8H66.8z M107.7,642.4c-0.1,0.6-0.2,1.2-0.4,1.9l-8.4,0.6
					c0.1-0.4,0.2-0.7,0.2-1.1c0.1-0.4,0.1-0.7,0.1-0.9c0-0.7-0.2-1.1-0.5-1.4c-0.3-0.3-0.8-0.4-1.3-0.4c-0.8,0-1.4,0.3-1.9,0.8
					c-0.5,0.5-1,1.5-1.4,3l-1.1,3.8c-0.1,0.4-0.2,0.8-0.3,1.1c-0.1,0.3-0.1,0.6-0.1,0.9c0,0.7,0.2,1.1,0.5,1.4
					c0.3,0.3,0.8,0.4,1.4,0.4c0.8,0,1.4-0.3,1.9-0.8c0.5-0.5,1-1.5,1.5-3l8.1,0.6c-1.1,3.8-2.7,6.6-4.8,8.3
					c-2.1,1.7-4.9,2.6-8.5,2.6c-2.9,0-5-0.6-6.5-1.9c-1.4-1.3-2.1-3.1-2.1-5.5c0-0.7,0.1-1.4,0.2-2.1c0.1-0.7,0.3-1.5,0.5-2.4
					l0.9-3.1c1.2-4.2,2.8-7.2,4.9-9.1c2.1-1.8,5-2.8,8.7-2.8c2.9,0,5,0.6,6.5,1.9c1.4,1.3,2.1,3.1,2.1,5.5
					C107.9,641.3,107.8,641.8,107.7,642.4z M125.5,657.5c-2.1,1.8-4.9,2.7-8.2,2.7c-2.9,0-5.1-0.6-6.6-1.9c-1.5-1.2-2.2-3-2.2-5.3
					c0-0.6,0-1.3,0.1-2.1c0.1-0.7,0.3-1.5,0.5-2.3l3.9-14.8h8.4l-4.1,15.1c-0.1,0.4-0.2,0.7-0.2,1.1c-0.1,0.3-0.1,0.6-0.1,0.8
					c0,0.6,0.1,1,0.4,1.2c0.3,0.2,0.7,0.3,1.3,0.3c0.8,0,1.5-0.2,2-0.7c0.5-0.5,1-1.4,1.3-2.7l4.1-15.1h8.1l-3.9,14.8
					C129.2,652.7,127.6,655.7,125.5,657.5z M156.1,642.9c-0.1,0.7-0.3,1.5-0.5,2.4l-0.9,3.1c-1.2,4.2-2.8,7.2-4.9,9.1
					c-2.1,1.9-5,2.8-8.7,2.8c-2.9,0-5-0.6-6.5-1.9c-1.4-1.3-2.2-3.1-2.2-5.5c0-0.7,0.1-1.4,0.2-2.1c0.1-0.7,0.3-1.5,0.5-2.4l0.9-3.1
					c1.2-4.2,2.8-7.2,4.9-9.1c2.1-1.8,5-2.8,8.7-2.8c2.9,0,5,0.6,6.5,1.9c1.4,1.3,2.2,3.1,2.2,5.5
					C156.2,641.4,156.2,642.1,156.1,642.9z M167.6,659.6h-8.4l4.8-17.9h-5.7l2.1-7.9h19.9l-2.1,7.9h-5.7L167.6,659.6z M196.9,659.6
					h-8.4l0.4-4.4h-5l-2,4.4h-8.7l13-25.8h11.2L196.9,659.6z M205.6,659.6l6.9-25.8h8.4l-6.9,25.8H205.6z M230.7,659.6l-1.2-8.6
					c-0.1-0.5-0.1-1-0.2-1.6c0-0.6-0.1-1.1,0-1.7l0-1.4h-0.4c-0.1,0.8-0.2,1.7-0.4,2.9c-0.2,1.2-0.4,2.3-0.7,3.3l-1.9,7.1h-7.7
					l6.9-25.8h8.9l1.2,9.3c0.1,0.5,0.1,1.1,0.2,1.7c0,0.6,0.1,1.2,0,1.8l0,1.2h0.4c0.1-0.8,0.2-1.7,0.4-2.9c0.2-1.2,0.4-2.3,0.7-3.3
					l2.1-7.8h7.7l-6.9,25.8H230.7z M243.9,659.6l6.9-25.8h8.4l-6.9,25.8H243.9z M275,657.6c-2.1,1.7-4.9,2.6-8.5,2.6
					c-2.9,0-5-0.6-6.5-1.9c-1.4-1.3-2.1-3.1-2.1-5.5c0-0.7,0.1-1.4,0.2-2.1c0.1-0.7,0.3-1.5,0.5-2.4l0.9-3.1
					c1.2-4.2,2.8-7.2,4.9-9.1c2.1-1.8,5-2.8,8.7-2.8c2.9,0,5,0.6,6.5,1.9c1.4,1.3,2.1,3.1,2.1,5.5c0,0.5,0,1.1-0.1,1.7
					c-0.1,0.6-0.2,1.2-0.4,1.9l-8.4,0.6c0.1-0.4,0.2-0.7,0.2-1.1c0.1-0.4,0.1-0.7,0.1-0.9c0-0.7-0.2-1.1-0.5-1.4
					c-0.3-0.3-0.8-0.4-1.3-0.4c-0.8,0-1.4,0.3-1.9,0.8c-0.5,0.5-1,1.5-1.4,3l-1.1,3.8c-0.1,0.4-0.2,0.8-0.3,1.1
					c-0.1,0.3-0.1,0.6-0.1,0.9c0,0.7,0.2,1.1,0.5,1.4c0.3,0.3,0.8,0.4,1.4,0.4c0.8,0,1.4-0.3,1.9-0.8c0.5-0.5,1-1.5,1.5-3l8.1,0.6
					C278.7,653.1,277.1,655.9,275,657.6z M280,659.6l6.9-25.8h8.4l-6.9,25.8H280z M314.1,659.6h-8.4l0.4-4.4h-5l-2,4.4h-8.7l13-25.8
					h11.2L314.1,659.6z M332.5,659.6H316l6.9-25.8h8.4l-4.8,17.9h8L332.5,659.6z"/>
			</g>
			<g>
				<g>
					<path class="st0" d="M96.3,720.7v-5.3c-5.5-0.9-9.3-4-9.8-9.2l1.2-0.1c0.5,4.8,3.8,7.4,8.6,8.3v-15.5c-5.4-0.8-8.1-3.8-8.1-8
						c0-3.8,2.6-7.1,8.1-8.1v-5.2h1.2v43.3H96.3z M96.3,697.7v-14c-4.8,1-6.9,3.8-6.9,7C89.3,694.3,91.4,697.1,96.3,697.7z
						 M104.4,715.5v5.3h-1.2v-43.3h1.2v5.3c4.5,1,7.5,3.8,8,8.6l-1.2,0.1c-0.5-4.3-3-6.6-6.9-7.6v14.9c6.3,1,8.6,4.6,8.6,8.6
						S110.5,714.5,104.4,715.5z M104.4,699.8v14.5c5.4-0.9,7.4-3.6,7.4-7C111.8,704,109.8,700.8,104.4,699.8z"/>
					<path class="st0" d="M105.3,721.6h-2.9v-45.1h2.9v5.5c4.7,1.3,7.5,4.5,8,9.2l0.1,0.9l-2.9,0.3l-0.1-0.9
						c-0.4-3.3-2.1-5.4-5.1-6.5V698c7.5,1.5,8.6,6.4,8.6,9.4c0,2.8-1.1,7.5-8.6,8.9V721.6z M105.3,700.9v12.4c3.8-0.9,5.7-2.8,5.7-6
						C110.9,704.1,108.9,701.9,105.3,700.9z M98.3,721.6h-2.9v-5.5c-5.8-1.2-9.3-4.7-9.8-9.9l-0.1-0.9l2.9-0.3l0.1,0.9
						c0.4,3.8,2.7,6.2,6.8,7.2v-13.7c-5.1-1-8.1-4.1-8.1-8.8c0-4.4,3-7.7,8.1-8.9v-5.4h2.9V721.6z M95.4,684.9
						c-3.3,1-5.1,3.1-5.1,5.9c0,3.1,1.8,5.1,5.1,5.9V684.9z"/>
				</g>
				<path class="st0" d="M128.8,677.4h5.8v43.3h-14.4v-34.1C124.6,685.4,128.1,681.8,128.8,677.4z"/>
				<path class="st0" d="M151.3,677.4h5.8v43.3h-14.4v-34.1C147.1,685.4,150.6,681.8,151.3,677.4z"/>
				<path class="st0" d="M180.8,721.6c-12.8,0-18.5-4-18.5-11.4c0-7.3,5.1-10.1,11.3-10.3v-0.7c-6.1-0.2-10.6-3.9-10.6-10.9
					c0-6.9,5.4-11.8,17.8-11.8c12.5,0,17.8,4.3,17.8,10.3c0,6.5-4.5,9.9-10.6,10v0.7c6.2,0.2,11.3,3.4,11.3,11.4
					C199.2,717.2,193.5,721.6,180.8,721.6z M180.8,710.9c2.7,0,3.8-1.6,3.8-4.1c0-2.5-1.1-4-3.8-4s-3.8,1.6-3.8,4
					C177,709.3,178.1,710.9,180.8,710.9z M180.9,694.9c2,0,3.3-1.4,3.3-4s-1.3-4-3.3-4h-0.2c-2,0-3.3,1.4-3.3,4s1.3,4,3.3,4H180.9z"
					/>
				<path class="st0" d="M204.9,728.8l1.7-7.4c-2.9-0.7-4.7-2.8-4.7-6.3c0-4.3,2.7-6.6,7-6.6h1.1c4.3,0,7.2,2.3,7.2,7
					c0,3.9-2.5,9.6-4.5,13.3H204.9z"/>
				<path class="st0" d="M255.5,700.8c0,14.3-6,20.8-17.6,20.8s-17.6-6.5-17.6-20.8v-3.5c0-14.3,6-20.8,17.6-20.8
					s17.6,6.5,17.6,20.8V700.8z M241.7,701.4v-4.6c0-5.4-1.4-7.2-3.8-7.2s-3.8,1.8-3.8,7.2v4.6c0,5.4,1.4,7.2,3.8,7.2
					S241.7,706.8,241.7,701.4z"/>
				<path class="st0" d="M294.2,700.8c0,14.3-6,20.8-17.6,20.8s-17.6-6.5-17.6-20.8v-3.5c0-14.3,6-20.8,17.6-20.8
					s17.6,6.5,17.6,20.8V700.8z M280.3,701.4v-4.6c0-5.4-1.4-7.2-3.8-7.2s-3.8,1.8-3.8,7.2v4.6c0,5.4,1.4,7.2,3.8,7.2
					S280.3,706.8,280.3,701.4z"/>
				<path class="st0" d="M332.9,700.8c0,14.3-6,20.8-17.6,20.8s-17.6-6.5-17.6-20.8v-3.5c0-14.3,6-20.8,17.6-20.8
					s17.6,6.5,17.6,20.8V700.8z M319,701.4v-4.6c0-5.4-1.4-7.2-3.8-7.2s-3.8,1.8-3.8,7.2v4.6c0,5.4,1.4,7.2,3.8,7.2
					S319,706.8,319,701.4z"/>
			</g>
			<path class="st0" d="M353.8,738H66.4V623.4h287.4V738z M67.2,737.2H353V624.2H67.2V737.2z"/>
			<path class="st0" d="M642.5,737.8H362.8V622.3h279.7V737.8z M363.3,737.4h278.8V622.8H363.3V737.4z"/>
			<g>
				<path class="st0" d="M482.1,641.2c-0.8,0-1.5,0.3-2,0.8c-0.5,0.6-0.7,1.6-0.7,3.1v4c0,1.5,0.2,2.6,0.7,3.1
					c0.5,0.6,1.1,0.8,2,0.8c0.8,0,1.5-0.3,2-0.8c0.5-0.6,0.7-1.6,0.7-3.1v-4c0-1.5-0.2-2.6-0.7-3.1
					C483.6,641.5,483,641.2,482.1,641.2z"/>
				<path class="st0" d="M529.4,647.5l-0.5-2.6c-0.1-0.6-0.2-1.1-0.3-1.7c-0.1-0.6-0.1-1.2-0.2-1.8H528c0,0.6-0.1,1.2-0.2,1.8
					c-0.1,0.6-0.2,1.1-0.3,1.7l-0.5,2.6c-0.1,0.4-0.2,0.8-0.3,1.1c-0.1,0.4-0.2,0.6-0.3,0.8l0.4,0.3c0.2,0,0.4,0,0.6-0.1
					c0.2,0,0.5,0,0.7,0h0c0.2,0,0.5,0,0.7,0c0.2,0,0.4,0,0.6,0.1l0.4-0.3c-0.1-0.2-0.2-0.4-0.3-0.8
					C529.6,648.2,529.5,647.8,529.4,647.5z"/>
				<path class="st0" d="M399.7,649.4c-0.8,0-1.4,0.2-1.8,0.7c-0.4,0.5-0.6,1.1-0.6,1.8c0,0.8,0.2,1.4,0.6,1.9
					c0.4,0.5,1,0.7,1.8,0.7c0.8,0,1.4-0.2,1.8-0.7c0.4-0.5,0.6-1.1,0.6-1.9c0-0.8-0.2-1.4-0.6-1.8
					C401.1,649.7,400.5,649.4,399.7,649.4z"/>
				<path class="st0" d="M399.6,644.5h0.1c0.6,0,1.1-0.2,1.5-0.6c0.4-0.4,0.6-1.1,0.6-1.9c0-0.8-0.2-1.4-0.6-1.9
					c-0.4-0.4-0.9-0.6-1.5-0.6h-0.1c-0.6,0-1.1,0.2-1.5,0.6c-0.4,0.4-0.6,1.1-0.6,1.9c0,0.8,0.2,1.4,0.6,1.9
					C398.5,644.3,399,644.5,399.6,644.5z"/>
				<path class="st0" d="M582.6,641.2h-0.9v11.9h0.9c1.3,0,2.2-0.5,2.8-1.5c0.6-1,0.8-2.5,0.8-4.4s-0.3-3.4-0.8-4.4
					C584.8,641.7,583.9,641.2,582.6,641.2z"/>
				<path class="st0" d="M362.6,622.6v45.2h280.2v-45.2H362.6z M408.4,659.2c-1.9,1.3-4.8,2-8.7,2c-4,0-6.9-0.6-8.7-1.8
					c-1.9-1.2-2.8-3-2.8-5.3c0-2.3,0.7-3.9,2.1-4.9c1.4-1,3-1.5,5-1.5v-0.4c-1.9,0-3.5-0.6-4.7-1.8c-1.3-1.2-1.9-2.8-1.9-5
					c0-2.2,0.9-3.9,2.7-5.3c1.8-1.4,4.6-2.1,8.5-2.1c3.9,0,6.7,0.6,8.5,1.8c1.8,1.2,2.7,2.8,2.7,4.6c0,2-0.6,3.6-1.9,4.6
					c-1.3,1.1-2.8,1.6-4.7,1.7v0.4c1.9,0,3.6,0.6,5,1.7c1.4,1.1,2.1,2.9,2.1,5.4C411.2,655.9,410.3,657.8,408.4,659.2z M429.5,652.3
					c0.5,0.6,1.1,0.8,1.9,0.8c0.8,0,1.5-0.3,1.9-0.8c0.5-0.6,0.7-1.6,0.7-3.1l8.6,0.6c-0.1,3.9-1.2,6.8-3.1,8.7
					c-1.9,1.9-4.6,2.8-8.2,2.8c-3.7,0-6.5-1-8.4-3c-1.9-2-2.9-5.2-2.9-9.4v-3.2c0-4.3,1-7.4,2.9-9.4c1.9-2,4.7-3,8.4-3
					c3.5,0,6.3,0.9,8.2,2.8c1.9,1.9,2.9,4.8,3.1,8.7l-8.6,0.6c0-1.5-0.2-2.6-0.7-3.1c-0.5-0.6-1.1-0.8-1.9-0.8
					c-0.8,0-1.5,0.3-1.9,0.8c-0.5,0.6-0.7,1.6-0.7,3.1v4C428.9,650.7,429.1,651.7,429.5,652.3z M467.9,649.1c0,4.1-0.9,7.2-2.8,9.1
					c-1.9,2-4.7,2.9-8.4,2.9c-3.7,0-6.5-1-8.4-2.9c-1.8-2-2.8-5-2.8-9.1v-15.5h8.6v15.9c0,1.4,0.2,2.3,0.7,2.8
					c0.5,0.5,1.1,0.8,2,0.8c0.8,0,1.5-0.3,2-0.8c0.5-0.5,0.7-1.5,0.7-2.8v-15.9h8.3V649.1z M493.5,648.8c0,4.3-1,7.4-2.9,9.4
					c-1.9,2-4.8,3-8.4,3c-3.7,0-6.5-1-8.4-3c-1.9-2-2.9-5.2-2.9-9.4v-3.2c0-4.3,1-7.4,2.9-9.4c1.9-2,4.7-3,8.4-3c3.7,0,6.5,1,8.4,3
					c1.9,2,2.9,5.2,2.9,9.4V648.8z M510.1,660.6h-8.6v-18.7h-6.1v-8.3h20.9v8.3h-6.1V660.6z M531.8,660.6l-0.8-4.6h-5.4l-0.8,4.6
					H516l6.8-27H534l6.8,27H531.8z M560.2,658.9c-1.9,1.5-4.6,2.3-8.3,2.3c-3.3,0-5.9-0.7-7.7-2.2c-1.8-1.5-2.8-3.7-2.9-6.7l8.6-0.4
					c0,0.9,0.2,1.6,0.5,1.9c0.4,0.3,0.9,0.5,1.5,0.5c0.6,0,1.2-0.1,1.5-0.4c0.4-0.3,0.5-0.7,0.5-1.3c0-0.5-0.2-0.9-0.5-1.2
					c-0.3-0.3-0.7-0.5-1.3-0.6l-4.4-1.3c-2.2-0.6-3.7-1.6-4.7-2.8c-0.9-1.2-1.4-2.8-1.4-4.7c0-2.8,0.9-4.9,2.7-6.5
					c1.8-1.5,4.5-2.3,8-2.3c3.1,0,5.6,0.7,7.3,2.2c1.7,1.5,2.7,3.7,2.8,6.7l-8.5,0.4c0-1-0.2-1.7-0.5-2c-0.3-0.3-0.8-0.5-1.4-0.5
					c-0.6,0-1.1,0.2-1.4,0.5c-0.3,0.3-0.5,0.7-0.5,1.3c0,0.5,0.1,0.9,0.4,1.2c0.3,0.3,0.6,0.5,1.2,0.6l4.9,1.3
					c2.2,0.6,3.8,1.5,4.8,2.9c1,1.3,1.5,3,1.5,4.9C563,655.3,562.1,657.4,560.2,658.9z M592.9,657.3c-1.7,2.2-4.3,3.3-8.1,3.3h-11.8
					v-27h11.8c3.7,0,6.4,1.1,8.1,3.3c1.7,2.2,2.5,5.6,2.5,10.2C595.4,651.7,594.6,655.1,592.9,657.3z M618.1,660.6h-19.5v-27h19.1
					v7.6h-10.4v3h8.9v5.8h-8.9v3h10.8V660.6z"/>
			</g>
			<g>
				<g>
					<path class="st0" d="M390.3,720.7v-5.1c-5.3-0.9-8.9-3.8-9.3-8.9l1.1-0.1c0.4,4.6,3.6,7.1,8.2,7.9v-14.9
						c-5.2-0.7-7.7-3.6-7.7-7.7c0-3.7,2.5-6.8,7.7-7.8v-5h1.1v41.5H390.3z M390.3,698.7v-13.4c-4.6,0.9-6.6,3.7-6.6,6.7
						C383.7,695.4,385.7,698,390.3,698.7z M398.1,715.7v5H397v-41.5h1.1v5c4.3,1,7.2,3.7,7.7,8.2l-1.1,0.1c-0.5-4.1-2.9-6.4-6.6-7.2
						v14.3c6.1,0.9,8.2,4.4,8.2,8.2C406.3,711.7,404,714.8,398.1,715.7z M398.1,700.7v13.9c5.2-0.8,7.1-3.4,7.1-6.7
						C405.2,704.7,403.3,701.6,398.1,700.7z"/>
					<path class="st0" d="M398.9,721.6h-2.8v-43.2h2.8v5.2c4.5,1.3,7.2,4.3,7.7,8.8l0.1,0.9l-2.8,0.3l-0.1-0.8
						c-0.4-3.2-2-5.2-4.9-6.2v12.4c7.1,1.4,8.2,6.2,8.2,9c0,2.6-1.1,7.2-8.2,8.5V721.6z M398.9,701.8v11.8c3.6-0.8,5.4-2.7,5.4-5.7
						C404.4,704.8,402.4,702.6,398.9,701.8z M392.3,721.6h-2.8v-5.2c-5.6-1.2-8.9-4.5-9.3-9.5l-0.1-0.8l2.8-0.3l0.1,0.9
						c0.3,3.6,2.5,5.9,6.5,6.9v-13.1c-4.9-0.9-7.7-4-7.7-8.4c0-4.2,2.9-7.3,7.7-8.5v-5.1h2.8V721.6z M389.5,686.4
						c-3.1,0.9-4.9,3-4.9,5.6c0,3,1.7,4.9,4.9,5.6V686.4z"/>
				</g>
				<path class="st0" d="M410.6,705.7l14.3-1.3c0.1,4.2,1.5,6.1,3.6,6.1c2.1,0,3.2-1.6,3.2-4.1c0-3-1.5-4.7-3.6-4.7
					c-1.1,0-1.9,0.4-2.6,1l-13.9-2.2l2.7-25h31.6v13h-20.7l-0.4,3.3c-0.2,1.3-0.4,2.6-0.7,3.6l0.5,0.4c1.8-1.7,4.8-3.2,9-3.2
					c7.6,0,13.6,5.6,13.6,13.8c0,9.8-5.8,15.5-18.3,15.5C417.5,721.6,411,715.5,410.6,705.7z"/>
				<path class="st0" d="M449.8,705.7l14.3-1.3c0.1,4.2,1.5,6.1,3.6,6.1c2.1,0,3.2-1.6,3.2-4.1c0-3-1.5-4.7-3.6-4.7
					c-1.1,0-1.9,0.4-2.6,1l-13.9-2.2l2.7-25H485v13h-20.7l-0.4,3.3c-0.2,1.3-0.4,2.6-0.7,3.6l0.5,0.4c1.8-1.7,4.8-3.2,9-3.2
					c7.6,0,13.6,5.6,13.6,13.8c0,9.8-5.8,15.5-18.3,15.5C456.8,721.6,450.2,715.5,449.8,705.7z"/>
				<path class="st0" d="M492.6,729.2l1.8-7.8c-3.1-0.7-5-3-5-6.7c0-4.5,2.8-6.9,7.4-6.9h1.2c4.5,0,7.5,2.4,7.5,7.4
					c0,4.1-2.6,10.1-4.7,14H492.6z"/>
				<path class="st0" d="M545.7,699.8c0,15-6.3,21.8-18.5,21.8c-12.2,0-18.5-6.9-18.5-21.8v-3.6c0-15,6.3-21.8,18.5-21.8
					c12.2,0,18.5,6.9,18.5,21.8V699.8z M531.2,700.4v-4.9c0-5.7-1.5-7.6-3.9-7.6c-2.5,0-3.9,1.9-3.9,7.6v4.9c0,5.7,1.5,7.6,3.9,7.6
					C529.7,708,531.2,706.1,531.2,700.4z"/>
				<path class="st0" d="M586.4,699.8c0,15-6.3,21.8-18.5,21.8c-12.2,0-18.5-6.9-18.5-21.8v-3.6c0-15,6.3-21.8,18.5-21.8
					c12.2,0,18.5,6.9,18.5,21.8V699.8z M571.8,700.4v-4.9c0-5.7-1.5-7.6-3.9-7.6c-2.5,0-3.9,1.9-3.9,7.6v4.9c0,5.7,1.5,7.6,3.9,7.6
					C570.4,708,571.8,706.1,571.8,700.4z"/>
				<path class="st0" d="M627,699.8c0,15-6.3,21.8-18.5,21.8c-12.2,0-18.5-6.9-18.5-21.8v-3.6c0-15,6.3-21.8,18.5-21.8
					c12.2,0,18.5,6.9,18.5,21.8V699.8z M612.4,700.4v-4.9c0-5.7-1.5-7.6-3.9-7.6c-2.5,0-3.9,1.9-3.9,7.6v4.9c0,5.7,1.5,7.6,3.9,7.6
					C611,708,612.4,706.1,612.4,700.4z"/>
			</g>
			<g>
				<g>
					<path class="st0" d="M728.7,588.6c-3.1,11.2-8.9,15.8-19.3,15.8c-8.4,0-12.4-3.8-12.4-10.7c0-1.9,0.3-4.1,0.9-6.5l1.2-4.5
						c3.4-12.2,8.9-17.2,19.7-17.2c8.4,0,12.5,3.8,12.5,10.7c0,1.5-0.2,3.2-0.7,5.1l-12.2,0.8c0.3-1,0.5-2.1,0.5-2.9
						c0-1.9-0.9-2.5-2.6-2.5c-2.3,0-3.5,1.2-4.8,5.5l-1.6,5.5c-0.3,1.2-0.5,2.1-0.5,2.9c0,1.9,1,2.5,2.7,2.5c2.3,0,3.5-1.2,4.9-5.5
						L728.7,588.6z"/>
					<path class="st0" d="M763.4,587.2c-3.4,12.2-9,17.2-19.8,17.2c-8.4,0-12.5-3.8-12.5-10.7c0-1.9,0.3-4.1,0.9-6.5l1.2-4.5
						c3.4-12.2,9-17.2,19.8-17.2c8.4,0,12.5,3.8,12.5,10.7c0,1.9-0.3,4.1-0.9,6.5L763.4,587.2z M752.7,582.2
						c0.3-1.2,0.5-2.1,0.5-2.9c0-1.9-1.1-2.5-2.8-2.5c-2.3,0-3.6,1.2-4.9,5.5l-1.6,5.5c-0.3,1.2-0.5,2.1-0.5,2.9
						c0,1.9,1.1,2.5,2.8,2.5c2.3,0,3.6-1.2,4.9-5.5L752.7,582.2z"/>
					<path class="st0" d="M786.2,603.7h-5l-1.2-12.4c-0.1-1.5-0.2-3.4-0.2-5c0-0.4,0-1,0-1.8h-0.6c-0.3,2.3-0.8,6-1.7,9l-2.7,10.3
						h-11.2l10-37.3h14.2l0.5,12.9c0,0.9,0,1.7,0,2.7c0,0.8,0,2-0.1,2.7h0.6c1-2.3,2-3.9,2.9-5.5l7.9-12.9h15.2l-10,37.3h-12.2
						l2.7-10.3c0.8-3,2.2-6.7,3.2-9h-0.6c-1,2.1-2.4,4.7-3.8,6.8L786.2,603.7z"/>
					<path class="st0" d="M820.8,566.3h16.5c6.9,0,10.7,2.8,10.7,7.4c0,2.6-1.1,5.3-3.3,7.3c-2,1.7-4.9,2.6-8.4,2.7l-0.1,0.6
						c4.6,0.1,7.7,2.3,7.7,6.8c0,3.4-1.3,7.3-4.4,9.7c-2.4,1.9-6,2.9-10.4,2.9h-18.3L820.8,566.3z M827.2,588.2l-1.7,6.5h1.4
						c3.5,0,4.8-2,4.8-4.3c0-1.4-1.1-2.2-3.5-2.2H827.2z M830.8,574.9l-1.7,6.5h1.4c3.2,0,4.5-2.2,4.5-4.5c0-1.3-0.8-1.9-2.7-1.9
						H830.8z"/>
					<path class="st0" d="M879.7,587.2c-3.4,12.2-9,17.2-19.8,17.2c-8.4,0-12.5-3.8-12.5-10.7c0-1.9,0.3-4.1,0.9-6.5l1.2-4.5
						c3.4-12.2,9-17.2,19.8-17.2c8.4,0,12.5,3.8,12.5,10.7c0,1.9-0.3,4.1-0.9,6.5L879.7,587.2z M869.1,582.2
						c0.3-1.2,0.5-2.1,0.5-2.9c0-1.9-1.1-2.5-2.8-2.5c-2.3,0-3.6,1.2-4.9,5.5l-1.6,5.5c-0.3,1.2-0.5,2.1-0.5,2.9
						c0,1.9,1.1,2.5,2.8,2.5c2.3,0,3.6-1.2,4.9-5.5L869.1,582.2z"/>
					<path class="st0" d="M930.9,566.3l-18.6,37.3h-16.8l1-37.3h12.1l-1.8,21c-0.2,2.1-0.3,3.1-0.7,5.2h0.6c0.7-2,1.2-3.1,2.1-5.2
						l9.2-21H930.9z"/>
					<path class="st0" d="M945.9,566.3l-10,37.3h-12.2l10-37.3H945.9z"/>
					<path class="st0" d="M956.8,593.7l-2.7,10h-12.2l10-37.3h14.8c8.1,0,12.1,3.2,12.1,9.5c0,4.7-1.7,10.7-5.1,13.9
						c-2.8,2.7-6.9,4-11.8,4H956.8z M961.5,576l-2.3,8.5h0.9c4,0,5.6-3.1,5.6-5.9c0-1.7-1-2.5-3.3-2.5H961.5z"/>
				</g>
			</g>
			<g>
				<path class="st0" d="M986.8,741.8H678.2V626.3h308.5V741.8z M678.7,741.3h307.6V626.8H678.7V741.3z"/>
				<g>
					<path class="st0" d="M909.6,643.9h-0.9v11.4h0.9c1.2,0,2.1-0.5,2.6-1.5c0.5-1,0.8-2.4,0.8-4.3c0-1.9-0.3-3.3-0.8-4.3
						C911.7,644.4,910.8,643.9,909.6,643.9z"/>
					<path class="st0" d="M677.9,626.5v45.8h309.1v-45.8H677.9z M745.2,642.5l-3.7,5.6c-1.1,1.7-1.9,3.5-2.5,5.5
						c-0.5,2-0.8,4.1-0.8,6.2c0,0.4,0,0.9,0.1,1.3c0,0.4,0.1,0.9,0.1,1.3h-9.9c0-2.6,0.5-5.2,1.5-7.8c1-2.7,2.5-5,4.6-7l2.7-2.6
						v-0.4c-0.3,0-0.7,0.1-1.1,0.1c-0.4,0-0.9,0.1-1.6,0.1h-9v-8.3h19.7V642.5z M762.7,654.5c0.4,0.5,1,0.8,1.8,0.8
						c0.8,0,1.4-0.3,1.8-0.8c0.4-0.5,0.7-1.5,0.7-3l8.3,0.6c-0.1,3.8-1.1,6.5-3,8.3c-1.8,1.8-4.4,2.7-7.8,2.7c-3.5,0-6.2-1-8-2.9
						c-1.8-1.9-2.7-4.9-2.7-9v-3.1c0-4.1,0.9-7.1,2.7-9c1.8-1.9,4.5-2.9,8-2.9c3.4,0,6,0.9,7.8,2.7c1.8,1.8,2.8,4.6,3,8.3l-8.3,0.6
						c0-1.5-0.2-2.5-0.7-3c-0.4-0.5-1-0.8-1.8-0.8c-0.8,0-1.4,0.3-1.8,0.8c-0.4,0.5-0.7,1.5-0.7,3v3.8
						C762,653,762.2,654,762.7,654.5z M799.5,651.5c0,4-0.9,6.9-2.7,8.8c-1.8,1.9-4.5,2.8-8,2.8c-3.6,0-6.3-0.9-8.1-2.8
						c-1.8-1.9-2.7-4.8-2.7-8.8v-14.9h8.3v15.2c0,1.3,0.2,2.2,0.7,2.7c0.5,0.5,1.1,0.7,1.9,0.7c0.8,0,1.4-0.2,1.9-0.7
						c0.5-0.5,0.7-1.4,0.7-2.7v-15.2h8V651.5z M824,651.2c0,4.1-0.9,7.1-2.8,9c-1.9,1.9-4.6,2.9-8.1,2.9c-3.5,0-6.3-1-8.1-2.9
						c-1.9-1.9-2.8-4.9-2.8-9v-3.1c0-4.1,0.9-7.1,2.8-9c1.9-1.9,4.6-2.9,8.1-2.9c3.5,0,6.3,1,8.1,2.9c1.9,1.9,2.8,4.9,2.8,9V651.2z
						 M839.9,662.6h-8.3v-18h-5.9v-8h20.1v8h-5.9V662.6z M860.8,662.6l-0.8-4.4h-5.2l-0.8,4.4h-8.4l6.6-25.9h10.7l6.6,25.9H860.8z
						 M888,660.9c-1.8,1.5-4.5,2.2-8,2.2c-3.2,0-5.7-0.7-7.4-2.1c-1.7-1.4-2.7-3.6-2.8-6.5l8.3-0.4c0,0.9,0.2,1.5,0.5,1.8
						c0.3,0.3,0.8,0.5,1.5,0.5c0.6,0,1.1-0.1,1.5-0.4c0.3-0.3,0.5-0.7,0.5-1.2c0-0.5-0.1-0.9-0.4-1.1c-0.3-0.2-0.7-0.4-1.2-0.6
						l-4.3-1.3c-2.1-0.6-3.6-1.5-4.5-2.7c-0.9-1.2-1.4-2.7-1.4-4.5c0-2.7,0.9-4.7,2.6-6.2c1.7-1.5,4.3-2.2,7.6-2.2
						c3,0,5.3,0.7,7,2.1c1.7,1.4,2.6,3.6,2.7,6.5l-8.2,0.4c0-0.9-0.2-1.6-0.5-1.9c-0.3-0.3-0.8-0.5-1.3-0.5c-0.6,0-1,0.1-1.3,0.4
						c-0.3,0.3-0.5,0.7-0.5,1.3c0,0.5,0.1,0.9,0.4,1.2c0.3,0.3,0.6,0.5,1.1,0.6l4.7,1.2c2.1,0.6,3.7,1.5,4.6,2.8
						c0.9,1.3,1.4,2.9,1.4,4.7C890.7,657.5,889.8,659.5,888,660.9z M919.5,659.4c-1.6,2.1-4.2,3.2-7.7,3.2h-11.3v-25.9h11.3
						c3.6,0,6.2,1,7.7,3.1c1.6,2.1,2.4,5.4,2.4,9.8C921.9,654,921.1,657.3,919.5,659.4z M943.6,662.6H925v-25.9h18.3v7.3h-10v2.9
						h8.5v5.5h-8.5v2.8h10.4V662.6z"/>
					<path class="st0" d="M858.5,649.9l-0.5-2.5c-0.1-0.5-0.2-1.1-0.3-1.6c-0.1-0.5-0.1-1.1-0.2-1.7h-0.4c0,0.6-0.1,1.2-0.2,1.7
						c-0.1,0.5-0.2,1.1-0.3,1.6l-0.4,2.5c-0.1,0.4-0.2,0.7-0.2,1.1c-0.1,0.4-0.2,0.6-0.2,0.8l0.3,0.3c0.2,0,0.4,0,0.6-0.1
						c0.2,0,0.4,0,0.7,0h0c0.2,0,0.5,0,0.7,0c0.2,0,0.4,0,0.6,0.1l0.3-0.3c-0.1-0.2-0.2-0.4-0.2-0.8
						C858.7,650.7,858.6,650.3,858.5,649.9z"/>
					<path class="st0" d="M813.2,643.9c-0.8,0-1.4,0.3-1.9,0.8c-0.5,0.5-0.7,1.5-0.7,3v3.8c0,1.5,0.2,2.5,0.7,3
						c0.5,0.5,1.1,0.8,1.9,0.8c0.8,0,1.4-0.3,1.9-0.8c0.5-0.5,0.7-1.5,0.7-3v-3.8c0-1.5-0.2-2.5-0.7-3
						C814.6,644.2,814,643.9,813.2,643.9z"/>
				</g>
				<g>
					<g>
						<path class="st0" d="M701.2,723.9V719c-5.1-0.8-8.5-3.7-9-8.5l1.1-0.1c0.4,4.4,3.5,6.8,7.9,7.6v-14.3c-5-0.7-7.4-3.5-7.4-7.4
							c0-3.5,2.4-6.5,7.4-7.5v-4.8h1.1v39.8H701.2z M701.2,702.7v-12.8c-4.4,0.9-6.4,3.5-6.4,6.5
							C694.8,699.6,696.7,702.1,701.2,702.7z M708.6,719.1v4.8h-1.1v-39.8h1.1v4.8c4.1,1,6.9,3.5,7.4,7.9l-1.1,0.1
							c-0.5-3.9-2.8-6.1-6.3-7v13.7c5.8,0.9,7.9,4.2,7.9,7.9C716.5,715.3,714.3,718.2,708.6,719.1z M708.6,704.7v13.4
							c5-0.8,6.8-3.3,6.8-6.5C715.5,708.6,713.6,705.5,708.6,704.7z"/>
						<path class="st0" d="M709.4,724.7h-2.7v-41.5h2.7v5c4.4,1.2,6.9,4.1,7.4,8.5l0.1,0.8l-2.7,0.3l-0.1-0.8c-0.4-3-1.9-5-4.7-6
							V703c6.9,1.3,7.9,5.9,7.9,8.6c0,2.5-1,6.9-7.9,8.2V724.7z M709.4,705.7v11.4c3.5-0.8,5.2-2.6,5.2-5.5
							C714.6,708.7,712.8,706.6,709.4,705.7z M703.1,724.7h-2.7v-5c-5.4-1.1-8.5-4.3-9-9.1l-0.1-0.8l2.7-0.3l0.1,0.8
							c0.3,3.5,2.4,5.7,6.3,6.7v-12.6c-4.7-0.9-7.4-3.8-7.4-8.1c0-4,2.8-7.1,7.4-8.2v-4.9h2.7V724.7z M700.4,690.9
							c-3,0.9-4.7,2.8-4.7,5.4c0,2.9,1.6,4.7,4.7,5.4V690.9z"/>
					</g>
					<path class="st0" d="M756.6,711.4v12.5h-34.4V714l11.3-7.9c6.7-4.7,8.7-7.1,8.7-10c0-1.9-0.8-3.7-2.8-3.7
						c-1.9,0-3.6,1.6-3.6,6.2c0,0.5,0,1,0.1,1.6l-13.9-0.7c0.2-13.6,6.9-20.3,17.9-20.3c10.1,0,16.4,6.3,16.4,15
						c0,8.1-5.4,12-12.9,15.3l-3.1,1.3v0.7c1.2-0.2,2.4-0.3,4.6-0.3H756.6z"/>
					<path class="st0" d="M796.1,703.8c0,14.4-6.1,21-17.8,21s-17.8-6.6-17.8-21v-3.5c0-14.4,6.1-21,17.8-21s17.8,6.6,17.8,21V703.8
						z M782.2,704.4v-4.7c0-5.5-1.4-7.3-3.8-7.3s-3.8,1.8-3.8,7.3v4.7c0,5.5,1.4,7.3,3.8,7.3S782.2,709.9,782.2,704.4z"/>
					<path class="st0" d="M835.1,703.8c0,14.4-6.1,21-17.8,21s-17.8-6.6-17.8-21v-3.5c0-14.4,6.1-21,17.8-21s17.8,6.6,17.8,21V703.8
						z M821.2,704.4v-4.7c0-5.5-1.4-7.3-3.8-7.3s-3.8,1.8-3.8,7.3v4.7c0,5.5,1.4,7.3,3.8,7.3S821.2,709.9,821.2,704.4z"/>
					<path class="st0" d="M841.4,732.1l1.7-7.5c-3-0.7-4.8-2.9-4.8-6.4c0-4.4,2.7-6.6,7.1-6.6h1.1c4.4,0,7.2,2.3,7.2,7.1
						c0,3.9-2.5,9.7-4.5,13.4H841.4z"/>
					<path class="st0" d="M892.4,703.8c0,14.4-6.1,21-17.8,21s-17.8-6.6-17.8-21v-3.5c0-14.4,6.1-21,17.8-21s17.8,6.6,17.8,21V703.8
						z M878.5,704.4v-4.7c0-5.5-1.4-7.3-3.8-7.3s-3.8,1.8-3.8,7.3v4.7c0,5.5,1.4,7.3,3.8,7.3S878.5,709.9,878.5,704.4z"/>
					<path class="st0" d="M931.4,703.8c0,14.4-6.1,21-17.8,21s-17.8-6.6-17.8-21v-3.5c0-14.4,6.1-21,17.8-21s17.8,6.6,17.8,21V703.8
						z M917.5,704.4v-4.7c0-5.5-1.4-7.3-3.8-7.3s-3.8,1.8-3.8,7.3v4.7c0,5.5,1.4,7.3,3.8,7.3S917.5,709.9,917.5,704.4z"/>
					<path class="st0" d="M970.4,703.8c0,14.4-6.1,21-17.8,21s-17.8-6.6-17.8-21v-3.5c0-14.4,6.1-21,17.8-21s17.8,6.6,17.8,21V703.8
						z M956.5,704.4v-4.7c0-5.5-1.4-7.3-3.8-7.3s-3.8,1.8-3.8,7.3v4.7c0,5.5,1.4,7.3,3.8,7.3S956.5,709.9,956.5,704.4z"/>
				</g>
			</g>
			<rect x="657.2" y="552" class="st0" width="5.5" height="185.6"/>
			<g>
				<path class="st0" d="M109.9,504.6c-3.9,13.8-10.9,19.5-23.8,19.5c-10.4,0-15.4-4.7-15.4-13.2c0-2.4,0.4-5,1.2-8l1.5-5.5
					c4.2-15.1,10.9-21.2,24.3-21.2c10.4,0,15.4,4.7,15.4,13.2c0,1.9-0.3,4-0.9,6.3l-15.1,1c0.4-1.3,0.6-2.6,0.6-3.6
					c0-2.4-1.2-3.1-3.3-3.1c-2.9,0-4.4,1.5-6,6.8l-2,6.8c-0.4,1.5-0.7,2.6-0.7,3.6c0,2.4,1.2,3.1,3.3,3.1c2.9,0,4.4-1.5,6.1-6.8
					L109.9,504.6z"/>
				<path class="st0" d="M152.7,502.9c-4.2,15.1-11.1,21.2-24.4,21.2c-10.4,0-15.5-4.7-15.5-13.2c0-2.4,0.4-5,1.2-8l1.5-5.5
					c4.2-15.1,11.1-21.2,24.4-21.2c10.4,0,15.5,4.7,15.5,13.2c0,2.4-0.4,5-1.2,8L152.7,502.9z M139.5,496.8c0.4-1.5,0.7-2.6,0.7-3.6
					c0-2.4-1.4-3.1-3.4-3.1c-2.9,0-4.5,1.5-6.1,6.8l-2,6.8c-0.4,1.5-0.7,2.6-0.7,3.6c0,2.4,1.4,3.1,3.4,3.1c2.9,0,4.5-1.5,6.1-6.8
					L139.5,496.8z"/>
				<path class="st0" d="M180.8,523.2h-6.2l-1.5-15.4c-0.2-1.9-0.3-4.2-0.3-6.2c0-0.5,0-1.2,0.1-2.2h-0.7c-0.4,2.8-1,7.4-2.1,11.1
					l-3.4,12.7h-13.8l12.4-46.1h17.6l0.7,15.9c0.1,1.1,0.1,2.2,0.1,3.4c0,1-0.1,2.5-0.1,3.4h0.7c1.2-2.8,2.5-4.9,3.6-6.8l9.8-15.9
					h18.7l-12.4,46.1h-15.1l3.4-12.7c1-3.7,2.7-8.3,3.9-11.1h-0.8c-1.3,2.6-3,5.8-4.7,8.4L180.8,523.2z"/>
				<path class="st0" d="M229.7,510.9l-3.3,12.3h-15.1l12.4-46.1h18.3c10,0,14.9,3.9,14.9,11.7c0,5.8-2.2,13.2-6.3,17.1
					c-3.4,3.3-8.5,5-14.6,5H229.7z M235.5,489.1l-2.8,10.4h1.2c5,0,6.9-3.9,6.9-7.3c0-2.1-1.3-3.1-4.1-3.1H235.5z"/>
				<path class="st0" d="M272,509l-3.8,14.2h-15.1l12.4-46.1h20.7c8.5,0,13,3.4,13,9.5c0,4.1-1.5,8.8-4.7,11.9
					c-2.5,2.5-6.1,3.6-10.5,3.7l-0.2,0.7l1.2,0.2c4.2,0.7,6.1,3.5,6.6,9.4l0.9,10.7h-15.7l-0.6-11.1c-0.1-2.4-1.1-3.1-3.7-3.1H272z
					 M277.8,487.7l-3,11.1h1.9c3.8,0,6.3-4.1,6.3-8c0-2.2-0.9-3.1-3.1-3.1H277.8z"/>
				<path class="st0" d="M319.7,515.4h-9l-3.5,7.8h-15.5l23.3-46.1h20l-0.9,46.1h-15.1L319.7,515.4z M318.1,504.3
					c0.9,0,1.7,0.1,2.2,0.2l0.8-0.5c-0.1-0.6-0.1-1.1-0.1-1.4c0-0.9,0.1-1.8,0.1-2.4l0.3-4c0.1-1.9,0.4-3.7,0.8-5.9h-0.7
					c-0.7,2.2-1.5,4-2.4,5.9l-2,4.5c-0.6,1.3-1.4,2.7-1.7,3.3l0.4,0.5C316.4,504.4,317.2,504.3,318.1,504.3L318.1,504.3z"/>
				<path class="st0" d="M381.3,491.2l-8.5,32h-15.1l8.5-32h-10.3l3.8-14.1h35.6l-3.8,14.1H381.3z"/>
				<path class="st0" d="M407.5,504.1c-0.4,1.4-0.6,2.5-0.6,3.4c0,2.1,1.1,2.8,3.1,2.8c2.9,0,4.6-1.4,5.9-6.1l7.3-27h14.5l-7.1,26.4
					c-3.9,14.7-11.2,20.6-23.4,20.6c-10.6,0-15.9-4.6-15.9-12.7c0-2.3,0.3-4.9,1.1-7.9l7.1-26.4h15.1L407.5,504.1z"/>
				<path class="st0" d="M486,504.6c-3.9,13.8-10.9,19.5-23.8,19.5c-10.4,0-15.4-4.7-15.4-13.2c0-2.4,0.4-5,1.2-8l1.5-5.5
					c4.2-15.1,10.9-21.2,24.3-21.2c10.4,0,15.4,4.7,15.4,13.2c0,1.9-0.3,4-0.9,6.3l-15.1,1c0.4-1.3,0.6-2.6,0.6-3.6
					c0-2.4-1.2-3.1-3.3-3.1c-2.9,0-4.4,1.5-6,6.8l-2,6.8c-0.4,1.5-0.7,2.6-0.7,3.6c0,2.4,1.2,3.1,3.3,3.1c2.9,0,4.4-1.5,6.1-6.8
					L486,504.6z"/>
				<path class="st0" d="M528.8,502.9c-4.2,15.1-11.1,21.2-24.4,21.2c-10.4,0-15.5-4.7-15.5-13.2c0-2.4,0.4-5,1.2-8l1.5-5.5
					c4.2-15.1,11.1-21.2,24.4-21.2c10.4,0,15.5,4.7,15.5,13.2c0,2.4-0.4,5-1.2,8L528.8,502.9z M515.7,496.8c0.4-1.5,0.7-2.6,0.7-3.6
					c0-2.4-1.4-3.1-3.4-3.1c-2.9,0-4.5,1.5-6.1,6.8l-2,6.8c-0.4,1.5-0.7,2.6-0.7,3.6c0,2.4,1.4,3.1,3.4,3.1c2.9,0,4.5-1.5,6.1-6.8
					L515.7,496.8z"/>
				<path class="st0" d="M557,523.2h-6.2l-1.5-15.4c-0.2-1.9-0.3-4.2-0.3-6.2c0-0.5,0-1.2,0.1-2.2h-0.7c-0.4,2.8-1,7.4-2.1,11.1
					l-3.4,12.7h-13.8l12.4-46.1h17.6l0.7,15.9c0.1,1.1,0.1,2.2,0.1,3.4c0,1-0.1,2.5-0.1,3.4h0.7c1.2-2.8,2.5-4.9,3.6-6.8l9.8-15.9
					h18.7L580,523.2H565l3.4-12.7c1-3.7,2.7-8.3,3.9-11.1h-0.8c-1.3,2.6-3,5.8-4.7,8.4L557,523.2z"/>
				<path class="st0" d="M599.7,477.1h20.4c8.5,0,13.2,3.4,13.2,9.1c0,3.3-1.4,6.6-4.1,9c-2.5,2.1-6,3.3-10.3,3.3l-0.2,0.7
					c5.7,0.1,9.5,2.8,9.5,8.4c0,4.2-1.7,9-5.5,12c-3,2.4-7.4,3.6-12.8,3.6h-22.6L599.7,477.1z M607.6,504.1l-2.2,8.1h1.8
					c4.3,0,5.9-2.5,5.9-5.3c0-1.8-1.4-2.7-4.4-2.7H607.6z M612,487.7l-2.2,8h1.8c3.9,0,5.5-2.7,5.5-5.6c0-1.6-1-2.4-3.4-2.4H612z"/>
				<path class="st0" d="M672.5,502.9c-4.2,15.1-11.1,21.2-24.4,21.2c-10.4,0-15.5-4.7-15.5-13.2c0-2.4,0.4-5,1.2-8l1.5-5.5
					c4.2-15.1,11.1-21.2,24.4-21.2c10.4,0,15.5,4.7,15.5,13.2c0,2.4-0.4,5-1.2,8L672.5,502.9z M659.3,496.8c0.4-1.5,0.7-2.6,0.7-3.6
					c0-2.4-1.4-3.1-3.4-3.1c-2.9,0-4.5,1.5-6.1,6.8l-2,6.8c-0.4,1.5-0.7,2.6-0.7,3.6c0,2.4,1.4,3.1,3.4,3.1c2.9,0,4.5-1.5,6.1-6.8
					L659.3,496.8z"/>
				<path class="st0" d="M708.9,515.4h-9l-3.5,7.8h-15.5l23.3-46.1h20l-0.9,46.1h-15.1L708.9,515.4z M707.2,504.3
					c0.9,0,1.7,0.1,2.2,0.2l0.8-0.5c-0.1-0.6-0.1-1.1-0.1-1.4c0-0.9,0.1-1.8,0.1-2.4l0.3-4c0.1-1.9,0.4-3.7,0.8-5.9h-0.7
					c-0.7,2.2-1.5,4-2.4,5.9l-2,4.5c-0.6,1.3-1.4,2.7-1.7,3.3l0.4,0.5C705.5,504.4,706.3,504.3,707.2,504.3L707.2,504.3z"/>
				<path class="st0" d="M780.5,504.6c-3.9,13.8-10.9,19.5-23.8,19.5c-10.4,0-15.4-4.7-15.4-13.2c0-2.4,0.4-5,1.2-8l1.5-5.5
					c4.2-15.1,10.9-21.2,24.3-21.2c10.4,0,15.4,4.7,15.4,13.2c0,1.9-0.3,4-0.9,6.3l-15.1,1c0.4-1.3,0.6-2.6,0.6-3.6
					c0-2.4-1.2-3.1-3.3-3.1c-2.9,0-4.4,1.5-6,6.8l-2,6.8c-0.4,1.5-0.7,2.6-0.7,3.6c0,2.4,1.2,3.1,3.3,3.1c2.9,0,4.4-1.5,6.1-6.8
					L780.5,504.6z"/>
				<path class="st0" d="M800.7,504.1c-0.4,1.4-0.6,2.5-0.6,3.4c0,2.1,1.1,2.8,3.1,2.8c2.9,0,4.6-1.4,5.9-6.1l7.3-27h14.5l-7.1,26.4
					c-3.9,14.7-11.2,20.6-23.4,20.6c-10.6,0-15.9-4.6-15.9-12.7c0-2.3,0.3-4.9,1.1-7.9l7.1-26.4h15.1L800.7,504.1z"/>
				<path class="st0" d="M867.6,502.9c-4.2,15.1-11.1,21.2-24.4,21.2c-10.4,0-15.5-4.7-15.5-13.2c0-2.4,0.4-5,1.2-8l1.5-5.5
					c4.2-15.1,11.1-21.2,24.4-21.2c10.4,0,15.5,4.7,15.5,13.2c0,2.4-0.4,5-1.2,8L867.6,502.9z M854.4,496.8c0.4-1.5,0.7-2.6,0.7-3.6
					c0-2.4-1.4-3.1-3.4-3.1c-2.9,0-4.5,1.5-6.1,6.8l-2,6.8c-0.4,1.5-0.7,2.6-0.7,3.6c0,2.4,1.4,3.1,3.4,3.1c2.9,0,4.5-1.5,6.1-6.8
					L854.4,496.8z"/>
				<path class="st0" d="M899.2,491.2l-8.5,32h-15.1l8.5-32h-10.3l3.8-14.1h35.6l-3.8,14.1H899.2z"/>
				<path class="st0" d="M928.6,515.4h-9l-3.5,7.8h-15.5l23.3-46.1h20l-0.9,46.1h-15.1L928.6,515.4z M927,504.3
					c0.9,0,1.7,0.1,2.2,0.2l0.8-0.5c-0.1-0.6-0.1-1.1-0.1-1.4c0-0.9,0.1-1.8,0.1-2.4l0.3-4c0.1-1.9,0.4-3.7,0.8-5.9h-0.7
					c-0.7,2.2-1.5,4-2.4,5.9l-2,4.5c-0.6,1.3-1.4,2.7-1.7,3.3l0.4,0.5C925.2,504.4,926,504.3,927,504.3L927,504.3z"/>
				<path class="st0" d="M978.3,519.6c-3.7,3-9.3,4.5-16.2,4.5c-10,0-15-3.7-15-11.6c0-1.2,0.1-2.4,0.3-3.7l15-0.7
					c-0.2,0.7-0.3,1.4-0.3,1.9c0,1.7,1,2.2,2.7,2.2c2.6,0,4.4-1.6,4.4-3.6c0-1.4-1-2.2-2.5-2.6l-5.5-1.7c-5.5-1.7-8.5-5-8.5-10.3
					c0-4.7,2.5-10.4,7.5-14c3.6-2.6,8.6-3.9,14.4-3.9c9.3,0,14.1,3.7,14.1,11.5c0,1.2-0.1,2.4-0.3,3.7l-14.8,0.7
					c0.2-0.9,0.4-1.6,0.4-2.2c0-1.6-0.9-2.1-2.4-2.1c-2.6,0-4.1,1.8-4.1,3.7c0,1.5,0.9,2.4,2.2,2.7l6.3,1.5c5.6,1.4,8.8,5,8.8,10.6
					C984.8,510.8,982.7,516.1,978.3,519.6z"/>
			</g>
			<g>
				<path class="st0" d="M67.6,765.6l-1.1,4.1H66l1.1-4l-4,2l-0.1-0.4l4.1-2l-3-2l0.3-0.4l3,2l1.1-4.1h0.5l-1.1,4l4-2l0.2,0.4
					l-4.1,2l3,2l-0.3,0.4L67.6,765.6z"/>
				<path class="st0" d="M79.9,760.8h5.9l-3.4,12.6h5.7l-1.5,5.6H75L79.9,760.8z"/>
				<path class="st0" d="M97.7,765c3.5,0,5.4,2,5.4,4.8c0,0.6-0.1,1.3-0.3,1.9l-0.3,1.2c-1.2,4.3-3.7,6.4-8.3,6.4
					c-3.5,0-5.4-2-5.4-4.8c0-0.6,0.1-1.2,0.3-1.9l0.3-1.2C90.6,767.2,93.2,765,97.7,765z M94.5,773c-0.1,0.3-0.1,0.5-0.1,0.7
					c0,0.6,0.3,0.9,1,0.9c0.8,0,1.3-0.6,1.7-1.7l0.5-1.7c0.1-0.3,0.1-0.5,0.1-0.7c0-0.6-0.3-0.9-1-0.9c-0.8,0-1.3,0.6-1.7,1.7
					L94.5,773z"/>
				<path class="st0" d="M106.6,766.6c1.2-1,2.9-1.6,5.1-1.6c3,0,5.2,1.3,5.2,3.5c0,0.3,0,0.7-0.1,1l-5.2,0.3c0-0.1,0.1-0.3,0.1-0.4
					c0-0.4-0.2-0.6-0.7-0.6c-0.7,0-1,0.4-1,0.8c0,0.4,0.2,0.6,0.8,0.7l2,0.4c1.9,0.4,3.2,1.5,3.2,3.2c0,1.3-0.7,2.6-2.1,3.7
					c-1.3,1-3.2,1.6-5.3,1.6c-3.2,0-5.4-1.3-5.4-3.6c0-0.3,0-0.6,0.1-0.9l5.2-0.4c0,0.1,0,0.2,0,0.3c0,0.4,0.3,0.6,0.8,0.6
					c0.7,0,1.2-0.4,1.2-0.8c0-0.4-0.3-0.6-0.8-0.7l-1.8-0.5c-1.7-0.4-3.1-1.5-3.1-3.1C104.6,769,105.3,767.6,106.6,766.6z"/>
				<path class="st0" d="M120.1,782.3l4.5-16.9h5l-0.5,2.8h0.3c0.9-1.9,2.7-3.1,4.7-3.1c2,0,3.4,1.6,3.4,4.2c0,0.7-0.1,1.6-0.4,2.5
					l-0.3,1.1c-1.2,4.6-3.5,6.5-6.3,6.5c-2.1,0-3.2-1.2-3.5-2.5h-0.3c-0.1,1.3-0.2,2.6-0.5,3.8l-0.5,1.7H120.1z M128.6,772.3
					l-0.2,0.6c-0.1,0.2-0.1,0.5-0.1,0.7c0,0.6,0.4,1.1,1.1,1.1c0.9,0,1.6-0.7,1.9-1.8l0.2-0.6c0.1-0.3,0.1-0.5,0.1-0.7
					c0-0.6-0.4-1.1-1.1-1.1C129.6,770.5,128.9,771.2,128.6,772.3z"/>
				<path class="st0" d="M144.8,777.3c-0.7,1.2-2.4,2-4,2c-2.2,0-3.3-1.3-3.3-3.1c0-3.1,2.1-5.5,5.5-5.5c1.6,0,2.7,0.5,3,1h0.3
					c0-0.1,0.1-0.4,0.1-0.7c0-1-0.6-1.4-2.3-1.4c-1.4,0-2.7,0.3-3.6,0.6v-4.3c2-0.6,4-0.9,5.9-0.9c3.8,0,5.5,2,5.5,4.8
					c0,0.7-0.2,1.8-0.4,2.6l-1.8,6.6h-4.9l0.2-1.7H144.8z M143.1,775.1c0,0.5,0.3,0.8,0.8,0.8c0.8,0,1.4-0.7,1.4-1.7
					c0-0.5-0.3-0.8-0.8-0.8C143.7,773.4,143.1,774.1,143.1,775.1z"/>
				<path class="st0" d="M155.6,774c-1.5-0.6-2.1-1.5-2.1-2.8c0-0.4,0-0.8,0.2-1.2l0.1-0.3c0.9-3,3.3-4.6,8-4.6
					c1.3,0,2.2-0.6,2.7-2.7l5.4,0.4c-0.9,2.4-2.4,3.8-4.2,4l-0.5,0.1l-0.1,0.3l0.3,0.1c1.1,0.5,1.7,1.4,1.7,2.4c0,0.3,0,0.7-0.1,1.1
					l-0.1,0.3c-0.9,3.1-3.2,4.4-8.1,4.4c-1.5,0-1.8,0.5-1.8,0.9c0,0.4,0.3,0.7,0.9,0.7c0.7,0,1.8-0.1,2.5-0.1c2.9,0,4.2,1.1,4.2,3.6
					c0,0.5-0.1,1.1-0.2,1.7l-5.9,0.4c0-0.1,0-0.2,0-0.3c0-0.5-0.3-0.8-0.9-0.8c-0.8,0-1.6,0.1-2.4,0.1c-2.4,0-3.8-1.5-3.8-3.3
					c0-1.9,1.7-3.7,4.1-4.2L155.6,774z M159.1,770l-0.1,0.4c-0.1,0.3-0.1,0.4-0.1,0.7c0,0.6,0.3,1,1.1,1c0.9,0,1.5-0.7,1.8-1.6
					l0.1-0.4c0.1-0.3,0.1-0.4,0.1-0.7c0-0.6-0.3-1-1.1-1C160,768.4,159.3,769.1,159.1,770z"/>
				<path class="st0" d="M176.3,765c3.5,0,5.4,2,5.4,4.8c0,0.6-0.1,1.3-0.3,1.9l-0.3,1.2c-1.2,4.3-3.7,6.4-8.3,6.4
					c-3.5,0-5.4-2-5.4-4.8c0-0.6,0.1-1.2,0.3-1.9l0.3-1.2C169.2,767.2,171.8,765,176.3,765z M173.1,773c-0.1,0.3-0.1,0.5-0.1,0.7
					c0,0.6,0.3,0.9,1,0.9c0.8,0,1.3-0.6,1.7-1.7l0.5-1.7c0.1-0.3,0.1-0.5,0.1-0.7c0-0.6-0.3-0.9-1-0.9c-0.8,0-1.3,0.6-1.7,1.7
					L173.1,773z"/>
				<path class="st0" d="M185.2,766.6c1.2-1,2.9-1.6,5.1-1.6c3,0,5.2,1.3,5.2,3.5c0,0.3,0,0.7-0.1,1l-5.2,0.3c0-0.1,0.1-0.3,0.1-0.4
					c0-0.4-0.2-0.6-0.7-0.6c-0.7,0-1,0.4-1,0.8c0,0.4,0.2,0.6,0.8,0.7l2,0.4c1.9,0.4,3.2,1.5,3.2,3.2c0,1.3-0.7,2.6-2.1,3.7
					c-1.3,1-3.2,1.6-5.3,1.6c-3.2,0-5.4-1.3-5.4-3.6c0-0.3,0-0.6,0.1-0.9l5.2-0.4c0,0.1,0,0.2,0,0.3c0,0.4,0.3,0.6,0.8,0.6
					c0.7,0,1.2-0.4,1.2-0.8c0-0.4-0.3-0.6-0.8-0.7l-1.8-0.5c-1.7-0.4-3.1-1.5-3.1-3.1C183.2,769,183.9,767.6,185.2,766.6z"/>
				<path class="st0" d="M198.7,782.3l4.5-16.9h5l-0.5,2.8h0.3c0.9-1.9,2.7-3.1,4.7-3.1c2,0,3.4,1.6,3.4,4.2c0,0.7-0.1,1.6-0.4,2.5
					l-0.3,1.1c-1.2,4.6-3.5,6.5-6.3,6.5c-2.1,0-3.2-1.2-3.5-2.5h-0.3c-0.1,1.3-0.2,2.6-0.5,3.8l-0.5,1.7H198.7z M207.2,772.3
					l-0.2,0.6c-0.1,0.2-0.1,0.5-0.1,0.7c0,0.6,0.4,1.1,1.1,1.1c0.9,0,1.6-0.7,1.9-1.8l0.2-0.6c0.1-0.3,0.1-0.5,0.1-0.7
					c0-0.6-0.4-1.1-1.1-1.1C208.2,770.5,207.5,771.2,207.2,772.3z"/>
				<path class="st0" d="M223.4,777.3c-0.7,1.2-2.4,2-4,2c-2.2,0-3.3-1.3-3.3-3.1c0-3.1,2.1-5.5,5.5-5.5c1.6,0,2.7,0.5,3,1h0.3
					c0-0.1,0.1-0.4,0.1-0.7c0-1-0.6-1.4-2.3-1.4c-1.4,0-2.7,0.3-3.6,0.6v-4.3c2-0.6,4-0.9,5.9-0.9c3.8,0,5.5,2,5.5,4.8
					c0,0.7-0.2,1.8-0.4,2.6l-1.8,6.6h-4.9l0.2-1.7H223.4z M221.7,775.1c0,0.5,0.3,0.8,0.8,0.8c0.8,0,1.4-0.7,1.4-1.7
					c0-0.5-0.3-0.8-0.8-0.8C222.3,773.4,221.7,774.1,221.7,775.1z"/>
				<path class="st0" d="M237.7,772.6l-1.7,6.3h-5.6l3.6-13.5h4.9l-0.5,2.8h0.3c1-1.9,2.5-3.1,4.1-3.1c1.4,0,2.6,1.1,2.6,3.4
					c0,0.8-0.1,1.8-0.4,2.9l-5.3,0.8c0-0.2,0.1-0.5,0.1-0.7c0-0.5-0.2-0.8-0.6-0.8C238.6,770.7,238.1,771.1,237.7,772.6L237.7,772.6
					z"/>
				<path class="st0" d="M245.1,774.5c0-0.6,0.1-1.2,0.3-1.9l0.3-1.2c1.1-4.3,3.6-6.4,8-6.4c3.3,0,5.1,2,5.1,4.8
					c0,0.4,0,0.7-0.1,1.1l-5.4,0.4c0.1-0.2,0.1-0.5,0.1-0.7c0-0.6-0.2-0.9-0.7-0.9c-0.7,0-1.1,0.5-1.4,1.6l-0.5,1.7
					c-0.1,0.3-0.2,0.7-0.2,0.9c0,0.5,0.3,0.9,0.8,0.9c0.6,0,1.1-0.4,1.4-1.7l5.3,0.4c-1.2,3.9-3.6,5.9-7.8,5.9
					C246.9,779.3,245.1,777.3,245.1,774.5z"/>
				<path class="st0" d="M267.4,765.4l-3.6,13.5h-5.6l3.6-13.5H267.4z M265.2,764.1c-1.6,0-2.7-0.9-2.7-2.4c0-1.7,1.5-3.1,3.5-3.1
					h0.4c1.6,0,2.7,0.9,2.7,2.4c0,1.7-1.5,3.1-3.5,3.1H265.2z"/>
				<path class="st0" d="M273.6,777.3c-0.7,1.2-2.4,2-4,2c-2.2,0-3.3-1.3-3.3-3.1c0-3.1,2.1-5.5,5.5-5.5c1.6,0,2.7,0.5,3,1h0.3
					c0-0.1,0.1-0.4,0.1-0.7c0-1-0.6-1.4-2.3-1.4c-1.4,0-2.7,0.3-3.6,0.6v-4.3c2-0.6,4-0.9,5.9-0.9c3.8,0,5.5,2,5.5,4.8
					c0,0.7-0.2,1.8-0.4,2.6l-1.8,6.6h-4.9l0.2-1.7H273.6z M271.9,775.1c0,0.5,0.3,0.8,0.8,0.8c0.8,0,1.4-0.7,1.4-1.7
					c0-0.5-0.3-0.8-0.8-0.8C272.6,773.4,271.9,774.1,271.9,775.1z"/>
				<path class="st0" d="M291.1,760.8l-4.9,18.1h-5.6l4.9-18.1H291.1z"/>
				<path class="st0" d="M294.8,779.3c-3.6,0-5.5-2-5.5-4.8c0-0.6,0.1-1.2,0.3-1.9l0.3-1.2c1.2-4.3,3.7-6.4,8.2-6.4
					c3.1,0,5.4,1.7,5.4,4.2c0,0.9-0.2,1.9-0.7,3.6h-7.7l-0.2,0.6c-0.1,0.3-0.1,0.6-0.1,0.9c0,0.5,0.3,0.8,0.9,0.8
					c0.6,0,1.1-0.4,1.5-1.4l5.2,0.7C301.2,777.5,298.6,779.3,294.8,779.3z M295.5,771.1h2.4c0.2-0.7,0.2-1,0.2-1.2
					c0-0.6-0.3-0.9-0.9-0.9c-0.8,0-1.3,0.6-1.6,1.7L295.5,771.1z"/>
				<path class="st0" d="M306.8,766.6c1.2-1,2.9-1.6,5.1-1.6c3,0,5.2,1.3,5.2,3.5c0,0.3,0,0.7-0.1,1l-5.2,0.3c0-0.1,0.1-0.3,0.1-0.4
					c0-0.4-0.2-0.6-0.7-0.6c-0.7,0-1,0.4-1,0.8c0,0.4,0.2,0.6,0.8,0.7l2,0.4c1.9,0.4,3.2,1.5,3.2,3.2c0,1.3-0.7,2.6-2.1,3.7
					c-1.3,1-3.2,1.6-5.3,1.6c-3.2,0-5.4-1.3-5.4-3.6c0-0.3,0-0.6,0.1-0.9l5.2-0.4c0,0.1,0,0.2,0,0.3c0,0.4,0.3,0.6,0.8,0.6
					c0.7,0,1.2-0.4,1.2-0.8c0-0.4-0.3-0.6-0.8-0.7l-1.8-0.5c-1.7-0.4-3.1-1.5-3.1-3.1C304.8,769,305.5,767.6,306.8,766.6z"/>
				<path class="st0" d="M328.9,777.3c-0.7,1.2-2.4,2-4,2c-2.2,0-3.3-1.3-3.3-3.1c0-3.1,2.1-5.5,5.5-5.5c1.6,0,2.7,0.5,3,1h0.3
					c0-0.1,0.1-0.4,0.1-0.7c0-1-0.6-1.4-2.3-1.4c-1.4,0-2.7,0.3-3.6,0.6v-4.3c2-0.6,4-0.9,5.9-0.9c3.8,0,5.5,2,5.5,4.8
					c0,0.7-0.2,1.8-0.4,2.6l-1.8,6.6H329l0.2-1.7H328.9z M327.2,775.1c0,0.5,0.3,0.8,0.8,0.8c0.8,0,1.4-0.7,1.4-1.7
					c0-0.5-0.3-0.8-0.8-0.8C327.9,773.4,327.2,774.1,327.2,775.1z"/>
				<path class="st0" d="M335,782.3l4.5-16.9h5l-0.5,2.8h0.3c0.9-1.9,2.7-3.1,4.7-3.1c2,0,3.4,1.6,3.4,4.2c0,0.7-0.1,1.6-0.4,2.5
					l-0.3,1.1c-1.2,4.6-3.5,6.5-6.3,6.5c-2.1,0-3.2-1.2-3.5-2.5h-0.3c-0.1,1.3-0.2,2.6-0.5,3.8l-0.5,1.7H335z M343.5,772.3l-0.2,0.6
					c-0.1,0.2-0.1,0.5-0.1,0.7c0,0.6,0.4,1.1,1.1,1.1c0.9,0,1.6-0.7,1.9-1.8l0.2-0.6c0.1-0.3,0.1-0.5,0.1-0.7c0-0.6-0.4-1.1-1.1-1.1
					C344.5,770.5,343.8,771.2,343.5,772.3z"/>
				<path class="st0" d="M362.4,760.8l-4.9,18.1H352l4.9-18.1H362.4z"/>
				<path class="st0" d="M369,765.4l-3.6,13.5h-5.6l3.6-13.5H369z M366.7,764.1c-1.6,0-2.7-0.9-2.7-2.4c0-1.7,1.5-3.1,3.5-3.1h0.4
					c1.6,0,2.7,0.9,2.7,2.4c0,1.7-1.5,3.1-3.5,3.1H366.7z"/>
				<path class="st0" d="M368.4,774.5c0-0.6,0.1-1.2,0.3-1.9l0.3-1.2c1.1-4.3,3.6-6.4,8-6.4c3.3,0,5.1,2,5.1,4.8
					c0,0.4,0,0.7-0.1,1.1l-5.4,0.4c0.1-0.2,0.1-0.5,0.1-0.7c0-0.6-0.2-0.9-0.7-0.9c-0.7,0-1.1,0.5-1.4,1.6l-0.5,1.7
					c-0.1,0.3-0.2,0.7-0.2,0.9c0,0.5,0.3,0.9,0.8,0.9c0.6,0,1.1-0.4,1.4-1.7l5.3,0.4c-1.2,3.9-3.6,5.9-7.8,5.9
					C370.2,779.3,368.4,777.3,368.4,774.5z"/>
				<path class="st0" d="M389.2,777.3c-0.7,1.2-2.4,2-4,2c-2.2,0-3.3-1.3-3.3-3.1c0-3.1,2.1-5.5,5.5-5.5c1.6,0,2.7,0.5,3,1h0.3
					c0-0.1,0.1-0.4,0.1-0.7c0-1-0.6-1.4-2.3-1.4c-1.4,0-2.7,0.3-3.6,0.6v-4.3c2-0.6,4-0.9,5.9-0.9c3.8,0,5.5,2,5.5,4.8
					c0,0.7-0.2,1.8-0.4,2.6l-1.8,6.6h-4.9l0.2-1.7H389.2z M387.5,775.1c0,0.5,0.3,0.8,0.8,0.8c0.8,0,1.4-0.7,1.4-1.7
					c0-0.5-0.3-0.8-0.8-0.8C388.2,773.4,387.5,774.1,387.5,775.1z"/>
				<path class="st0" d="M405.2,770.5c-0.7,0-1.3,0.5-1.6,1.7l-1.8,6.8h-5.6l3.6-13.5h4.9l-0.5,2.8h0.3c0.9-1.8,2.7-3.1,4.6-3.1
					c1.8,0,3.1,1.3,3.1,3.5c0,0.6-0.1,1.2-0.3,1.9l-2.3,8.5h-5.6l1.8-6.6c0.1-0.4,0.1-0.7,0.1-0.9
					C406,770.7,405.7,770.5,405.2,770.5z"/>
				<path class="st0" d="M424.6,771.4c-0.1,0.6-0.2,1-0.2,1.3c0,0.8,0.4,1.1,1.2,1.1c1.1,0,1.8-0.5,2.3-2.4l2.9-10.6h5.7l-2.8,10.4
					c-1.5,5.8-4.4,8.1-9.2,8.1c-4.2,0-6.2-1.8-6.2-5c0-0.9,0.1-1.9,0.4-3.1l2.8-10.4h5.9L424.6,771.4z"/>
				<path class="st0" d="M446.3,767.4c0.1,0.7,0.2,1.7,0.1,2.5l0,0.8h0.3c0.1-1.1,0.4-2.9,0.8-4.4l1.5-5.5h5.4l-4.9,18.1h-6.5
					l-0.8-6c-0.1-0.7-0.2-1.5-0.1-2.3l0-1h-0.3c-0.1,1.1-0.4,2.9-0.8,4.4l-1.3,5h-5.4l4.9-18.1h6.3L446.3,767.4z"/>
				<path class="st0" d="M463.3,760.8l-4.9,18.1h-5.9l4.9-18.1H463.3z"/>
				<path class="st0" d="M477.6,771.6c-1.5,5.4-4.3,7.7-9.4,7.7c-4.1,0-6-1.9-6-5.2c0-0.9,0.1-2,0.5-3.1l0.6-2.2
					c1.6-5.9,4.3-8.3,9.5-8.3c4.1,0,6.1,1.9,6.1,5.2c0,0.7-0.1,1.6-0.3,2.5l-5.9,0.4c0.1-0.5,0.2-1,0.2-1.4c0-0.9-0.5-1.2-1.3-1.2
					c-1.1,0-1.7,0.6-2.3,2.7l-0.8,2.7c-0.2,0.6-0.3,1-0.3,1.4c0,0.9,0.5,1.2,1.3,1.2c1.1,0,1.7-0.6,2.4-2.7L477.6,771.6z"/>
				<path class="st0" d="M487.1,775.8h-3.6l-1.4,3.1H476l9.2-18.1h7.9l-0.4,18.1h-5.9L487.1,775.8z M486.4,771.5
					c0.3,0,0.7,0,0.8,0.1l0.3-0.2c0-0.2,0-0.4,0-0.6c0-0.3,0-0.7,0-0.9l0.1-1.6c0-0.7,0.1-1.5,0.3-2.3h-0.3
					c-0.3,0.8-0.6,1.6-0.9,2.3l-0.8,1.8c-0.2,0.5-0.5,1.1-0.7,1.3l0.2,0.2C485.7,771.5,486,771.5,486.4,771.5L486.4,771.5z"/>
				<path class="st0" d="M505.1,778.9h-2.4l-0.6-6c-0.1-0.7-0.1-1.6-0.1-2.4c0-0.2,0-0.5,0-0.9h-0.3c-0.1,1.1-0.4,2.9-0.8,4.4
					l-1.3,5H494l4.9-18.1h6.9l0.3,6.3c0,0.4,0,0.8,0,1.3c0,0.4,0,1,0,1.3h0.3c0.5-1.1,1-1.9,1.4-2.7l3.8-6.3h7.4l-4.9,18.1h-5.9
					l1.3-5c0.4-1.5,1.1-3.3,1.5-4.4h-0.3c-0.5,1-1.2,2.3-1.9,3.3L505.1,778.9z"/>
				<path class="st0" d="M521.9,760.8h12.8l-1.4,5.1h-6.9l-0.6,2h5.8l-1,3.9h-5.8l-0.5,2h7.1l-1.4,5.2H517L521.9,760.8z"/>
				<path class="st0" d="M544.5,767.4c0.1,0.7,0.2,1.7,0.1,2.5l0,0.8h0.3c0.1-1.1,0.4-2.9,0.8-4.4l1.5-5.5h5.4l-4.9,18.1h-6.5
					l-0.8-6c-0.1-0.7-0.2-1.5-0.1-2.3l0-1H540c-0.1,1.1-0.4,2.9-0.8,4.4l-1.3,5h-5.4l4.9-18.1h6.3L544.5,767.4z"/>
				<path class="st0" d="M563,766.3l-3.4,12.6h-5.9l3.4-12.6h-4l1.5-5.6h14l-1.5,5.6H563z"/>
				<path class="st0" d="M570.5,760.8h12.8l-1.4,5.1h-6.9l-0.6,2h5.8l-1,3.9h-5.8l-0.5,2h7.1l-1.4,5.2h-13.1L570.5,760.8z"/>
				<path class="st0" d="M592,779.3c-3.6,0-5.5-2-5.5-4.8c0-0.6,0.1-1.2,0.3-1.9l0.3-1.2c1.2-4.3,3.7-6.4,8.2-6.4
					c3.1,0,5.4,1.7,5.4,4.2c0,0.9-0.2,1.9-0.7,3.6h-7.7l-0.2,0.6c-0.1,0.3-0.1,0.6-0.1,0.9c0,0.5,0.3,0.8,0.9,0.8
					c0.6,0,1.1-0.4,1.5-1.4l5.2,0.7C598.3,777.5,595.7,779.3,592,779.3z M592.7,771.1h2.4c0.2-0.7,0.2-1,0.2-1.2
					c0-0.6-0.3-0.9-0.9-0.9c-0.8,0-1.3,0.6-1.6,1.7L592.7,771.1z"/>
				<path class="st0" d="M609,770.5c-0.8,0-1.3,0.5-1.6,1.7l-1.8,6.8H600l3.6-13.5h4.9l-0.5,2.8h0.3c0.9-1.8,2.7-3.1,4.6-3.1
					c1.8,0,3.1,1.3,3.1,3.5c0,0.6-0.1,1.2-0.3,1.9l-2.3,8.5h-5.6l1.8-6.6c0.1-0.4,0.1-0.7,0.1-0.9
					C609.8,770.7,609.5,770.5,609,770.5z"/>
				<path class="st0" d="M627.9,774.1l-1.3,4.8h-5.9l4.9-18.1h7.2c3.9,0,5.9,1.5,5.9,4.6c0,2.3-0.8,5.2-2.5,6.7
					c-1.4,1.3-3.3,2-5.7,2H627.9z M630.2,765.5l-1.1,4.1h0.5c2,0,2.7-1.5,2.7-2.9c0-0.8-0.5-1.2-1.6-1.2H630.2z"/>
				<path class="st0" d="M644.8,773.8c0.7,0,1.3-0.5,1.6-1.7l1.8-6.8h5.6l-3.6,13.5h-4.9l0.5-2.8h-0.3c-0.9,1.8-2.7,3.1-4.6,3.1
					c-1.8,0-3.1-1.3-3.1-3.5c0-0.6,0.1-1.2,0.3-1.9l2.3-8.5h5.6l-1.8,6.6c-0.1,0.4-0.1,0.7-0.1,0.9
					C644,773.6,644.3,773.8,644.8,773.8z"/>
				<path class="st0" d="M661.2,770.5c-0.8,0-1.3,0.5-1.6,1.7l-1.8,6.8h-5.6l3.6-13.5h4.9l-0.5,2.8h0.3c0.9-1.8,2.7-3.1,4.6-3.1
					c1.8,0,3.1,1.3,3.1,3.5c0,0.6-0.1,1.2-0.3,1.9l-2.3,8.5h-5.6l1.8-6.6c0.1-0.4,0.1-0.7,0.1-0.9
					C662,770.7,661.7,770.5,661.2,770.5z"/>
				<path class="st0" d="M673.8,779.3c-3,0-4.5-1.6-4.5-3.9c0-0.6,0.1-1.2,0.2-1.8l0.9-3.3h-1.3l1.1-4c2.7-0.9,4.6-2.7,5.7-4.8h2.5
					l-1,3.9h3.2l-1.3,5H676l-0.7,2.5c-0.1,0.3-0.1,0.5-0.1,0.7c0,0.7,0.4,0.9,1.1,0.9c0.5,0,1-0.1,1.5-0.3l-0.3,4.4
					C676.4,779,674.9,779.3,673.8,779.3z"/>
				<path class="st0" d="M688.6,765c3.5,0,5.4,2,5.4,4.8c0,0.6-0.1,1.3-0.3,1.9l-0.3,1.2c-1.2,4.3-3.7,6.4-8.3,6.4
					c-3.5,0-5.4-2-5.4-4.8c0-0.6,0.1-1.2,0.3-1.9l0.3-1.2C681.5,767.2,684.1,765,688.6,765z M685.4,773c-0.1,0.3-0.1,0.5-0.1,0.7
					c0,0.6,0.3,0.9,1,0.9c0.8,0,1.3-0.6,1.7-1.7l0.5-1.7c0.1-0.3,0.1-0.5,0.1-0.7c0-0.6-0.3-0.9-1-0.9c-0.8,0-1.3,0.6-1.7,1.7
					L685.4,773z"/>
				<path class="st0" d="M697.5,766.6c1.2-1,2.9-1.6,5.1-1.6c3,0,5.2,1.3,5.2,3.5c0,0.3,0,0.7-0.1,1l-5.2,0.3c0-0.1,0.1-0.3,0.1-0.4
					c0-0.4-0.2-0.6-0.7-0.6c-0.7,0-1,0.4-1,0.8c0,0.4,0.2,0.6,0.8,0.7l2,0.4c1.9,0.4,3.2,1.5,3.2,3.2c0,1.3-0.7,2.6-2.1,3.7
					c-1.3,1-3.2,1.6-5.3,1.6c-3.2,0-5.4-1.3-5.4-3.6c0-0.3,0-0.6,0.1-0.9l5.2-0.4c0,0.1,0,0.2,0,0.3c0,0.4,0.3,0.6,0.8,0.6
					c0.7,0,1.2-0.4,1.2-0.8c0-0.4-0.3-0.6-0.8-0.7l-1.8-0.5c-1.7-0.4-3.1-1.5-3.1-3.1C695.5,769,696.2,767.6,697.5,766.6z"/>
				<path class="st0" d="M730.7,760.8l-4.9,18.1h-5l0.5-2.8h-0.3c-0.9,1.9-2.7,3.1-4.7,3.1c-2,0-3.4-1.6-3.4-4.2
					c0-0.7,0.1-1.6,0.4-2.5l0.3-1.1c1.2-4.6,3.5-6.5,6.3-6.5c2.1,0,3.2,1.2,3.5,2.5h0.3c0.1-1.3,0.2-2.6,0.5-3.8l0.8-2.9H730.7z
					 M722,772l0.2-0.6c0.1-0.2,0.1-0.5,0.1-0.7c0-0.6-0.4-1.1-1.1-1.1c-0.9,0-1.6,0.7-1.9,1.8l-0.2,0.6c-0.1,0.3-0.1,0.5-0.1,0.7
					c0,0.6,0.4,1.1,1.1,1.1C720.9,773.8,721.6,773.1,722,772z"/>
				<path class="st0" d="M734.5,779.3c-3.6,0-5.5-2-5.5-4.8c0-0.6,0.1-1.2,0.3-1.9l0.3-1.2c1.2-4.3,3.7-6.4,8.2-6.4
					c3.1,0,5.4,1.7,5.4,4.2c0,0.9-0.2,1.9-0.7,3.6h-7.7l-0.2,0.6c-0.1,0.3-0.1,0.6-0.1,0.9c0,0.5,0.3,0.8,0.9,0.8
					c0.6,0,1.1-0.4,1.5-1.4l5.2,0.7C740.8,777.5,738.2,779.3,734.5,779.3z M735.2,771.1h2.4c0.2-0.7,0.2-1,0.2-1.2
					c0-0.6-0.3-0.9-0.9-0.9c-0.8,0-1.3,0.6-1.6,1.7L735.2,771.1z"/>
				<path class="st0" d="M767.7,760.8l-9,18.1h-8.2l0.5-18.1h5.9L756,771c-0.1,1-0.2,1.5-0.3,2.5h0.3c0.4-1,0.6-1.5,1-2.5l4.4-10.2
					H767.7z"/>
				<path class="st0" d="M769.5,779.3c-3.6,0-5.5-2-5.5-4.8c0-0.6,0.1-1.2,0.3-1.9l0.3-1.2c1.2-4.3,3.7-6.4,8.2-6.4
					c3.1,0,5.4,1.7,5.4,4.2c0,0.9-0.2,1.9-0.7,3.6h-7.7l-0.2,0.6c-0.1,0.3-0.1,0.6-0.1,0.9c0,0.5,0.3,0.8,0.9,0.8
					c0.6,0,1.1-0.4,1.5-1.4l5.2,0.7C775.8,777.5,773.2,779.3,769.5,779.3z M770.2,771.1h2.4c0.2-0.7,0.2-1,0.2-1.2
					c0-0.6-0.3-0.9-0.9-0.9c-0.8,0-1.3,0.6-1.6,1.7L770.2,771.1z"/>
				<path class="st0" d="M786.5,770.5c-0.7,0-1.3,0.5-1.6,1.7l-1.8,6.8h-5.6l3.6-13.5h4.9l-0.5,2.8h0.3c0.9-1.8,2.7-3.1,4.6-3.1
					c1.8,0,3.1,1.3,3.1,3.5c0,0.6-0.1,1.2-0.3,1.9l-2.3,8.5h-5.6l1.8-6.6c0.1-0.4,0.1-0.7,0.1-0.9
					C787.3,770.7,787,770.5,786.5,770.5z"/>
				<path class="st0" d="M799,779.3c-3,0-4.5-1.6-4.5-3.9c0-0.6,0.1-1.2,0.2-1.8l0.9-3.3h-1.3l1.1-4c2.7-0.9,4.6-2.7,5.7-4.8h2.5
					l-1,3.9h3.2l-1.3,5h-3.2l-0.7,2.5c-0.1,0.3-0.1,0.5-0.1,0.7c0,0.7,0.4,0.9,1.1,0.9c0.5,0,1-0.1,1.5-0.3l-0.3,4.4
					C801.6,779,800.1,779.3,799,779.3z"/>
				<path class="st0" d="M811.7,777.3c-0.7,1.2-2.4,2-4,2c-2.2,0-3.3-1.3-3.3-3.1c0-3.1,2.1-5.5,5.5-5.5c1.6,0,2.7,0.5,3,1h0.3
					c0-0.1,0.1-0.4,0.1-0.7c0-1-0.6-1.4-2.3-1.4c-1.4,0-2.7,0.3-3.6,0.6v-4.3c2-0.6,4-0.9,5.9-0.9c3.8,0,5.5,2,5.5,4.8
					c0,0.7-0.2,1.8-0.4,2.6l-1.8,6.6h-4.9l0.2-1.7H811.7z M810,775.1c0,0.5,0.3,0.8,0.8,0.8c0.8,0,1.4-0.7,1.4-1.7
					c0-0.5-0.3-0.8-0.8-0.8C810.7,773.4,810,774.1,810,775.1z"/>
				<path class="st0" d="M833.4,765c3.5,0,5.4,2,5.4,4.8c0,0.6-0.1,1.3-0.3,1.9l-0.3,1.2c-1.2,4.3-3.7,6.4-8.3,6.4
					c-3.5,0-5.4-2-5.4-4.8c0-0.6,0.1-1.2,0.3-1.9l0.3-1.2C826.2,767.2,828.8,765,833.4,765z M830.1,773c-0.1,0.3-0.1,0.5-0.1,0.7
					c0,0.6,0.3,0.9,1,0.9c0.8,0,1.3-0.6,1.7-1.7l0.5-1.7c0.1-0.3,0.1-0.5,0.1-0.7c0-0.6-0.3-0.9-1-0.9c-0.8,0-1.3,0.6-1.7,1.7
					L830.1,773z"/>
				<path class="st0" d="M859.8,771.6c-1.5,5.4-4.3,7.7-9.4,7.7c-4.1,0-6-1.9-6-5.2c0-0.9,0.1-2,0.5-3.1l0.6-2.2
					c1.6-5.9,4.3-8.3,9.5-8.3c4.1,0,6.1,1.9,6.1,5.2c0,0.7-0.1,1.6-0.3,2.5l-5.9,0.4c0.1-0.5,0.2-1,0.2-1.4c0-0.9-0.5-1.2-1.3-1.2
					c-1.1,0-1.7,0.6-2.3,2.7l-0.8,2.7c-0.2,0.6-0.3,1-0.3,1.4c0,0.9,0.5,1.2,1.3,1.2c1.1,0,1.7-0.6,2.4-2.7L859.8,771.6z"/>
				<path class="st0" d="M867.3,777.3c-0.7,1.2-2.4,2-4,2c-2.2,0-3.3-1.3-3.3-3.1c0-3.1,2.1-5.5,5.5-5.5c1.6,0,2.7,0.5,3,1h0.3
					c0-0.1,0.1-0.4,0.1-0.7c0-1-0.6-1.4-2.3-1.4c-1.4,0-2.7,0.3-3.6,0.6v-4.3c2-0.6,4-0.9,5.9-0.9c3.8,0,5.5,2,5.5,4.8
					c0,0.7-0.2,1.8-0.4,2.6l-1.8,6.6h-4.9l0.2-1.7H867.3z M865.6,775.1c0,0.5,0.3,0.8,0.8,0.8c0.8,0,1.4-0.7,1.4-1.7
					c0-0.5-0.3-0.8-0.8-0.8C866.2,773.4,865.6,774.1,865.6,775.1z"/>
				<path class="st0" d="M884.8,760.8l-4.9,18.1h-5.6l4.9-18.1H884.8z"/>
				<path class="st0" d="M892.5,760.8l-4.9,18.1h-5.6l4.9-18.1H892.5z"/>
				<path class="st0" d="M911.4,771.6c-1.5,5.4-4.3,7.7-9.4,7.7c-4.1,0-6-1.9-6-5.2c0-0.9,0.1-2,0.5-3.1l0.6-2.2
					c1.6-5.9,4.3-8.3,9.5-8.3c4.1,0,6.1,1.9,6.1,5.2c0,0.7-0.1,1.6-0.3,2.5l-5.9,0.4c0.1-0.5,0.2-1,0.2-1.4c0-0.9-0.5-1.2-1.3-1.2
					c-1.1,0-1.7,0.6-2.3,2.7l-0.8,2.7c-0.2,0.6-0.3,1-0.3,1.4c0,0.9,0.5,1.2,1.3,1.2c1.1,0,1.7-0.6,2.4-2.7L911.4,771.6z"/>
				<path class="st0" d="M917.7,779.3c-3.6,0-5.5-2-5.5-4.8c0-0.6,0.1-1.2,0.3-1.9l0.3-1.2c1.2-4.3,3.7-6.4,8.2-6.4
					c3.1,0,5.4,1.7,5.4,4.2c0,0.9-0.2,1.9-0.7,3.6h-7.7l-0.2,0.6c-0.1,0.3-0.1,0.6-0.1,0.9c0,0.5,0.3,0.8,0.9,0.8
					c0.6,0,1.1-0.4,1.5-1.4l5.2,0.7C924,777.5,921.4,779.3,917.7,779.3z M918.4,771.1h2.4c0.2-0.7,0.2-1,0.2-1.2
					c0-0.6-0.3-0.9-0.9-0.9c-0.8,0-1.3,0.6-1.6,1.7L918.4,771.1z"/>
				<path class="st0" d="M934.6,770.5c-0.7,0-1.3,0.5-1.6,1.7l-1.8,6.8h-5.6l3.6-13.5h4.9l-0.5,2.8h0.3c0.9-1.8,2.7-3.1,4.6-3.1
					c1.8,0,3.1,1.3,3.1,3.5c0,0.6-0.1,1.2-0.3,1.9l-2.3,8.5h-5.6l1.8-6.6c0.1-0.4,0.1-0.7,0.1-0.9
					C935.4,770.7,935.1,770.5,934.6,770.5z"/>
				<path class="st0" d="M947.2,779.3c-3,0-4.5-1.6-4.5-3.9c0-0.6,0.1-1.2,0.2-1.8l0.9-3.3h-1.3l1.1-4c2.7-0.9,4.6-2.7,5.7-4.8h2.5
					l-1,3.9h3.2l-1.3,5h-3.2l-0.7,2.5c-0.1,0.3-0.1,0.5-0.1,0.7c0,0.7,0.4,0.9,1.1,0.9c0.5,0,1-0.1,1.5-0.3l-0.3,4.4
					C949.8,779,948.3,779.3,947.2,779.3z"/>
				<path class="st0" d="M958.7,779.3c-3.6,0-5.5-2-5.5-4.8c0-0.6,0.1-1.2,0.3-1.9l0.3-1.2c1.2-4.3,3.7-6.4,8.2-6.4
					c3.1,0,5.4,1.7,5.4,4.2c0,0.9-0.2,1.9-0.7,3.6h-7.7l-0.2,0.6c-0.1,0.3-0.1,0.6-0.1,0.9c0,0.5,0.3,0.8,0.9,0.8
					c0.6,0,1.1-0.4,1.5-1.4l5.2,0.7C965,777.5,962.4,779.3,958.7,779.3z M959.4,771.1h2.4c0.2-0.7,0.2-1,0.2-1.2
					c0-0.6-0.3-0.9-0.9-0.9c-0.8,0-1.3,0.6-1.6,1.7L959.4,771.1z"/>
				<path class="st0" d="M974,772.6l-1.7,6.3h-5.6l3.6-13.5h4.9l-0.5,2.8h0.3c1-1.9,2.5-3.1,4.1-3.1c1.4,0,2.6,1.1,2.6,3.4
					c0,0.8-0.1,1.8-0.4,2.9l-5.3,0.8c0-0.2,0.1-0.5,0.1-0.7c0-0.5-0.2-0.8-0.6-0.8C974.9,770.7,974.4,771.1,974,772.6L974,772.6z"/>
				<path class="st0" d="M63.8,795.6c1.1-4.2,2.6-6.2,5-7.7l0.2,0.4c-2.3,1.4-3.7,3.3-4.7,7.3l-1.8,6.7c-0.4,1.5-0.6,2.8-0.6,3.8
					c0,1.5,0.5,2.6,1.4,3.4l-0.3,0.3c-1-1-1.5-2.1-1.5-3.7c0-1.1,0.2-2.3,0.6-3.9L63.8,795.6z"/>
				<path class="st0" d="M77.5,795.7c0.1,0.7,0.2,1.7,0.1,2.5l0,0.8h0.3c0.1-1.1,0.4-2.9,0.8-4.4l1.5-5.5h5.4l-4.9,18.1h-6.5l-0.8-6
					c-0.1-0.7-0.2-1.5-0.1-2.3l0-1h-0.3c-0.1,1.1-0.4,2.9-0.8,4.4l-1.3,5h-5.4l4.9-18.1h6.3L77.5,795.7z"/>
				<path class="st0" d="M100.3,799.2c-1.6,5.9-4.4,8.3-9.6,8.3c-4.1,0-6.1-1.9-6.1-5.2c0-0.9,0.1-2,0.5-3.1l0.6-2.2
					c1.6-5.9,4.4-8.3,9.6-8.3c4.1,0,6.1,1.9,6.1,5.2c0,0.9-0.1,2-0.5,3.1L100.3,799.2z M95.1,796.8c0.2-0.6,0.3-1,0.3-1.4
					c0-0.9-0.5-1.2-1.4-1.2c-1.1,0-1.8,0.6-2.4,2.7l-0.8,2.7c-0.2,0.6-0.3,1-0.3,1.4c0,0.9,0.5,1.2,1.4,1.2c1.1,0,1.8-0.6,2.4-2.7
					L95.1,796.8z"/>
				<path class="st0" d="M112.5,805.6c-0.7,1.2-2.4,2-4,2c-2.2,0-3.3-1.3-3.3-3.1c0-3.1,2.1-5.5,5.5-5.5c1.6,0,2.7,0.5,3,1h0.3
					c0-0.1,0.1-0.4,0.1-0.7c0-1-0.6-1.4-2.3-1.4c-1.4,0-2.7,0.3-3.6,0.6v-4.3c2-0.6,4-0.9,5.9-0.9c3.8,0,5.5,2,5.5,4.8
					c0,0.7-0.2,1.8-0.4,2.6l-1.8,6.5h-4.9l0.2-1.7H112.5z M110.8,803.4c0,0.5,0.3,0.8,0.8,0.8c0.8,0,1.4-0.7,1.4-1.7
					c0-0.5-0.3-0.8-0.8-0.8C111.4,801.7,110.8,802.4,110.8,803.4z"/>
				<path class="st0" d="M118.6,810.6l4.5-16.9h5l-0.5,2.8h0.3c0.9-1.9,2.7-3.1,4.7-3.1c2,0,3.4,1.6,3.4,4.2c0,0.7-0.1,1.6-0.4,2.5
					l-0.3,1.1c-1.2,4.6-3.5,6.5-6.3,6.5c-2.1,0-3.2-1.2-3.5-2.5h-0.3c-0.1,1.3-0.2,2.6-0.5,3.8l-0.5,1.7H118.6z M127,800.6l-0.2,0.6
					c-0.1,0.2-0.1,0.5-0.1,0.7c0,0.6,0.4,1.1,1.1,1.1c0.9,0,1.6-0.7,1.9-1.8l0.2-0.6c0.1-0.3,0.1-0.5,0.1-0.7c0-0.6-0.4-1.1-1.1-1.1
					C128,798.8,127.4,799.5,127,800.6z"/>
				<path class="st0" d="M146,789.1l-4.9,18.1h-5.6l4.9-18.1H146z"/>
				<path class="st0" d="M152.5,793.7l-3.6,13.5h-5.6l3.6-13.5H152.5z M150.3,792.4c-1.6,0-2.7-0.9-2.7-2.4c0-1.7,1.5-3.1,3.5-3.1
					h0.4c1.6,0,2.7,0.9,2.7,2.4c0,1.7-1.5,3.1-3.5,3.1H150.3z"/>
				<path class="st0" d="M152,802.8c0-0.6,0.1-1.2,0.3-1.9l0.3-1.2c1.1-4.3,3.6-6.4,8-6.4c3.3,0,5.1,2,5.1,4.8c0,0.4,0,0.7-0.1,1.1
					l-5.4,0.4c0.1-0.2,0.1-0.5,0.1-0.7c0-0.6-0.2-0.9-0.7-0.9c-0.7,0-1.1,0.5-1.4,1.6l-0.5,1.7c-0.1,0.3-0.2,0.7-0.2,0.9
					c0,0.5,0.3,0.9,0.8,0.9c0.6,0,1.1-0.4,1.4-1.7l5.3,0.4c-1.2,3.9-3.6,5.9-7.8,5.9C153.8,807.6,152,805.6,152,802.8z"/>
				<path class="st0" d="M172.8,805.6c-0.7,1.2-2.4,2-4,2c-2.2,0-3.3-1.3-3.3-3.1c0-3.1,2.1-5.5,5.5-5.5c1.6,0,2.7,0.5,3,1h0.3
					c0-0.1,0.1-0.4,0.1-0.7c0-1-0.6-1.4-2.3-1.4c-1.4,0-2.7,0.3-3.6,0.6v-4.3c2-0.6,4-0.9,5.9-0.9c3.8,0,5.5,2,5.5,4.8
					c0,0.7-0.2,1.8-0.4,2.6l-1.8,6.5h-4.9l0.2-1.7H172.8z M171.1,803.4c0,0.5,0.3,0.8,0.8,0.8c0.8,0,1.4-0.7,1.4-1.7
					c0-0.5-0.3-0.8-0.8-0.8C171.7,801.7,171.1,802.4,171.1,803.4z"/>
				<path class="st0" d="M188.8,798.8c-0.7,0-1.3,0.5-1.6,1.7l-1.8,6.8h-5.6l3.6-13.5h4.9l-0.5,2.8h0.3c0.9-1.8,2.7-3.1,4.6-3.1
					c1.8,0,3.1,1.3,3.1,3.5c0,0.6-0.1,1.2-0.3,1.9l-2.3,8.5h-5.6l1.8-6.6c0.1-0.4,0.1-0.7,0.1-0.9
					C189.6,799,189.2,798.8,188.8,798.8z"/>
				<path class="st0" d="M217.2,793.7l-6.9,13.5h-7.8l0.2-13.5h5.7l-0.7,6.2c-0.1,1-0.2,1.5-0.4,2.5h0.3c0.3-1,0.5-1.5,1-2.5
					l2.6-6.2H217.2z"/>
				<path class="st0" d="M223.8,793.7l-3.6,13.5h-5.6l3.6-13.5H223.8z M226,790.6l-5.8,1.9l-0.7-2l5.6-3L226,790.6z"/>
				<path class="st0" d="M230,805.6c-0.7,1.2-2.4,2-4,2c-2.2,0-3.3-1.3-3.3-3.1c0-3.1,2.1-5.5,5.5-5.5c1.6,0,2.7,0.5,3,1h0.3
					c0-0.1,0.1-0.4,0.1-0.7c0-1-0.6-1.4-2.3-1.4c-1.4,0-2.7,0.3-3.6,0.6v-4.3c2-0.6,4-0.9,5.9-0.9c3.8,0,5.5,2,5.5,4.8
					c0,0.7-0.2,1.8-0.4,2.6l-1.8,6.5h-4.9l0.2-1.7H230z M228.3,803.4c0,0.5,0.3,0.8,0.8,0.8c0.8,0,1.4-0.7,1.4-1.7
					c0-0.5-0.3-0.8-0.8-0.8C229,801.7,228.3,802.4,228.3,803.4z"/>
				<path class="st0" d="M255.1,801.4c0.1-1.5,0.2-2.2,0.4-3.1h-0.3c-0.3,0.9-0.6,1.7-1.3,3.1l-2.4,5.8h-7.1l1.1-18.1h6l-1.4,9.8
					c-0.1,1-0.2,1.5-0.4,2.5h0.3c0.3-1,0.5-1.5,1-2.5l4.2-9.8h5.5l-1,9.8c-0.1,1-0.2,1.5-0.4,2.5h0.3c0.3-1,0.6-1.5,1-2.5l3.8-9.8
					h6.2l-8.7,18.1h-7.3L255.1,801.4z"/>
				<path class="st0" d="M271.9,789.1h12.8l-1.4,5.1h-6.9l-0.6,2h5.8l-1,3.9h-5.8l-0.5,2h7.1l-1.4,5.2H267L271.9,789.1z"/>
				<path class="st0" d="M287.3,789.1h8c3.3,0,5.2,1.4,5.2,3.6c0,1.3-0.5,2.6-1.6,3.5c-1,0.8-2.4,1.3-4.1,1.3l-0.1,0.3
					c2.2,0,3.7,1.1,3.7,3.3c0,1.7-0.7,3.5-2.2,4.7c-1.2,0.9-2.9,1.4-5.1,1.4h-8.9L287.3,789.1z M290.4,799.7l-0.8,3.2h0.7
					c1.7,0,2.3-1,2.3-2.1c0-0.7-0.5-1.1-1.7-1.1H290.4z M292.2,793.3l-0.8,3.1h0.7c1.5,0,2.2-1.1,2.2-2.2c0-0.6-0.4-0.9-1.3-0.9
					H292.2z"/>
				<path class="st0" d="M320,807.2h-2.4l-0.6-6c-0.1-0.7-0.1-1.6-0.1-2.4c0-0.2,0-0.5,0-0.9h-0.3c-0.1,1.1-0.4,2.9-0.8,4.4l-1.3,5
					H309l4.9-18.1h6.9l0.3,6.3c0,0.4,0,0.8,0,1.3c0,0.4,0,1,0,1.3h0.3c0.5-1.1,1-1.9,1.4-2.7l3.8-6.3h7.4l-4.9,18.1h-5.9l1.3-5
					c0.4-1.5,1.1-3.3,1.5-4.4h-0.3c-0.5,1-1.2,2.3-1.9,3.3L320,807.2z"/>
				<path class="st0" d="M341.4,793.3c3.5,0,5.4,2,5.4,4.8c0,0.6-0.1,1.3-0.3,1.9l-0.3,1.2c-1.2,4.3-3.7,6.4-8.3,6.4
					c-3.5,0-5.4-2-5.4-4.8c0-0.6,0.1-1.2,0.3-1.9l0.3-1.2C334.3,795.5,336.8,793.3,341.4,793.3z M338.2,801.3
					c-0.1,0.3-0.1,0.5-0.1,0.7c0,0.6,0.3,0.9,1,0.9c0.8,0,1.3-0.6,1.7-1.7l0.5-1.7c0.1-0.3,0.1-0.5,0.1-0.7c0-0.6-0.3-0.9-1-0.9
					c-0.8,0-1.3,0.6-1.7,1.7L338.2,801.3z"/>
				<path class="st0" d="M352.1,804.5l-1,2.8h-4.8l4.9-18.1h5.6l-0.8,2.9c-0.3,1.2-0.9,2.5-1.5,3.8h0.3c1.1-1.6,2.6-2.5,4.4-2.5
					c2.2,0,3.6,1.6,3.6,4.2c0,0.7-0.1,1.6-0.4,2.5l-0.3,1.1c-1.2,4.6-3.5,6.5-6.3,6.5c-2.3,0-3.3-1.3-3.4-3.1H352.1z M353.7,800.3
					l-0.2,0.6c-0.1,0.2-0.1,0.5-0.1,0.7c0,0.6,0.4,1.1,1.1,1.1c0.9,0,1.6-0.7,1.9-1.8l0.2-0.6c0.1-0.3,0.1-0.5,0.1-0.7
					c0-0.6-0.4-1.1-1.1-1.1C354.8,798.5,354.1,799.2,353.7,800.3z"/>
				<path class="st0" d="M371.4,793.7l-3.6,13.5h-5.6l3.6-13.5H371.4z M369.2,792.4c-1.6,0-2.7-0.9-2.7-2.4c0-1.7,1.5-3.1,3.5-3.1
					h0.4c1.6,0,2.7,0.9,2.7,2.4c0,1.7-1.5,3.1-3.5,3.1H369.2z"/>
				<path class="st0" d="M380.4,789.1l-4.9,18.1H370l4.9-18.1H380.4z"/>
				<path class="st0" d="M384.1,807.6c-3.6,0-5.5-2-5.5-4.8c0-0.6,0.1-1.2,0.3-1.9l0.3-1.2c1.2-4.3,3.7-6.4,8.2-6.4
					c3.1,0,5.4,1.7,5.4,4.2c0,0.9-0.2,1.9-0.7,3.6h-7.7l-0.2,0.6c-0.1,0.3-0.1,0.6-0.1,0.9c0,0.5,0.3,0.8,0.9,0.8
					c0.6,0,1.1-0.4,1.5-1.4l5.2,0.7C390.5,805.8,387.9,807.6,384.1,807.6z M384.9,799.4h2.4c0.2-0.7,0.2-1,0.2-1.2
					c0-0.6-0.3-0.9-0.9-0.9c-0.8,0-1.3,0.6-1.6,1.7L384.9,799.4z"/>
				<path class="st0" d="M395.9,802.2c-1.1,4.2-2.6,6.2-5,7.7l-0.2-0.4c2.3-1.4,3.7-3.3,4.7-7.3l1.8-6.7c0.4-1.5,0.6-2.8,0.6-3.8
					c0-1.5-0.5-2.6-1.4-3.4l0.3-0.3c1,1,1.5,2.1,1.5,3.7c0,1.1-0.2,2.3-0.6,3.9L395.9,802.2z"/>
			</g>
		</g>
		<g>
			<path class="st0" d="M285.5,875.2h-1.3l-1.9,7.1h1.2c1.2,0,2.2-0.5,2.9-1.6c0.7-1.1,1.1-2.3,1.1-3.5c0-0.7-0.2-1.2-0.5-1.5
				C286.7,875.4,286.2,875.2,285.5,875.2z"/>
			<path class="st0" d="M346.6,885.9c0.3,0,0.5,0,0.8,0h0c0.3,0,0.5,0,0.8,0c0.2,0,0.5,0.1,0.6,0.1l0.5-0.3c0-0.2,0-0.4,0-0.5
				c0-0.2,0-0.3,0-0.4c0-0.3,0-0.5,0-0.8c0-0.3,0-0.5,0.1-0.7l0.2-2.6c0-0.6,0.1-1.2,0.2-1.8c0.1-0.6,0.2-1.3,0.3-1.9h-0.5
				c-0.2,0.7-0.5,1.3-0.7,1.9c-0.3,0.6-0.5,1.2-0.8,1.8l-1.3,2.9c-0.2,0.4-0.4,0.8-0.6,1.2c-0.2,0.4-0.4,0.7-0.5,0.9l0.3,0.3
				C346.1,885.9,346.4,885.9,346.6,885.9z"/>
			<path class="st0" d="M127.3,885.9c0.3,0,0.5,0,0.8,0h0c0.3,0,0.5,0,0.8,0c0.2,0,0.5,0.1,0.6,0.1l0.5-0.3c0-0.2,0-0.4,0-0.5
				c0-0.2,0-0.3,0-0.4c0-0.3,0-0.5,0-0.8c0-0.3,0-0.5,0.1-0.7l0.2-2.6c0-0.6,0.1-1.2,0.2-1.8c0.1-0.6,0.2-1.3,0.3-1.9h-0.5
				c-0.2,0.7-0.5,1.3-0.7,1.9c-0.3,0.6-0.5,1.2-0.8,1.8l-1.3,2.9c-0.2,0.4-0.4,0.8-0.6,1.2c-0.2,0.4-0.4,0.7-0.5,0.9l0.3,0.3
				C126.8,885.9,127,885.9,127.3,885.9z"/>
			<path class="st0" d="M259.7,877.1c-0.4-0.3-0.9-0.4-1.6-0.4c-0.9,0-1.7,0.3-2.3,0.9c-0.6,0.6-1.1,1.7-1.6,3.4l-1.3,4.3
				c-0.1,0.5-0.2,0.9-0.3,1.3c-0.1,0.4-0.1,0.7-0.1,1c0,0.8,0.2,1.3,0.6,1.6c0.4,0.3,0.9,0.4,1.6,0.4c0.9,0,1.7-0.3,2.3-0.9
				c0.6-0.6,1.1-1.7,1.6-3.4l1.3-4.3c0.1-0.5,0.2-0.9,0.3-1.3c0.1-0.4,0.1-0.7,0.1-1C260.3,877.9,260.1,877.4,259.7,877.1z"/>
			<path class="st0" d="M419.4,877.1c-0.4-0.3-0.9-0.4-1.6-0.4c-0.9,0-1.7,0.3-2.3,0.9c-0.6,0.6-1.1,1.7-1.6,3.4l-1.3,4.3
				c-0.1,0.5-0.2,0.9-0.3,1.3c-0.1,0.4-0.1,0.7-0.1,1c0,0.8,0.2,1.3,0.6,1.6c0.4,0.3,0.9,0.4,1.6,0.4c0.9,0,1.7-0.3,2.3-0.9
				c0.6-0.6,1.1-1.7,1.6-3.4l1.3-4.3c0.1-0.5,0.2-0.9,0.3-1.3c0.1-0.4,0.1-0.7,0.1-1C420,877.9,419.8,877.4,419.4,877.1z"/>
			<path class="st0" d="M65.4,842.4v76.9h407.5v-76.9H65.4z M424.9,858.6l1.3,5.1l-10.4,2.7l-1.1-3.3L424.9,858.6z M137.5,858.6
				l1.3,5.1l-10.4,2.7l-1.1-3.3L137.5,858.6z M99.4,897.9l2.2-8.1c0.3-1.2,0.7-2.5,1.2-3.8c0.5-1.3,0.9-2.4,1.3-3.3h-0.5
				c-0.4,0.8-0.9,1.7-1.4,2.7c-0.5,1-1.1,1.9-1.6,2.7l-6.3,9.8h-4l-1-9.8c-0.1-0.6-0.1-1.3-0.1-1.9c0-0.7-0.1-1.4-0.1-2
				c0-0.2,0-0.4,0-0.6s0-0.5,0-0.8h-0.5c-0.1,0.9-0.3,2-0.5,3.3c-0.2,1.3-0.5,2.6-0.8,3.8l-2.2,8.1h-8.9l7.9-29.5h11.3l0.4,10.2
				c0,0.3,0,0.7,0,1c0,0.4,0,0.7,0,1.1c0,0.3,0,0.7,0,1.1c0,0.4,0,0.8-0.1,1.1h0.5c0.4-0.9,0.8-1.7,1.2-2.4c0.4-0.7,0.8-1.3,1.1-1.9
				l6.3-10.2h12l-7.9,29.5H99.4z M138.4,897.9h-9.6l0.4-5h-5.8l-2.2,5h-9.9l14.9-29.5h12.8L138.4,897.9z M167.6,876.3
				c0,0.4-0.1,0.8-0.1,1.2L158,878c0.1-0.3,0.1-0.6,0.2-0.8c0-0.2,0.1-0.4,0.1-0.6c0-0.5-0.1-0.8-0.4-1c-0.3-0.2-0.7-0.3-1.1-0.3
				c-0.8,0-1.5,0.2-1.9,0.7c-0.5,0.5-0.7,1.1-0.7,1.7c0,0.5,0.1,0.9,0.4,1.2c0.2,0.3,0.6,0.5,1,0.6l4,1c1.8,0.4,3.2,1.2,4.2,2.4
				c1,1.2,1.5,2.6,1.5,4.4c0,1.4-0.3,2.8-1,4.4c-0.7,1.5-1.7,2.9-3.2,4c-1.2,0.9-2.7,1.7-4.4,2.2c-1.7,0.5-3.7,0.7-5.9,0.7
				c-3.2,0-5.6-0.6-7.2-1.8c-1.6-1.2-2.4-3.1-2.4-5.6c0-0.4,0-0.7,0.1-1.1c0-0.4,0.1-0.8,0.1-1.2l9.6-0.5c-0.1,0.2-0.1,0.5-0.1,0.6
				c0,0.2-0.1,0.4-0.1,0.6c0,0.5,0.2,0.9,0.5,1.1c0.3,0.2,0.7,0.3,1.3,0.3c0.8,0,1.5-0.2,2-0.7c0.5-0.4,0.8-1,0.8-1.6
				c0-0.4-0.1-0.8-0.4-1.1c-0.3-0.3-0.7-0.5-1.2-0.6l-3.5-1.1c-1.8-0.5-3.1-1.3-4-2.4c-0.9-1.1-1.4-2.5-1.4-4.2
				c0-1.5,0.4-3.1,1.2-4.7c0.8-1.7,2-3.1,3.6-4.2c1.1-0.8,2.5-1.4,4.1-1.9c1.6-0.4,3.3-0.7,5.1-0.7c3,0,5.2,0.6,6.8,1.8
				c1.5,1.2,2.3,3.1,2.3,5.6C167.7,875.5,167.7,875.9,167.6,876.3z M173.6,897.9l7.9-29.5h9.7l-7.9,29.5H173.6z M202.3,897.9
				l-1.3-9.8c-0.1-0.6-0.1-1.2-0.2-1.9c-0.1-0.7-0.1-1.3,0-1.9l0-1.6h-0.5c-0.1,0.9-0.3,2-0.5,3.3c-0.2,1.3-0.5,2.6-0.8,3.8
				l-2.2,8.1h-8.8l7.9-29.5h10.2l1.4,10.7c0.1,0.6,0.1,1.3,0.2,2c0.1,0.7,0.1,1.4,0,2.1l0,1.3h0.5c0.1-0.9,0.3-2,0.5-3.3
				c0.2-1.3,0.5-2.6,0.8-3.8l2.4-9h8.8l-7.9,29.5H202.3z M239.3,888.6h-9.5l-2.5,9.3h-9.7l7.9-29.5h20.9l-2.4,9.1h-11.2l-1,3.7h9.5
				L239.3,888.6z M262.7,895.3c-2.4,2.1-5.7,3.2-10,3.2c-3.3,0-5.8-0.7-7.4-2.2c-1.7-1.5-2.5-3.6-2.5-6.3c0-0.8,0.1-1.6,0.2-2.4
				c0.1-0.9,0.3-1.8,0.6-2.7l1-3.5c1.3-4.8,3.2-8.3,5.6-10.4c2.4-2.1,5.7-3.2,10-3.2c3.3,0,5.8,0.7,7.4,2.2c1.7,1.5,2.5,3.6,2.5,6.3
				c0,0.8-0.1,1.6-0.2,2.4c-0.1,0.9-0.3,1.8-0.6,2.7l-1,3.5C267,889.7,265.1,893.2,262.7,895.3z M288.7,885.1c1.3,0.2,2.3,0.8,3,1.8
				c0.7,1,1.1,2.4,1.2,4.3l0.6,6.9h-10.1l-0.4-7.1c0-0.8-0.2-1.3-0.6-1.6c-0.4-0.3-1-0.4-1.8-0.4h-0.1l-2.4,9.1h-9.7l7.9-29.5h13.3
				c2.7,0,4.8,0.5,6.2,1.6c1.4,1.1,2.1,2.6,2.1,4.5c0,1.3-0.2,2.7-0.7,4.1c-0.5,1.4-1.2,2.6-2.2,3.5c-0.8,0.8-1.8,1.4-2.9,1.8
				c-1.1,0.4-2.4,0.6-3.8,0.6l-0.2,0.5L288.7,885.1z M318.7,897.9l2.2-8.1c0.3-1.2,0.7-2.5,1.2-3.8c0.5-1.3,0.9-2.4,1.3-3.3h-0.5
				c-0.4,0.8-0.9,1.7-1.4,2.7c-0.5,1-1.1,1.9-1.6,2.7l-6.3,9.8h-4l-1-9.8c-0.1-0.6-0.1-1.3-0.1-1.9c0-0.7-0.1-1.4-0.1-2
				c0-0.2,0-0.4,0-0.6s0-0.5,0-0.8H308c-0.1,0.9-0.3,2-0.5,3.3c-0.2,1.3-0.5,2.6-0.8,3.8l-2.2,8.1h-8.9l7.9-29.5h11.3l0.4,10.2
				c0,0.3,0,0.7,0,1c0,0.4,0,0.7,0,1.1c0,0.3,0,0.7,0,1.1c0,0.4,0,0.8-0.1,1.1h0.5c0.4-0.9,0.8-1.7,1.2-2.4c0.4-0.7,0.8-1.3,1.1-1.9
				l6.3-10.2h12l-7.9,29.5H318.7z M357.7,897.9h-9.6l0.4-5h-5.8l-2.2,5h-9.9l14.9-29.5h12.8L357.7,897.9z M380.7,895.6
				c-2.4,2-5.7,2.9-9.8,2.9c-3.3,0-5.8-0.7-7.4-2.2c-1.6-1.5-2.4-3.6-2.4-6.3c0-0.8,0.1-1.6,0.2-2.4c0.1-0.9,0.3-1.8,0.6-2.7l1-3.5
				c1.3-4.8,3.2-8.3,5.6-10.4c2.4-2.1,5.7-3.2,10-3.2c3.3,0,5.8,0.7,7.4,2.2c1.6,1.5,2.5,3.6,2.5,6.3c0,0.6,0,1.2-0.1,1.9
				c-0.1,0.7-0.2,1.4-0.4,2.1L378,881c0.1-0.4,0.2-0.8,0.3-1.2c0.1-0.4,0.1-0.8,0.1-1.1c0-0.8-0.2-1.3-0.6-1.6
				c-0.4-0.3-0.9-0.4-1.5-0.4c-0.9,0-1.7,0.3-2.2,0.9c-0.6,0.6-1.1,1.7-1.6,3.4l-1.3,4.3c-0.1,0.5-0.2,0.9-0.3,1.3
				c-0.1,0.4-0.1,0.7-0.1,1c0,0.8,0.2,1.3,0.6,1.6c0.4,0.3,0.9,0.4,1.6,0.4c0.9,0,1.7-0.3,2.2-0.9c0.6-0.6,1.1-1.7,1.7-3.4l9.3,0.7
				C384.9,890.5,383.1,893.6,380.7,895.6z M386.5,897.9l7.9-29.5h9.7l-7.9,29.5H386.5z M422.4,895.3c-2.4,2.1-5.7,3.2-10,3.2
				c-3.3,0-5.8-0.7-7.4-2.2c-1.7-1.5-2.5-3.6-2.5-6.3c0-0.8,0.1-1.6,0.2-2.4c0.1-0.9,0.3-1.8,0.6-2.7l1-3.5
				c1.3-4.8,3.2-8.3,5.6-10.4c2.4-2.1,5.7-3.2,10-3.2c3.3,0,5.8,0.7,7.4,2.2c1.7,1.5,2.5,3.6,2.5,6.3c0,0.8-0.1,1.6-0.2,2.4
				c-0.1,0.9-0.3,1.8-0.6,2.7l-1,3.5C426.6,889.7,424.8,893.2,422.4,895.3z M452.9,897.9h-10.5l-1.3-9.8c-0.1-0.6-0.1-1.2-0.2-1.9
				c-0.1-0.7-0.1-1.3,0-1.9l0-1.6h-0.5c-0.1,0.9-0.3,2-0.5,3.3c-0.2,1.3-0.5,2.6-0.8,3.8l-2.2,8.1h-8.8l7.9-29.5h10.2l1.4,10.7
				c0.1,0.6,0.1,1.3,0.2,2c0.1,0.7,0.1,1.4,0,2.1l0,1.3h0.5c0.1-0.9,0.3-2,0.5-3.3c0.2-1.3,0.5-2.6,0.8-3.8l2.4-9h8.8L452.9,897.9z"
				/>
		</g>
	</g>
	<path class="st0" d="M1051.5,992.3H0V0h1051.5V992.3z M11.8,980.5h1027.9V11.8H11.8V980.5z"/>
</g>
</svg>
