<?xml version="1.0" encoding="utf-8"?>
<!-- Generator: Adobe Illustrator 19.0.0, SVG Export Plug-In . SVG Version: 6.00 Build 0)  -->
<svg version="1.1" id="Layer_1" xmlns="http://www.w3.org/2000/svg" xmlns:xlink="http://www.w3.org/1999/xlink" x="0px" y="0px"
	 width="500.3px" height="139.7px" viewBox="0 0 500.3 139.7" style="enable-background:new 0 0 500.3 139.7;" xml:space="preserve"
	>
<style type="text/css">
	.Drop_x0020_Shadow{fill:none;}
	.Outer_x0020_Glow_x0020_5_x0020_pt{fill:none;}
	.Blue_x0020_Neon{fill:none;stroke:#8AACDA;stroke-width:7;stroke-linecap:round;stroke-linejoin:round;}
	.Chrome_x0020_Highlight{fill:url(#SVGID_1_);stroke:#FFFFFF;stroke-width:0.3629;stroke-miterlimit:1;}
	.Jive_GS{fill:#FFDD00;}
	.Alyssa_GS{fill:#A6D0E4;}
	.st0{fill:#FFFFFF;}
</style>
<linearGradient id="SVGID_1_" gradientUnits="userSpaceOnUse" x1="-230.1565" y1="-209.7831" x2="-230.1565" y2="-210.7831">
	<stop  offset="0" style="stop-color:#656565"/>
	<stop  offset="0.618" style="stop-color:#1B1B1B"/>
	<stop  offset="0.6292" style="stop-color:#545454"/>
	<stop  offset="0.9831" style="stop-color:#3E3E3E"/>
</linearGradient>
<g id="XMLID_5_">
	<g id="XMLID_37_">
		<g id="XMLID_270_">
			<path id="XMLID_293_" class="st0" d="M197.7,60.6c1.6-0.9,2.8-1.6,4-2.3c8.4-5.1,17.2-9.3,26.2-13.1c1.1-0.5,2.2-1.4,2.9-2.4
				c3.2-4.4,5.8-9.1,9.7-13c3-2.9,4-3.2,7.8-1.7c1.5,0.6,2.8,1,4.5,0.7c0.8-0.1,1.8,0.2,2.6,0.5c3.1,1.3,6.1,2.8,8.3,5.6
				c3,3.9,4.2,8.1,3.1,13c-0.2,0.9-0.1,1.8-0.3,2.6c-0.1,0.6-0.4,1.2-0.7,1.7c-0.4,0.9-0.9,1.7-1.3,2.6c-0.6,1.5-1.2,3.1-1.8,4.7
				c-0.1,0.2-0.4,0.6-0.6,0.6c-2,0.1-4.1,0.3-6.1,0c-1.8-0.2-2.7-1.8-2.8-3.7c-0.2-3-0.6-6.1-1-9.1c-0.2-0.1-0.3-0.1-0.5-0.2
				c-1.3,1.4-3,2.6-3.9,4.2c-3.7,6.5-7.3,13.1-10.7,19.8c-1.2,2.3-1.5,5-2.2,7.6c-0.7,2.5-1.6,5-2,7.6c-0.5,3.3-0.7,6.7-0.9,10.1
				c-0.1,1,0.8,1.5,1.8,1.6c1.7,0.2,3.6-0.1,5.2,0.5c3.1,1.2,4.8-1,7.1-2c0.9-0.4,1.8-1.2,2.7-1.1c2.6,0.1,4.6-1.4,6.8-2.4
				c7.9-3.4,14.3-9.2,21.3-13.9c1.9-1.3,3.9-2.5,5.8-3.9c0.4-0.3,0.9-0.7,1.1-1.1c3.4-11.3,8.6-21.8,13-32.8
				c0.3-0.8,0.7-1.6,1.1-2.3c0.9-1.5,2.2-2.2,3.9-2.2c7.5-0.2,12.5,3.8,16.2,9.8c1.5,2.5,0.4,5.1-0.7,7.4c-1.6,3.7-3.6,7.2-5.2,10.9
				c-2.9,6.8-5.9,13.7-8.4,20.6c-3.3,9.1-6.7,18.1-10.9,26.9c-0.2,0.4-0.6,0.8-0.9,1.1c-1,0.8-2.1,1.5-3.1,2.3
				c-1.6,1.4-2.9,1.2-4.4-0.2c-0.8-0.7-1.8-1.3-2.8-1.7c-2.2-0.8-3.2-2.2-2.7-4.6c0.1-0.6,0.3-1.3,0.5-1.9c0.3-1.1,0.1-2.1-0.6-3.1
				c-1.7-2.3-1.4-5-1-7.6c0.3-1.8,0.9-3.5,1.3-5.2c0.1-0.3,0.1-0.6,0.2-1.4c-1.6,1.2-3,2.1-4.2,3.1c-7.6,7-16.3,12-25.9,15.6
				c-5.4,2-11,3.8-17,3.5c-1.9-0.1-3.8-0.5-5.8-0.8c-0.3,0-0.6-0.1-0.8-0.3c-2.5-1.7-5.5-2.7-7.1-5.4c-1.2-2-1.8-4.4-2.7-6.7
				c-0.4-1-0.5-2.1-0.9-3.1c-1.7-3.9-1-7.9-0.8-11.9c0.1-1.6,0.3-3.2,0.4-4.8c0.6-8,3.8-15,7.5-21.9c0.2-0.4,0.4-0.8,0.6-1.3
				c-0.1-0.1-0.2-0.2-0.3-0.3c-2.3,1.3-4.6,2.4-6.8,3.9c-4.4,3-8.7,6.1-13.1,9.1c-1.6,1.1-3.2,2-4.8,2.9c-0.9,0.5-1.5,1.1-1.8,2.2
				c-1.4,5.7-2.8,11.4-4.4,17c-1.6,5.2-3.5,10.2-5.3,15.3c-0.3,0.7-1.1,1.3-1.6,1.9c-0.3,0.4-0.8,0.6-1,1c-1.4,4.2-4.7,6.5-8.5,8.2
				c-4,1.9-8.1,1.3-12-0.5c-3.8-1.7-7.4-3.8-10.9-6c-1.3-0.8-2.3-2.4-2.9-3.8c-1.7-3.5-3.4-7-4.5-10.7c-1.2-3.9-0.9-8,0.1-11.9
				c2.5-9.8,5.6-19.5,9.5-28.8c3.2-7.8,7.5-15,13.8-20.7c2.8-2.5,5.8-4.4,9.5-5.3c1.5-0.4,2.9-0.3,4.3,0.4c1.9,1,3.9,1.8,5.7,3
				c1.3,0.9,2.6,2.2,3.5,3.6c1.6,2.5,3,5.3,4.4,8c1.5,2.9,2.3,6,2.2,9.3C197.7,56.1,197.7,58.1,197.7,60.6z M180.8,50.2
				c-2.9,1.4-4.7,3.3-6,5.7c-1.8,3.6-3.8,7.2-5.3,11c-2.1,5.3-3.7,10.9-5.6,16.3c-1.7,4.8-2,9.6-0.4,14.4c0.3,0.9,0.9,1.7,1.3,2.6
				c0.8-0.5,1.7-0.8,2.3-1.4c3.3-3.5,6.5-7,7.2-12c0.1-1.1,0.6-2.2,0.8-3.3c0.3-1.6,0.3-3.3,0.8-4.8c2.7-8.1,4.9-16.3,4.9-25
				C180.8,52.6,180.8,51.5,180.8,50.2z"/>
			<path id="XMLID_290_" class="st0" d="M399.4,52.4c-5,2.8-10,5.4-14.9,8.4c-3.9,2.4-7.5,5.3-11.3,8c-1.5,1-2.9,2.1-4.5,2.8
				c-1.4,0.7-2.1,1.7-2.4,3.1c-1.8,10.5-5.7,20.3-9.1,30.3c-0.5,1.4-0.7,3-2.6,3.5c-0.2,0.1-0.4,0.4-0.5,0.7
				c-2.6,7.2-12,11.9-20.6,7.8c-3.7-1.7-7.2-3.8-10.7-5.8c-1-0.6-1.9-1.7-2.4-2.8c-1.7-3.4-3.5-6.7-4.7-10.3
				c-1.6-4.5-1.4-9.3-0.2-13.9c2.5-9.8,5.6-19.3,9.5-28.6c3.7-8.7,8.4-16.6,16.1-22.5c2.5-1.9,5.2-3.1,8.3-3.6c1-0.2,2.1,0.1,3,0.5
				c2,0.9,4.1,1.9,6,3.1c1.2,0.7,2.4,1.8,3.1,3c2.1,3.8,4.1,7.6,5.8,11.6c0.8,2,0.9,4.4,1.1,6.7c0.2,1.9,0,3.8,0,6
				c1-0.5,1.8-0.9,2.6-1.4c9.6-5.9,19.7-10.7,30.1-14.9c1.2-0.5,1.9-1.2,2.2-2.5c0.8-2.9,1.8-5.7,2.7-8.5c0.5-1.5,2.4-2.3,3.8-1.9
				c0.7,0.2,1.4,0,2.2-0.1c0.9-0.1,1.6,0.2,1.5,1.3c-0.1,0.9,0.3,1.3,1.2,1.6c0.8,0.3,1.5,0.9,2.1,1.6c1.3,1.5,2.5,3.1,3.9,4.5
				c1.6,1.6,1.5,3.4,1.2,5.3c-0.6,3.6-1.1,7.2-1.6,10.8c-0.1,0.5-0.1,1,0.2,1.7c0.6-0.6,1.2-1.2,1.7-1.9c3.9-5.9,8.2-11.5,13.2-16.5
				c2.5-2.5,4.6-5.4,7.8-7.1c1.1-0.6,2.4-1.1,3.6-1.2c3.6-0.4,7.2-1.1,10.8-0.9c3.8,0.2,7,2.3,9.2,5.3c0.7,1,1.1,2.5,1.1,3.8
				c0.3,6-0.5,12-1.8,17.9c-1,4.7-1.6,9.4-2.5,14.1c-0.6,3.5-1.3,7-2,10.5c-0.1,0.3,0,0.6,0,1c2.5-0.7,4.6-1.9,6.6-3.4
				c7.1-5.3,13.8-11,20.2-17.2c2.7-2.7,5.8-5,8.7-7.5c0.8-0.7,1.6-0.9,2.6-0.3c1,0.6,1.1,1.5,0.5,2.3c-1.1,1.6-2.2,3.1-3.5,4.6
				c-1.6,1.8-3.3,3.4-4,5.8c-0.2,0.7-0.8,1.3-1.3,1.8c-4.8,5.2-9.5,10.3-14.3,15.4c-3.3,3.5-6.7,7-10.3,10.1
				c-2.1,1.8-4.8,2.8-7.2,4.1c-0.7,0.3-1.6,0.4-2.3,0.2c-7.6-1.3-11.6-6-13.3-13.9c-1-4.5,0.1-8.9,0.6-13.3c0.7-5.7,1.5-11.3,2.2-17
				c0.2-1.3,0.4-2.5,0.6-3.8c-0.1-0.1-0.3-0.2-0.4-0.3c-0.7,0.7-1.4,1.4-2,2.2c-4.5,6.1-8.8,12.3-13.3,18.3c-2.6,3.4-4.9,6.9-7,10.7
				c-1.7,3.1-4.3,5.6-6.4,8.4c-2.2,3-4.3,6.2-6.6,9.2c-2.5,3.4-5.1,6.8-7.9,9.9c-2.4,2.6-5.7,3.1-9.1,2.1c-0.8-0.2-1.4-0.9-2-1.4
				c-0.6-0.5-1-1.1-1.6-1.6c-2.1-1.5-2.8-3.6-3.1-6c-0.4-3,0.2-5.9,0.8-8.9c0.8-4.3,1.3-8.6,2.5-12.7c2.5-8.8,5.4-17.5,8.1-26.3
				c0.2-0.6,0.3-1.2,0.5-1.8C399.6,52.6,399.5,52.5,399.4,52.4z M351.1,50.3c-2.7,1.4-4.4,3.3-5.8,5.8c-5,9-8.4,18.7-11.3,28.6
				c-1.4,4.9-1.1,9.6,0.4,14.3c0.5,1.4,1.2,1.6,2.3,0.7c0.3-0.3,0.7-0.6,1-0.9c3.7-3.7,6.6-7.9,7.5-13.2c0.1-0.8,0.3-1.6,0.4-2.5
				c0.2-1.5,0.3-3,0.8-4.4c2-6.5,4.3-12.9,4.6-19.8C351.2,56.2,351.1,53.3,351.1,50.3z"/>
			<path id="XMLID_289_" class="st0" d="M317.6,22.6c-1-0.5-1.9-1.9-3.8-1.7c-0.9,0.1-2.7-3.5-2.4-4.8c0.5-2.3,0.7-4.9,1.9-6.8
				c1.6-2.5,2.8-5.2,4.4-7.7c0.4-0.6,1.3-1.1,2-1.1c5.5-0.1,10.4,1.4,14.4,5.2c0.9,0.8,1.5,2.1,1.9,3.3c0.7,1.8-0.5,3.4-2.4,3.7
				c-2.5,0.5-4.6,1.4-6.2,3.6c-1.1,1.5-3,2.3-4.5,3.5c-0.2,0.1-0.4,0.1-0.5,0.2C321.1,21.2,319.7,22.1,317.6,22.6z"/>
			<g id="XMLID_271_">
				<path id="XMLID_275_" class="st0" d="M146.2,7c-1.6-1.9-3.1-4-4.9-5.7c-0.7-0.7-2-1.1-3.1-1.3c-0.8-0.2-1.8,0-2.5,0.4
					c-1.1,0.4-2.5,0.9-3.2,1.7c-4.2,5.8-8.6,13.9-12.1,20.1c-4.4,8.1-8.2,16.5-11.9,25c-2.9,6.7-5.5,13.5-8,20.3
					C98,74.4,96.3,81.6,93,88.2c-0.4,0.8-0.7,1.7-1.1,2.6c-0.3-0.6-0.2-1.1-0.1-1.7c0.6-3,1.2-6,1.8-9c0.6-3.3,1.1-6.6,1.8-9.8
					c0.5-2.3,1.2-4.5,1.7-6.7c0.6-2.9,1-5.9,1.7-8.8c1.2-5,2.6-10,3.9-15c1.1-4.1,1.5-9.7,3.3-13.6c0.3-0.7,0.2-1.9-0.1-2.7
					c-1.2-2.9-3-5.4-5.4-7.4c-1.3-1.1-2.8-1.8-4.6-1.6c-0.2,0-0.5,0-0.7-0.1c-1.5-0.3-2.9-0.6-4.4-0.8c-0.6-0.1-1.5,0.3-1.9,0.7
					c-1.4,1.3-2.9,2.6-4,4.2c-5.2,7.2-10.3,15.8-15.4,23.1c-1.4,2-2.6,4.2-3.8,6.2c-0.1,0-0.2-0.1-0.4-0.1c0.3-1,0.5-1.9,0.8-2.9
					c1.3-6.2,2.3-6.1,2.2-12.2c-0.1-2.4-0.9-4.6-1.7-6.9c-0.7-2.1-1.2-3.2-2.5-5.1c-0.4-0.6-1-1.2-1.8-1.8c-4.3-4.5-9.4-4.8-9.4-4.8
					c-3.7-0.6-8.1,0.2-11.2,1.7C40,16.7,35.4,19,30.3,23C17,35.6,10.1,41.1,3.9,55.1c-1.2,2.6-2.1,5.2-2.7,7.9
					c-0.1,0.3-0.2,0.7-0.2,1C0.4,66.7,0,69.4,0,72.1c0,1.4,0.1,2.7,0.4,4C2.1,79.6,3.5,80,5,80.4c1.1,0.3,2,2,3,2.7
					c0.4,0.1,0.8,0.2,1.2,0.3c1.5-0.4,4.5-0.2,3.8-3.8c0,0,0,0,0,0c-0.6-2.3-0.7-4.6-0.6-6.9l-0.8,0.3l0.6-4.3l0.6,3.5
					c-0.2-2.1,0.2-4.3,0.3-4.9c0.1-0.8,0.3-1.6,0.6-2.4c0.3-1-0.4-2-1.5-2c0,0,2.6-1.3,3.6-3.5c1-2.2,1.7-5.6,1.7-5.6l-0.6,4.3
					c1.7-3.9,4.1-7.7,6.1-10.7C28,39.8,30,35.3,40.3,26.6c2.9-2.4,5.8-5.3,9.5-6.3c1.4-0.4,2.6-0.3,3.5,0c1.3,1.1,1.3,2.2,1.5,4.2
					c0.1,1.4-0.9,4.8-1.3,6.1c-0.9,3.5-1.2,4-3.3,10.9c-1.5,5-2.6,8.7-3.9,13.6c-1.2,4.5-2.7,9.6-3.7,14.2c-1,5-1.4,8.1-2.5,13.1
					c-1.1,5.1-2.5,10.2-3.7,15.3c-0.5,2.4-1.1,4.8-1.1,7.2c0,1.9,0.5,3.9,2.8,4.8c1.1,0.4,2.1,1.3,3.3,2.2c1.4-0.8,2.6-1.9,2.9-4.1
					c0.2,0.4,0.4,0.7,0.5,0.9c0.6-0.8,1-1.4,1.5-2c0.6-0.8,1.3-1.5,2.2-2.1c0.7-0.5,0.9-1.8,1.3-2.8c2.5-5.7,4.8-11.6,8.1-16.9
					c1.6-2.5,3-5,4.4-7.6c1.3-2.4,2.3-4.9,3.7-7.2c5.6-9.3,11.3-18.6,17-27.9c0.3-0.4,0.6-0.8,1-1.2c0.1,0.1,0.2,0.2,0.3,0.3
					c-0.9,3.1-1.8,6.1-2.6,9.2c-1.2,4.9-2.3,9.9-3.4,14.8c-1,4.9-2.1,9.7-3,14.6c-1.5,8.1-1.5,8.5-2.9,16.6c-0.7,4.2,0.6,4.7,1.5,9
					c0.4,2.2,1.1,4,3.3,5c2,0.9,4,1.8,5.1,3.9c0.2,0.4,1.6,0.5,2.2,0.2c0.7-0.3,1.3-1.2,1.8-1.8c1-1.3,2.2-2.6,3-4
					c2.5-4.1,4.2-7.2,6.1-11.6c2.6-5.9,2.4-3.4,4.7-9.4c1.6-4.3,3-6.7,4.8-10.9c0.1,0,0.1,0,0.2,0.1c-0.1,0.8-0.2,1.7-0.3,2.5
					c4.1-7.8,5.6-16.6,9.9-24.4c4.2-7.6,8.1-15.4,12.1-23.2c0.1,0,0.2,0.1,0.4,0.1c-0.3,1.5-0.6,2.9-0.9,4.4c-1,4.8-2,9.6-3,14.3
					c-1.3,6.2-2.7,12.5-4,18.7l-0.2,0c-0.3,1.9-0.7,3.8-1,5.8c-0.3,1.2-0.6,2.4-0.8,3.7c-0.2,1.3-0.5,2.6-0.8,3.9
					c-0.3,1.5-0.6,3-0.9,4.5c-0.3,1.5-0.6,3.1-0.9,4.7c-0.3,1.2-0.5,2.3-0.7,3.5c-0.1,1.1-0.4,2.3-0.7,3.5c-0.3,0.7-0.5,1.5-0.6,2.3
					c-0.1,0.8-0.2,1.6-0.3,2.3c-0.3,1.9-0.6,3.8-1.2,5.7c-0.5,1.9-0.5,3.8-0.5,5.7v0.2c0,0.7-0.5,1.4-0.6,2.1
					c-0.1,0.7-0.2,1.4-0.4,2.1c-0.2,1.2-0.2,2.4-0.2,3.6c0,1.2-0.2,2.4-0.5,3.6c-0.2,0.7-0.1,1.9,0.2,3.6c0,1.8,0.3,3.3,0.9,4.5
					c0.1,0.1,0.2,0.4,0.2,0.7c0.4,1.3,1.1,2.2,2,2.7c0.9,0.3,1.5,0.7,1.8,1.1c0.4,0.7,0.8,0.7,1.1,0c0.1-0.1,0.4-0.1,0.7,0
					c0.1,0.1,0.3,0.1,0.4,0c0.3-0.3,0.6-0.4,0.8-0.2c0.2,0.1,0.4,0.1,0.6,0c0.1,0,0.4-0.4,0.7-1.1c0.1,0,0.2-0.1,0.2-0.2
					c0.6-0.1,1.1-0.6,1.6-1.3c0.3-0.3,0.5-0.6,0.7-0.8c0.1-0.2,0.4-0.3,0.7-0.1c0.4,0,0.5-0.2,0.2-0.4c0-0.3,0-0.5,0.1-0.6
					c0.1-0.1,0-0.3-0.1-0.6c-0.1,0-0.3-0.1-0.3-0.2c-0.1-0.2,0-0.2,0.1-0.2c0.6-0.2,0.7-0.4,0.2-0.9c0-0.2,0.1-0.3,0.2-0.3
					c0.1-0.1,0.1-0.2,0-0.3c-0.1-0.3-0.2-0.3-0.2-0.1c0,0.2-0.1,0.1-0.2,0.1h-0.2c0.3,0,0.4-0.7,0.3-1.1c-0.1-0.4,0-0.7,0.2-0.9
					c0.2,0.5,0.3,1,0.1,1.4c0.7-0.6,1.1-1.2,1-1.8c-0.1-0.6,0-1.2,0.1-1.8c-0.3,0-0.4,0.1-0.3,0.3c0.1,0.2,0,0.3-0.1,0.3
					c-0.3-0.4-0.3-0.9-0.1-1.2c0.2-0.4,0.3-0.7,0.1-1c-0.3,0-0.5,0.2-0.6,0.6c-0.1,0.4-0.3,0.4-0.8,0.1c-0.1-0.3-0.1-0.5,0.1-0.6
					c0.2-0.1,0.3-0.3,0.1-0.6c-0.3-0.4-0.3-0.9,0-1.2c0.3-0.4,0.3-0.8,0-1.2c0.1-0.2,0.3-0.2,0.3-0.1c0.1,0.1,0.1,0,0.1-0.3
					c0-0.3,0.1-0.6,0.4-0.9c0-0.4,0.2-1.1,0.7-2c0,0.6,0.2,1.1,0.1,1.5c-0.1,0.4,0.1,0.7,0.1,1v0.4l0.2-0.2c0.1-0.3,0.1-0.6,0.1-0.8
					s0-0.5,0.2-0.8c0.3-0.7,0.5-1.4,0.6-2c0.1-0.6,0.4-1.3,0.7-2c0.4-0.7,0.7-1.5,0.9-2.3c0.1-0.8,0.4-1.7,0.7-2.6
					c-0.4,0.3-0.8,0.7-1,1.2c-0.2,0.5-0.6,1-1,1.5c0.3-0.7,0.4-1.4,0.4-1.9c0-0.5,0.1-1.1,0.4-1.7c0.6-1.3,1.1-2.7,1.6-4
					s1-2.7,1.6-4c0.1-0.4,0.3-0.9,0.4-1.5c0.1-0.5,0.1-1-0.2-1.5c-0.3,0-0.6,0.1-0.8,0.3c-0.2,0.2-0.5,0.5-0.8,0.8
					c0-0.4,0.1-0.9,0.2-1.2c0.1-0.4,0.4-0.8,0.7-1.2c0.3-0.4,0.4-1,0.6-1.6c0.1-0.6,0.8-1.1,0.8-1.6V95h-0.5
					c-0.2,0.9-0.3,0.6-0.3,0.7c-0.1,0.1-0.2,0.3-0.3,0.6c-0.3,0.4-0.6,1-0.8,1.5c-0.2,0.5-0.5,1-0.8,1.5l-0.2,0.2
					c-0.2-0.4-0.3-0.5-0.3-0.1c-0.1,0.4-0.2,0.4-0.3,0.1c0-0.7,0.2-1.5,0.7-2.2c0.4-0.7,0.7-1.6,0.7-2.5c0.6,0.6,0.9,0.6,0.9,0
					c0.1-0.3,0.2-0.5,0.2-0.6c0-0.1,0.1-0.3,0.2-0.6c0.3-0.6,0.6-1.2,0.8-1.8c0.2-0.6,0.5-1.3,0.8-2c0.4-1.2,0.9-2.3,1.3-3.3
					c0.4-1,0.8-2.2,1.1-3.3c0.3-0.9,0.8-1.8,1.2-2.8c0.4-1,0.3-2,1.2-3v-0.2c-0.9,0-0.6,0.1-0.6,0.3s-0.2,0.3-0.5,0.3
					c0-0.9,0.3-1.9,0.9-3.1c0.3-1,0.5-2.1,0.8-3.1l-0.2,0c0.2-0.9,0.5-1.8,0.7-2.7c1.3-5.4,2.6-10.8,3.8-16.2
					c0.9-4.1,1.5-8.3,2.5-12.4c1.9-8.2,4.2-18.8,5.1-27.2C147.7,11,147.7,8.8,146.2,7z M10.5,76.6c-0.3-0.8-0.7-1.7-1-2.6
					c1.3,0.1,1.3,0.1,1.4,2.4C10.7,76.5,10.6,76.6,10.5,76.6z M11.3,67.4c-0.8-0.8-0.6-2.1,0.8-3.8C11.8,64.9,11.6,66.1,11.3,67.4z
					 M11.6,61.4c0.4-1.8,0.6-3.3,1-4.9C13.7,57.6,13.4,59.2,11.6,61.4z M122.1,129.2c0.1,0,0.2,0.1,0.2,0.4h-0.2
					c-0.1,0-0.2-0.1-0.2-0.2C121.9,129.2,122,129.2,122.1,129.2z M125.7,102.6c0.1,0.2,0.1,0.3,0.1,0.5c-0.1-0.2-0.2-0.4-0.4-0.6
					c0.1-0.1,0.2-0.3,0.2-0.4C125.6,102.2,125.6,102.4,125.7,102.6z M123.6,111.5c0-0.1,0-0.2,0-0.3c-0.1-0.2,0-0.4,0.3-0.6h0.2
					c0,0.3-0.1,0.5-0.3,0.7C123.7,111.4,123.6,111.4,123.6,111.5z M124.2,108.4c0,0,0.1-0.1,0.1-0.1c-0.1,0.2-0.1,0.4-0.2,0.6
					C124.2,108.7,124.2,108.6,124.2,108.4z M122.8,118c-0.1-0.3-0.1-0.9,0.2-1.8c0-0.1,0.1-0.2,0.1-0.4c0.1,0,0.2,0,0.2,0
					c0.1-0.2,0.3-0.4,0.4-0.6c-0.1,0.2-0.2,0.5-0.2,0.7C123.3,116.6,123.1,117.3,122.8,118z M123.4,119.3c-0.1,0-0.2-0.1-0.2-0.2
					v-0.4c0.3,0,0.4,0.1,0.4,0.2C123.7,119.2,123.6,119.3,123.4,119.3z M124.3,114.2c-0.1,0.1-0.1,0.2-0.2,0.3
					c0.3-0.6,0.1-0.8-0.5-1.3c0,0,0-0.1,0-0.1c0.3-0.3,0.5-0.4,0.7-0.4c0.1,0.1,0.2,0.4,0.2,0.7
					C124.6,113.8,124.5,114.1,124.3,114.2z M126.6,102.6c-0.2,0.5-0.4,1.1-0.6,1.6c0-0.3,0-0.6-0.1-0.8c0-0.1,0-0.1,0-0.2
					C125.9,102.9,126.1,102.8,126.6,102.6z"/>
				<path id="XMLID_274_" class="st0" d="M98.7,93.7c0.3-0.3,0.4-0.6,0.4-0.9c0-0.3,0.1-0.6,0.4-0.9C99,92.3,98.7,92.9,98.7,93.7z"
					/>
				<path id="XMLID_273_" class="st0" d="M99.6,91.9c0.3-0.6,0.5-1.1,0.7-1.6C99.7,90.9,99.4,91.5,99.6,91.9z"/>
				<path id="XMLID_272_" class="st0" d="M102.9,82.8c-0.3,0.7-0.6,1.6-0.9,2.5c-0.3,0.9-0.7,1.7-1.1,2.5c-0.1,0.2-0.1,0.4,0.2,0.7
					c0.3-0.7,0.6-1.4,0.8-2c0.2-0.6,0.5-1.2,0.8-1.8c0.1-0.3,0.3-0.6,0.4-1c0.1-0.4,0.1-0.8,0-1.2C103,82.3,102.9,82.5,102.9,82.8z"
					/>
			</g>
		</g>
	</g>
	<g id="XMLID_33_">
		<g id="XMLID_303_">
			<g id="XMLID_304_">
				<path id="XMLID_326_" class="st0" d="M172.2,4.9c3.6,0,5.7,1.8,5.7,4.9c0,3.3-2.1,5.1-5.7,5.1h-3.8v4.6h-1.7V4.9H172.2z
					 M168.3,13.3h3.8c2.6,0,4.2-1.2,4.2-3.5c0-2.2-1.5-3.4-4.2-3.4h-3.8V13.3z"/>
				<path id="XMLID_323_" class="st0" d="M198.9,12.2c0,4.1-3.4,7.4-7.7,7.4c-4.3,0-7.7-3.3-7.7-7.4c0-4.2,3.4-7.4,7.7-7.4
					C195.5,4.8,198.9,8.1,198.9,12.2z M185.2,12.2c0,3.2,2.7,5.8,6,5.8s6-2.6,6-5.8c0-3.2-2.7-5.8-6-5.8S185.2,9,185.2,12.2z"/>
				<path id="XMLID_321_" class="st0" d="M218.5,19.5l-4-12.4l-4,12.4h-1.7l-4.9-14.7h1.8l4,12.7l4-12.7l1.7,0l4,12.7l4-12.7h1.7
					l-4.9,14.7H218.5z"/>
				<path id="XMLID_319_" class="st0" d="M233.2,6.5v4.8h7.4v1.6h-7.4v5h8.6v1.6h-10.2V4.9h10v1.6H233.2z"/>
				<path id="XMLID_316_" class="st0" d="M255.9,14.9c-0.3,0-0.7,0-1,0H251v4.6h-1.7V4.9h5.6c3.7,0,5.8,1.8,5.8,4.9
					c0,2.4-1.2,4.1-3.3,4.8l3.4,5H259L255.9,14.9z M254.9,13.3c2.7,0,4.2-1.2,4.2-3.5c0-2.2-1.5-3.4-4.2-3.4H251v6.8H254.9z"/>
				<path id="XMLID_314_" class="st0" d="M270.4,6.5v4.8h7.4v1.6h-7.4v5h8.6v1.6h-10.2V4.9h10v1.6H270.4z"/>
				<path id="XMLID_311_" class="st0" d="M292.5,4.9c4.3,0,7.6,3.2,7.6,7.3c0,4.2-3.3,7.3-7.6,7.3h-5.9V4.9H292.5z M288.3,18h4.3
					c3.3,0,5.8-2.5,5.8-5.7c0-3.3-2.6-5.7-5.9-5.7h-4.2V18z"/>
				<path id="XMLID_307_" class="st0" d="M353.3,4.9c3,0,4.7,1.4,4.7,3.7c0,1.7-1,3-2.7,3.3c2.1,0.3,3.4,1.7,3.4,3.7
					c0,2.5-2,4-5.3,4h-6.3V4.9H353.3z M348.8,11.2h4.4c2,0,3.1-0.9,3.1-2.4c0-1.5-1.2-2.3-3.1-2.3h-4.4V11.2z M348.8,18h4.4
					c2.4,0,3.8-0.9,3.8-2.6c0-1.6-1.4-2.5-3.8-2.5h-4.4V18z"/>
				<path id="XMLID_305_" class="st0" d="M371.5,19.5h-1.7v-5l-5.7-9.7h1.7l4.8,7.7l4.7-7.7h1.7l-5.6,9.7V19.5z"/>
			</g>
		</g>
	</g>
</g>
</svg>
