<?xml version="1.0" encoding="utf-8"?>
<!-- Generator: Adobe Illustrator 19.0.0, SVG Export Plug-In . SVG Version: 6.00 Build 0)  -->
<svg version="1.1" id="Layer_1" xmlns="http://www.w3.org/2000/svg" xmlns:xlink="http://www.w3.org/1999/xlink" x="0px" y="0px"
	 width="66.6px" height="54px" viewBox="0 0 66.6 54" style="enable-background:new 0 0 66.6 54;" xml:space="preserve">
<style type="text/css">
	.Drop_x0020_Shadow{fill:none;}
	.Outer_x0020_Glow_x0020_5_x0020_pt{fill:none;}
	.Blue_x0020_Neon{fill:none;stroke:#8AACDA;stroke-width:7;stroke-linecap:round;stroke-linejoin:round;}
	.Chrome_x0020_Highlight{fill:url(#SVGID_1_);stroke:#FFFFFF;stroke-width:0.3629;stroke-miterlimit:1;}
	.Jive_GS{fill:#FFDD00;}
	.Alyssa_GS{fill:#A6D0E4;}
</style>
<linearGradient id="SVGID_1_" gradientUnits="userSpaceOnUse" x1="-457.3564" y1="-239.425" x2="-457.3564" y2="-240.425">
	<stop  offset="0" style="stop-color:#656565"/>
	<stop  offset="0.618" style="stop-color:#1B1B1B"/>
	<stop  offset="0.6292" style="stop-color:#545454"/>
	<stop  offset="0.9831" style="stop-color:#3E3E3E"/>
</linearGradient>
<g id="XMLID_55_">
	<path id="XMLID_111_" d="M51.6,25.6l8.1-8.1c0.4-0.4,0.4-1.1,0-1.6c-0.4-0.4-1.1-0.4-1.6,0L50,24l-8.1-8.1c-0.4-0.4-1.1-0.4-1.6,0
		c-0.4,0.4-0.4,1.1,0,1.6l8.1,8.1l-8.1,8.1c-0.4,0.4-0.4,1.1,0,1.6c0.2,0.2,0.5,0.3,0.8,0.3c0.3,0,0.6-0.1,0.8-0.3l8.1-8.1l8.1,8.1
		c0.2,0.2,0.5,0.3,0.8,0.3c0.3,0,0.6-0.1,0.8-0.3c0.4-0.4,0.4-1.1,0-1.6L51.6,25.6z M51.6,25.6"/>
	<path id="XMLID_102_" d="M29.9,1.2c-0.6,0-1.2,0.2-1.8,0.5c-0.1,0-0.1,0.1-0.1,0.1l-15,12.7H1.1C0.5,14.5,0,15,0,15.6v21.1
		c0,0.6,0.5,1.1,1.1,1.1h11.8l15,13.8c0.1,0.1,0.1,0.1,0.2,0.1c0.5,0.3,1.1,0.5,1.8,0.5c1.9,0,3.4-1.6,3.4-3.5V4.7
		C33.3,2.7,31.8,1.2,29.9,1.2L29.9,1.2z M14.4,35.6c0,0.6-0.5,1.1-1.1,1.1c-0.6,0-1.1-0.5-1.1-1.1v-4.4c0-0.6,0.5-1.1,1.1-1.1
		c0.6,0,1.1,0.5,1.1,1.1V35.6z M14.4,21.2c0,0.6-0.5,1.1-1.1,1.1c-0.6,0-1.1-0.5-1.1-1.1v-4.4c0-0.6,0.5-1.1,1.1-1.1
		c0.6,0,1.1,0.5,1.1,1.1V21.2z M14.4,21.2"/>
</g>
</svg>
